<svg width="22" height="24" viewBox="0 0 22 24" fill="none" xmlns="http://www.w3.org/2000/svg">
<path id="Vector" fill-rule="evenodd" clip-rule="evenodd" d="M14.6942 2.88H20.3416C21.2686 2.88 22.0273 3.5621 21.9992 4.37053V5.40632C21.9992 6.24 21.2406 6.9221 20.3134 6.9221H20.0606L18.8524 21.7768C18.7682 23.0147 17.588 24 16.2113 24H5.78776C4.41106 24 3.25912 23.0147 3.14682 21.7768L1.93865 6.94737H1.68571C0.758667 6.94737 0 6.26527 0 5.43157V4.3958C0 3.5621 0.758667 2.88 1.68571 2.88H7.30495L7.72641 1.21262C7.92312 0.505271 8.62542 0 9.44031 0L12.587 0.0252686C13.4019 0.0252686 14.1323 0.555792 14.3009 1.26316L14.6942 2.88V2.88ZM9.44016 1.23789C9.27148 1.23789 9.10296 1.33895 9.07492 1.49053L8.73772 2.88H13.3173L12.9803 1.51578C12.924 1.3642 12.7835 1.26316 12.615 1.26316L9.44016 1.23789ZM20.3414 5.68421C20.4819 5.68421 20.6224 5.58317 20.6224 5.43157V4.3958C20.6224 4.26947 20.51 4.14316 20.3414 4.14316H1.68571C1.54522 4.14316 1.40473 4.24422 1.40473 4.3958V5.43157C1.40473 5.5579 1.51718 5.68421 1.68571 5.68421H20.3414V5.68421ZM17.5038 21.7011C17.4475 22.3074 16.8856 22.7621 16.2395 22.7621H5.8158C5.14154 22.7621 4.60778 22.3074 4.55155 21.7011L3.34338 6.94737H18.6838L17.5038 21.7011V21.7011Z" fill="#40D6C6"/>
</svg>
