<svg width="43" height="43" viewBox="0 0 43 43" fill="none" xmlns="http://www.w3.org/2000/svg">
<path id="Vector" d="M21.5 0C9.6375 0 0 9.63839 0 21.5C0 33.3625 9.63839 43 21.5 43C33.3616 43 43 33.3616 43 21.5C43 9.6375 33.3616 0 21.5 0ZM21.5 1.99982C32.2812 1.99982 41 10.7184 41 21.4998C41 32.2812 32.2814 40.9998 21.5 40.9998C10.7186 40.9998 2 32.2812 2 21.4998C2 10.7184 10.7186 1.99982 21.5 1.99982ZM14.0157 10.9837C13.7451 10.9792 13.4842 11.0849 13.2927 11.2764C13.1016 11.4678 12.9959 11.7287 13.0001 11.9994V30.9994V30.999C12.997 31.3579 13.1863 31.691 13.496 31.872C13.8061 32.0527 14.1891 32.0537 14.5002 31.8741L31.5002 22.3741C31.8608 22.1715 32.0596 21.7679 32.0003 21.3585C31.9574 21.0491 31.7722 20.7774 31.5002 20.6239L14.5002 11.1239C14.3533 11.0364 14.1866 10.9879 14.0157 10.9834L14.0157 10.9837ZM14.9999 13.7024L28.9535 21.4992L14.9999 29.296V13.7024Z" fill="black"/>
</svg>
