<svg width="184" height="64" viewBox="0 0 184 64" fill="none" xmlns="http://www.w3.org/2000/svg">
<g clip-path="url(#clip0_4553_28548)">
<path fill-rule="evenodd" clip-rule="evenodd" d="M144.577 0C144.741 0 144.889 0 145.053 0C145.283 0.565048 145.316 1.72838 144.659 1.79486C144.182 1.84472 144.018 1.41262 144.051 0.963905C144.117 0.498572 144.412 0.299143 144.577 0Z" fill="#0A2541"/>
<path fill-rule="evenodd" clip-rule="evenodd" d="M154.503 0C154.667 0 154.815 0 154.979 0C155.357 0.565048 155.226 1.79486 154.552 1.79486C154.272 1.79486 154.042 1.52895 153.993 1.26305C153.894 0.714619 154.322 0.349 154.503 0Z" fill="#0A2541"/>
<path fill-rule="evenodd" clip-rule="evenodd" d="M168.783 8.50875C168.471 7.74428 168.997 6.94656 169.293 6.24856C169.917 4.83594 170.492 3.60613 171.182 2.11041C171.544 1.34594 172.218 -0.615111 172.99 0.764271C173.023 1.96084 172.53 2.62561 172.037 3.55627C171.363 4.81932 170.722 5.88294 170.098 7.17923C169.851 7.69442 169.654 8.69156 168.783 8.50875Z" fill="#0A2541"/>
<path fill-rule="evenodd" clip-rule="evenodd" d="M59.4379 64.0002C59.29 64.0002 59.1421 64.0002 59.0107 64.0002C59.175 43.1266 58.797 21.9207 59.0107 1.04717C59.0107 0.831126 58.8792 0.365793 59.2736 0.299316C59.5694 0.448888 59.4379 0.864365 59.4379 1.08041C59.4379 22.0371 59.4379 43.11 59.4379 64.0002Z" fill="#0A2541"/>
<path fill-rule="evenodd" clip-rule="evenodd" d="M121.243 7.9772C120.733 7.41216 120.914 6.43163 121.193 5.83335C121.456 5.28492 122.902 3.8723 121.588 3.65625C120.076 3.40696 119.501 5.84997 118.909 6.79725C119.073 7.56173 117.939 8.55887 117.792 7.54511C117.726 7.16287 117.94 6.6643 118.055 6.2322C118.235 5.48435 118.4 4.52044 118.613 3.73934C118.81 3.00811 118.991 2.32672 119.731 2.7422C119.879 2.92501 119.616 3.0912 119.731 3.25739C120.766 3.14106 121.653 2.02758 122.837 2.8253C123.198 3.07458 123.592 3.70611 123.395 4.52044C123.264 5.06887 122.771 5.58406 122.442 6.18235C122.13 6.76401 122.081 8.1434 121.243 7.9772Z" fill="#0A2541"/>
<path fill-rule="evenodd" clip-rule="evenodd" d="M117.282 4.13789C117.052 4.52013 116.691 4.98546 116.411 5.53389C116.148 6.0657 116.017 6.69722 115.803 7.14594C115.639 7.51156 115.327 7.91041 114.719 7.84394C114.62 7.69437 114.752 7.27889 114.538 7.22903C114.029 7.34537 113.881 7.79408 113.503 7.92703C112.352 8.35913 111.071 7.4617 110.923 6.61413C110.709 5.48403 111.547 4.35394 112.122 3.77227C112.878 3.02441 114.127 2.72527 115.277 2.77513C115.59 2.79174 115.869 2.94132 116.181 2.90808C116.543 2.85822 116.937 2.32641 117.348 2.82498C117.677 3.20722 117.364 3.70579 117.282 4.13789ZM114.439 3.75565C113.716 3.85536 112.303 5.10179 112.106 5.84965C111.81 7.01299 112.96 6.69722 113.667 6.4147C114.587 6.03246 115.508 5.53389 115.393 4.27084C115.113 3.93846 115.015 3.67255 114.439 3.75565Z" fill="#0A2541"/>
<path fill-rule="evenodd" clip-rule="evenodd" d="M131.087 3.00767C132.467 2.80825 133.634 3.52286 133.979 4.48677C134.899 7.14582 131.53 9.2232 129.493 7.89368C129.033 7.59453 128.72 6.97963 128.671 6.28163C128.573 4.63634 129.509 3.22372 131.087 3.00767ZM129.953 6.41458C130.117 7.42834 131.629 7.14582 132.188 6.68049C132.516 6.41458 133.009 5.68334 132.878 4.93548C132.779 4.38706 132.204 4.05467 131.547 4.18763C130.775 4.35382 129.772 5.28448 129.953 6.41458Z" fill="#0A2541"/>
<path fill-rule="evenodd" clip-rule="evenodd" d="M138.627 3.27403C140.237 3.17431 141.569 3.80584 141.306 5.31817C140.254 5.80012 140.073 4.55369 139.021 4.70327C138.167 4.8196 137.641 6.14912 137.164 6.93022C136.869 7.41217 136.524 8.55889 135.833 8.37608C135.439 8.27636 135.39 7.31246 135.538 6.68093C135.636 6.26546 135.998 5.56746 136.277 4.88608C136.556 4.20469 136.869 3.19093 137.263 3.09122C137.888 2.92503 137.674 3.73936 138.134 3.73936C138.446 3.75598 138.265 3.47346 138.627 3.27403Z" fill="#0A2541"/>
<path fill-rule="evenodd" clip-rule="evenodd" d="M158.693 4.32062C157.346 4.27076 156.869 5.351 156.327 6.46448C155.965 7.21233 155.653 9.43929 154.766 8.29257C154.881 7.07938 155.291 5.7 155.637 4.37047C155.768 3.83866 155.883 2.95785 156.672 3.37333C156.836 3.50628 156.639 3.75557 156.754 3.93838C157.707 3.72233 158.496 2.94124 159.515 3.32347C159.975 3.48966 160.55 4.13781 160.419 5.06848C160.32 5.76648 159.548 6.46448 159.203 7.21233C158.956 7.74414 158.972 8.70805 158.43 8.69143C157.658 8.65819 157.921 6.99629 158.167 6.46448C158.479 5.78309 159.712 4.88567 158.693 4.32062Z" fill="#0A2541"/>
<path fill-rule="evenodd" clip-rule="evenodd" d="M143.509 3.4902C143.87 3.7561 144.133 4.40425 143.903 5.10225C143.772 5.46787 143.394 5.96644 143.032 6.54811C142.687 7.14639 142.49 7.6782 142.21 8.0272C141.997 8.30973 141.635 8.55901 141.389 8.50915C140.534 8.32634 141.668 6.14925 141.783 5.89996C142.21 4.9693 142.391 4.12172 142.983 3.50682C143.18 3.42372 143.262 3.50682 143.509 3.4902Z" fill="#0A2541"/>
<path fill-rule="evenodd" clip-rule="evenodd" d="M153.072 3.48985C153.351 3.42338 153.877 3.75576 153.943 4.32081C154.041 5.23485 153.4 5.883 152.907 6.71395C152.562 7.29562 152.003 8.69162 151.313 8.50881C151.215 8.47557 151.034 8.27614 151.017 8.10995C150.935 7.61138 151.395 6.46466 151.708 5.75005C151.872 5.38443 152.102 5.05205 152.217 4.7529C152.414 4.27095 152.579 3.58957 153.072 3.48985Z" fill="#0A2541"/>
<path fill-rule="evenodd" clip-rule="evenodd" d="M165.628 8.64185C165.382 8.60861 165.628 8.06019 165.365 8.02695C164.807 8.22638 164.56 8.72495 163.903 8.80804C162.851 8.941 162.112 8.22638 161.75 7.4619C161.734 4.71976 164.084 3.14094 167.009 3.70599C167.321 3.50656 167.814 3.29052 168.126 3.57304C168.833 4.20456 167.436 5.91633 167.222 6.31519C166.696 7.36219 166.647 8.65847 165.628 8.64185ZM163.426 5.75014C163.081 6.11576 162.572 7.07966 163.13 7.41204C163.755 7.77766 165.464 6.86361 165.891 6.28195C166.401 5.58395 166.302 4.43723 165.332 4.53695C164.741 4.60342 163.87 5.2848 163.426 5.75014Z" fill="#0A2541"/>
<path fill-rule="evenodd" clip-rule="evenodd" d="M149.195 3.92187C149.441 3.83878 149.474 3.48977 149.754 3.48977C150.526 3.45654 150.312 5.03535 150.181 5.74997C149.902 7.2623 149.228 9.22335 148.193 10.287C147.782 10.7025 146.73 11.5666 146.122 11.7661C145.235 12.0652 144.347 11.6996 143.624 11.1179C143.443 10.6027 143.756 9.93797 144.232 9.90473C144.627 9.8715 144.906 10.3701 145.317 10.4199C146.023 10.5363 146.615 10.0543 147.042 9.72193C147.371 9.45602 147.683 9.15688 147.815 8.75802C147.585 8.40902 147.157 8.6583 146.829 8.67492C144.462 8.70816 144.397 5.78321 145.662 4.32073C146.467 3.37344 148.143 3.27373 149.195 3.92187ZM146.221 6.19868C145.925 7.24568 146.664 7.72764 147.437 7.46173C147.716 7.36202 148.078 7.02964 148.34 6.63078C148.521 6.34825 148.932 5.84968 148.817 5.31787C148.735 4.95225 148.209 4.7362 147.913 4.75282C147.207 4.80268 146.401 5.56716 146.221 6.19868Z" fill="#0A2541"/>
<path fill-rule="evenodd" clip-rule="evenodd" d="M86.5202 29.0995C86.2409 29.9471 86.1423 30.8113 85.9615 31.6755C84.6962 37.5254 82.8885 43.1426 82.0833 49.4745C81.4424 49.6906 80.7522 50.0229 80.0128 50.3055C79.1089 50.6545 77.8272 50.9536 77.0384 50.3553C76.7755 50.1559 76.3646 49.6075 76.3482 49.3083C76.3318 49.0424 76.6769 48.4607 76.8248 48.0785C79.224 42.1455 82.1162 36.2125 83.4308 29.3654C82.0012 28.8004 80.1278 28.7672 78.4681 28.4514C76.8905 28.1523 75.3294 27.5041 74.672 26.4072C74.442 26.0084 74.2284 25.1774 74.5077 24.5792C75.2801 24.6622 75.9702 25.0445 76.6604 25.327C78.7146 26.1247 80.9166 26.7396 83.4308 27.1551C84.0388 25.0611 83.9238 22.5682 83.8252 20.225C83.7102 17.9315 83.4801 15.4387 83.5294 12.9791C85.0577 12.5137 87.194 11.3338 88.9194 12.2811C88.6236 17.6656 87.3419 22.0531 86.6353 27.0222C88.8044 27.0886 90.8585 26.6399 92.6662 26.0583C94.4902 25.4766 96.1499 24.7287 97.6289 23.8313C100.57 22.0364 103.068 19.6101 104.449 16.2862C104.695 14.9567 105.287 13.3447 104.794 11.8822C104.596 11.3005 104.054 10.5693 103.578 10.187C102.132 8.99048 100.077 8.44205 97.8918 8.35895C96.7744 8.30909 95.5748 8.42543 94.3916 8.52514C91.2529 8.82429 88.525 9.42257 86.0601 10.4031C81.5082 12.1813 78.0079 15.2891 75.3129 18.9287C74.9021 18.5963 74.7213 18.1642 74.6227 17.7155C74.5241 17.2003 74.6227 16.5023 74.7871 16.0203C75.2965 14.5246 76.7426 13.3613 77.9422 12.3974C81.5739 9.45581 86.6845 7.41167 92.699 6.94633C94.2108 6.83 95.3119 6.73028 96.8894 6.81338C99.0257 6.92971 101.113 7.41167 103.101 7.99333C104.991 8.54176 106.881 9.273 107.932 10.5194C109.494 12.3641 109.05 16.6519 107.932 18.6794C107.061 20.2748 105.484 21.6376 103.972 22.7344C102.394 23.8645 100.751 24.8118 98.9764 25.6926C95.3447 27.5041 91.6802 29.3654 86.5202 29.0995Z" fill="#0A2541"/>
<path fill-rule="evenodd" clip-rule="evenodd" d="M0 33.853C0 33.4708 0 33.0885 0 32.7229C0.312227 32.3739 0.361525 31.9418 0.60802 31.5928C0.838082 31.2604 1.15031 30.9613 1.46253 30.6788C3.28659 29.0335 6.0309 28.0862 8.70948 27.3217C10.5007 26.8065 12.7356 26.7733 14.0995 25.6598C14.4282 25.3773 14.6418 25.0117 14.9211 24.7458C15.5292 24.1309 16.2686 23.732 17.1232 23.3996C17.4847 23.2501 18.1913 23.1337 18.4214 22.9177C18.7993 22.5687 18.6514 21.2225 18.5035 20.6907C18.3228 19.9927 17.8133 19.6105 17.6326 19.0787C17.4025 18.3807 17.8133 17.5663 17.7147 16.9348C17.649 16.4695 17.1889 16.403 16.9424 15.8047C16.7781 15.4225 16.7781 14.8907 16.6466 14.6746C16.3837 14.2591 15.6442 14.093 15.0526 14.0265C14.4774 13.96 14.2145 14.1428 13.6229 14.3256C12.6534 14.6248 10.9772 15.2064 10.3528 14.1096C10.7143 13.4282 11.9139 13.5445 12.637 13.3285C12.867 13.262 13.2285 13.129 13.245 12.8964C12.2754 12.6139 10.3035 13.1457 10.3199 11.9325C10.8458 11.5669 11.5031 11.7995 12.0782 11.8161C12.7356 11.8328 13.36 11.733 14.0173 11.6832C15.2334 11.5835 16.548 11.65 17.6819 11.2511C18.0927 11.1015 18.4378 10.819 18.8486 10.5531C19.6703 10.0213 20.6234 9.95481 21.6915 9.6889C22.3817 9.50609 23.1048 9.30666 23.8114 9.47285C24.4194 9.60581 25.3396 10.6528 25.619 11.1348C26.1449 12.0156 26.2763 13.1955 26.5721 14.2758C26.7364 14.9073 26.7857 15.4391 26.6543 16.0706C26.2763 17.8322 26.6707 19.6271 27.0815 21.3555C27.3609 22.4856 27.6238 23.6489 28.0675 24.4965C28.4455 25.1945 29.3657 25.8759 30.0066 26.3744C30.7461 26.9395 31.5513 27.4879 32.2908 27.9366C33.967 28.967 35.7417 29.6484 37.385 30.5624C39.094 31.5097 40.5566 32.5069 41.8219 33.7865C42.4464 34.4181 43.0544 35.1825 43.5967 35.8805C44.139 36.5785 45.2564 38.0743 44.7141 39.3705C44.139 40.7499 43.0544 38.7723 42.5614 38.2404C40.9181 36.5121 38.4696 35.6479 36.4812 34.4014C33.9505 32.806 31.7156 30.8283 29.5794 28.9005C29.4808 28.8174 29.2836 28.5515 29.1028 28.6845C30.6639 31.8089 32.2251 35.598 32.6852 39.9024C33.1617 44.323 31.6992 47.3311 29.7108 49.5913C29.4315 49.9236 29.0535 50.1895 28.8563 50.5884C30.0395 50.7878 31.1405 50.8709 32.2579 51.2033C32.7509 51.3363 33.2768 51.5357 33.8191 51.6354C34.3778 51.7517 35.0351 51.9512 35.5445 51.9346C36.169 51.9346 36.8263 51.5855 37.4015 51.4194C37.9766 51.2532 38.6011 50.8211 39.2584 51.2532C39.0776 51.785 38.5353 52.0675 37.878 52.3833C37.4507 52.5993 36.2511 52.7655 36.2347 53.2973C36.2183 53.6796 36.777 53.9455 37.2207 54.2114C37.5329 54.3942 38.2395 54.7099 38.1245 55.1254C37.878 56.0561 36.4319 54.7099 36.3169 54.6102C35.2159 53.6796 34.1149 53.4635 32.6523 52.9982C31.9128 52.7655 31.3048 52.3334 30.7625 52.2171C29.3822 51.9179 28.0675 52.5495 27.0158 52.8652C25.997 53.181 25.1096 53.8457 23.9593 53.9621C23.3184 54.0286 22.546 53.879 21.8394 53.7959C20.4426 53.5965 19.2759 53.1644 18.0434 53.0148C15.8743 52.7489 13.6887 53.4469 12.0125 53.8457C11.2895 54.0119 10.8293 54.1781 10.1227 54.0618C9.49826 53.9621 8.85737 53.6796 8.18362 53.6629C7.6249 53.6463 7.34554 53.9953 6.85255 53.7128C7.00045 53.2308 7.59203 52.9317 8.15075 52.7987C8.52871 52.7156 9.0217 52.8818 9.3175 52.6326C9.13673 52.3334 8.66018 52.2836 8.23292 52.1174C7.98642 52.0176 7.21408 51.8348 7.32911 51.4194C7.41127 51.1036 8.18362 51.2033 8.49585 51.2532C8.95597 51.3196 9.38323 51.4526 9.66259 51.5191C12.0782 52.0675 15.2991 51.8515 17.8133 51.7351C17.5668 51.303 17.0081 51.2199 16.6959 50.8709C14.0009 48.5276 11.7331 45.3368 11.7331 40.5339C11.7331 39.1379 11.8317 38.1075 12.1275 37.0937C12.4069 36.0966 12.8013 35.2989 13.2121 34.3516C13.9845 32.5567 14.6418 30.5957 14.7732 28.2856C14.3296 28.3853 14.0009 28.7676 13.6558 29.0335C11.0923 30.9114 7.44414 32.4238 3.69742 32.9556C3.28659 33.0054 2.90864 32.7562 2.53068 32.7894C1.26534 32.7395 1.05171 34.3516 0 33.853ZM25.7012 16.4861C25.619 15.7549 25.0439 14.8242 24.8467 13.8603C24.5673 12.564 24.6659 11.168 23.9428 10.5032C23.039 9.67228 21.1164 10.2539 20.6562 11.2511C21.0506 11.7497 21.6422 12.2316 21.6422 13.1623C21.6422 13.7606 21.4615 14.5749 20.952 14.8242C20.2454 15.1566 19.4402 14.9571 19.013 15.5222C18.75 15.8878 18.7993 16.403 18.7993 17.0013C18.7993 17.7491 18.7336 18.2477 19.2266 18.6964C20.8206 19.5108 23.8771 18.63 25.734 19.1784C25.734 18.4638 25.8162 17.4334 25.7012 16.4861ZM20.7548 13.478C20.952 12.9629 20.4591 12.4643 20.2783 12.0322C19.6867 12.348 19.1444 12.7302 18.4214 12.8964C18.3556 13.0626 18.2077 13.1457 18.257 13.4282C18.635 13.8437 20.4755 14.1594 20.7548 13.478ZM22.9076 20.1589C22.1681 20.1423 21.445 19.9761 20.8863 20.026C20.4262 20.0758 19.4566 20.5245 19.5881 21.2059C19.7196 21.8541 21.5765 21.7543 22.4803 21.638C23.8442 21.4552 24.7152 21.1394 25.8819 21.073C25.8655 20.7572 25.9477 20.3085 25.7998 20.1091C24.8795 20.1589 23.91 20.1755 22.9076 20.1589ZM25.8819 22.469C25.8491 22.469 25.7998 22.5022 25.7505 22.5188C24.7974 22.6518 23.8114 22.5687 22.3817 22.5687C21.5601 22.5687 19.4731 22.5354 19.4895 23.1836C19.5059 23.5492 20.0975 23.516 20.5248 23.7486C21.6751 24.3635 20.8041 25.5102 20.3112 26.3246C19.851 27.0724 19.5388 28.269 18.3721 27.7704C18.0105 27.3716 18.3885 26.9062 18.5035 26.3246C18.635 25.6266 18.6843 24.912 18.4214 24.4134C17.6983 25.4604 17.156 26.657 16.6137 27.9034C16.0879 29.0833 15.4141 30.4461 15.3155 31.9584C15.2991 32.2742 15.4141 32.6066 15.3977 32.9223C15.3648 34.3017 14.1817 35.5315 13.8037 36.9275C13.6229 37.6089 13.5408 38.4399 13.4586 39.2376C13.4093 39.8026 13.2943 40.6834 13.4093 41.0657C13.5408 41.4978 14.7404 42.2456 15.2169 42.2955C15.4141 42.3121 15.6113 42.229 15.825 42.2456C16.3179 42.2955 16.8931 42.5614 17.2546 42.8107C17.8298 43.2262 18.1091 43.8577 18.9308 43.8078C19.7196 43.758 20.0811 42.8273 20.7877 42.4617C20.9849 42.3454 21.3464 42.229 21.5601 42.1958C23.0719 41.9964 23.3513 42.8107 24.1893 43.2926C24.8302 43.6583 26.3749 43.9075 27.1637 43.5087C27.3773 43.409 27.6238 43.0434 27.8539 42.8107C28.1004 42.578 28.3469 42.362 28.5934 42.1625C28.9056 41.88 30.0066 41.1488 30.0559 40.8164C30.1052 40.4342 29.6944 39.6364 29.4972 39.1545C28.1497 35.9636 26.3749 33.5373 24.5344 30.8283C24.2551 30.4295 23.7292 29.7481 23.7128 29.4323C23.6963 29.1 24.0579 28.618 24.2386 28.3022C24.6823 27.5212 25.0767 26.9561 25.4382 26.2082C25.5861 25.9091 25.9641 25.3773 25.5697 24.9951C25.0767 24.9618 24.7481 25.4438 24.4851 25.7762C23.8771 26.5739 23.5485 27.2885 22.924 28.1361C22.6939 28.4518 22.2174 29.0667 21.8394 28.967C21.5108 28.8673 21.5436 28.4518 21.3629 28.1859C21.0999 27.7704 20.6727 27.6873 20.6727 27.1888C20.6727 26.524 21.445 25.8094 21.8723 25.2277C22.3324 24.5962 22.8747 23.9979 23.647 23.7819C24.4851 23.5492 25.4547 23.516 26.3585 23.4329C26.3749 23.0672 26.3092 22.5354 25.8819 22.469ZM13.5901 42.9603C13.738 44.0239 14.2145 45.2205 14.7568 46.1511C16.1536 48.5443 17.9448 50.1231 20.3605 51.3861C21.1657 51.8016 21.8723 52.4165 22.8583 52.5661C24.7152 52.832 25.3561 51.7517 26.2599 50.8211C28.1661 48.8933 29.8258 47.0485 30.1874 43.6583C29.6944 43.4588 29.3986 43.2926 28.8563 43.3924C28.2976 43.5087 28.0182 44.1236 27.4759 44.4892C26.5557 45.0875 25.0439 45.2371 24.0743 44.6554C23.5813 44.3729 23.2691 43.8411 22.6446 43.5585C21.0835 42.8605 20.8206 44.2565 19.8017 44.6886C19.3416 44.8881 18.5693 44.8881 18.1256 44.6388C17.5668 44.3396 17.4354 43.5585 16.7945 43.4256C15.4799 43.5253 14.5596 43.2428 13.738 42.8605C13.6722 42.8938 13.6229 42.927 13.5901 42.9603Z" fill="#0A2541"/>
<path fill-rule="evenodd" clip-rule="evenodd" d="M179.857 13.611C179.71 13.7938 179.332 13.827 179.036 13.7439C179.069 12.082 178.083 11.2178 176.538 11.4339C175.388 11.6001 174.993 12.7302 174.55 13.6608C174.27 13.6774 174.007 13.6608 173.859 13.5279C173.859 12.7135 174.204 11.8826 174.73 11.3508C175.634 10.4035 177.639 10.0212 178.74 10.9187C179.397 11.4339 180.005 12.4476 179.857 13.611Z" fill="#0A2541"/>
<path fill-rule="evenodd" clip-rule="evenodd" d="M177.624 13.9101C177.657 14.1593 177.937 14.1427 178.101 14.2591C178.298 14.7244 178.15 15.3559 177.674 15.3892C177.361 15.2894 177.493 14.7244 177.164 14.6413C176.918 14.6579 176.967 14.9737 176.901 15.1731C176.737 15.3227 176.375 15.3559 176.211 15.1731C176.228 14.2424 175.702 12.996 176.211 12.4642C177.164 12.3312 178.643 12.6969 178.019 13.7272C177.854 13.7605 177.69 13.7937 177.624 13.9101ZM176.852 13.7439C177.904 13.8934 176.721 12.647 176.852 13.7439V13.7439Z" fill="#0A2541"/>
<path fill-rule="evenodd" clip-rule="evenodd" d="M156.838 13.3454C158.218 13.0795 159.516 14.9409 158.958 16.2704C158.892 16.4034 158.645 16.7524 158.399 16.8354C156.147 17.6332 154.537 13.7775 156.838 13.3454Z" fill="#0A2541"/>
<path fill-rule="evenodd" clip-rule="evenodd" d="M174.912 14.2593C175.06 14.5252 174.945 14.8078 174.995 15.1401C175.208 16.586 177.18 17.0513 178.281 16.1373C179.004 15.539 178.971 14.8244 179.481 14.2593C179.694 14.3092 179.941 14.3092 180.04 14.4754C179.957 15.9877 178.955 17.3339 177.41 17.5665C176.983 17.633 176.589 17.5167 176.112 17.5665C174.912 17.0347 174.041 16.1539 173.992 14.4255C174.157 14.2095 174.6 14.1264 174.912 14.2593Z" fill="#0A2541"/>
<path fill-rule="evenodd" clip-rule="evenodd" d="M184 18.6302C184 18.8463 184 19.0623 184 19.2784C183.737 19.6606 183.687 20.0761 183.49 20.4583C182.899 21.5718 181.995 22.3529 181.157 23.2005C180.056 24.3306 178.873 25.4274 177.706 26.5243C176.588 27.5713 175.405 28.6349 173.91 29.4825C172.677 30.1805 170.393 31.3604 168.733 30.6126C166.86 29.765 166.614 26.5908 167.353 24.3306C167.863 22.7518 168.503 21.2394 169.243 19.9265C169.489 19.4778 169.818 18.8795 169.457 18.3643C168.75 18.4142 168.142 18.8629 167.649 19.2784C166.121 20.5913 165.085 22.5191 164.034 24.2475C162.9 26.0922 162.292 28.153 161.667 30.4464C161.47 31.1444 161.306 31.9089 160.895 32.5404C160.566 32.4241 160.336 32.3908 159.991 32.1083C159.794 31.9421 159.58 31.4269 159.35 31.4103C159.137 31.3937 158.627 32.0086 158.315 32.2412C157.28 33.039 155.801 33.8699 154.092 33.5874C153.089 33.4212 152.678 32.8894 152.103 32.1914C151.43 32.8229 150.739 33.7868 149.605 34.3352C147.864 35.1828 144.314 35.6481 143.821 33.5874C143.706 33.1221 143.936 32.3742 143.476 32.1914C143.098 32.1415 142.999 32.5404 142.868 32.7564C142.375 33.604 141.849 34.2355 141.143 34.8504C140.239 35.6315 138.267 36.396 136.788 35.7645C136.476 35.6315 136.114 35.1662 135.835 35.1994C135.654 35.2161 135.342 35.6648 135.194 35.8143C134.027 36.9777 132.597 37.4762 131.053 38.1244C130.609 38.3072 129.327 38.7559 129.196 39.0384C128.9 39.6533 128.768 40.3347 128.506 40.9496C127.7 42.811 126.714 44.3732 125.482 45.7858C123.773 47.7634 121.62 49.4752 118.449 49.1428C117.183 49.0099 115.885 48.5445 114.866 48.046C114.307 47.7801 113.864 47.4809 113.437 47.1319C113.042 46.7995 112.566 46.4838 112.533 45.6861C112.746 45.1044 113.93 45.5697 114.521 45.7359C116.263 46.2013 118.038 47.1319 120.092 46.9159C122.327 46.6832 123.74 45.2207 124.71 43.509C125.663 41.8138 126.09 39.6035 126.698 37.443C126.287 37.5593 126.09 38.0413 125.613 38.3238C125.005 38.6728 124.184 39.0717 123.411 39.188C121.998 39.4207 120.371 38.9055 119.747 38.0579C119.632 37.8917 119.632 37.576 119.352 37.4929C118.909 37.792 118.629 38.2407 118.235 38.5897C117.841 38.9221 117.38 39.2046 116.904 39.4539C115.984 39.9525 114.685 40.5009 113.404 40.4511C112.105 40.4178 111.103 39.7863 110.824 38.7891C110.281 36.878 110.742 34.651 111.382 32.906C111.859 31.6097 112.401 30.4131 112.976 29.283C113.174 28.9008 113.552 28.4687 113.321 28.02C112.976 27.8538 112.648 28.153 112.368 28.2859C109 30.0143 107.028 33.4544 105.762 37.227C105.286 38.6894 104.957 40.1685 104.431 41.5479C103.511 41.6975 102.936 40.8832 102.492 40.2849C100.767 41.2654 99.337 43.0104 96.9214 43.2098C94.1442 43.4425 91.9093 42.2958 90.9726 40.6339C90.3482 39.5204 90.1181 37.9416 90.3318 36.6287C90.5454 35.2327 91.137 34.086 91.6628 33.0888C92.238 32.0418 92.8953 31.1111 93.7827 30.3467C94.6208 29.6154 95.7382 28.8676 97.02 28.7346C99.4028 28.4853 100.931 29.4492 101.638 30.9616C102.279 32.341 101.917 33.5874 101.293 34.6676C100.257 36.4625 98.2689 38.1078 95.3767 37.7588C94.7522 37.6923 94.1935 37.3433 93.5691 37.2768C93.1254 39.537 93.8977 41.6975 95.5081 41.9966C98.0881 42.462 100.027 40.8333 101.325 39.3376C101.72 38.8889 102.443 38.1078 102.624 37.6757C102.706 37.4762 102.739 37.1605 102.788 36.9278C103.248 35.0831 103.774 33.4877 104.464 31.9089C104.99 30.7123 105.565 29.2 106.272 28.02C106.469 27.6876 106.929 27.0229 107.176 27.0229C107.652 27.0062 108.063 27.8039 108.211 28.236C108.441 28.8676 108.49 29.6154 108.507 30.1971C108.786 30.1306 108.934 29.8149 109.065 29.632C109.591 28.9507 110.068 28.3524 110.709 27.804C111.382 27.2223 112.533 26.3581 113.864 26.3581C114.702 26.3581 115.507 26.973 115.852 27.4051C116.707 28.502 116.115 30.0143 115.556 31.2441C114.751 33.0057 113.831 34.1857 113.437 36.2631C113.239 37.2934 113.437 38.7393 114.045 39.0551C114.307 39.188 114.866 39.1714 115.293 39.0551C116.23 38.8058 116.937 38.0413 117.495 37.1771C117.988 36.4292 118.744 35.3822 118.958 34.5181C119.139 33.8201 119.188 33.1221 119.385 32.5071C119.582 31.9255 119.895 31.377 120.207 30.8452C121.39 28.7845 122.902 27.0229 124.907 25.7432C126.188 24.9289 128.801 24.2973 129.919 25.577C130.182 25.8761 130.247 26.3249 130.56 26.6739C131.118 26.2251 131.25 24.5799 132.154 24.53C132.663 24.5134 133.057 25.0618 133.189 25.4939C133.501 26.5409 133.271 27.9203 133.025 28.934C132.269 31.9421 130.149 34.4017 129.837 37.3101C130.938 36.9943 131.759 36.3461 132.68 35.698C133.057 35.4321 133.485 35.0997 133.928 34.7009C134.175 34.4848 134.914 33.7868 134.964 33.4711C135.029 33.0888 134.799 32.6235 134.832 32.2579C135.013 30.0641 135.802 28.4853 136.64 26.5077C136.969 25.7432 137.33 24.8125 137.724 23.7988C138.02 23.001 138.546 21.8543 139.45 21.7546C141.603 21.4887 140.748 24.8624 140.304 26.0257C139.614 27.8704 138.595 29.3828 138.07 31.2607C137.807 32.1914 137.544 33.388 138.02 34.4516C138.3 34.651 138.727 34.784 139.105 34.7507C140.534 34.6842 141.52 33.3049 142.211 32.1748C144.1 29.067 145.218 25.8097 146.615 22.2698C146.878 21.5884 147.206 20.6411 147.781 20.5747C148.702 20.4583 149.178 21.3558 149.293 21.8377C149.556 22.8847 149.277 23.9483 148.948 24.9289C148.357 26.6905 147.338 28.369 146.746 30.0309C146.5 30.7123 145.957 32.1415 146.187 33.039C146.483 34.1524 148.11 33.9862 148.997 33.4711C150.016 32.8728 151.298 30.945 151.627 29.7151C151.742 29.2664 151.808 28.718 151.923 28.236C152.465 25.9426 153.171 23.9816 154.042 21.8709C154.404 21.0068 154.765 19.8767 155.242 19.644C157.033 18.7632 156.852 22.2033 156.622 23.3999C156.064 26.275 153.845 29.1501 154.979 32.2911C157.378 32.3243 158.43 30.33 159.202 28.7512C159.416 28.3191 159.498 27.6378 159.63 27.0893C160.386 24.0647 161.536 21.5718 162.686 18.8961C162.867 18.464 163.13 17.7827 163.458 17.766C163.919 17.7328 164.461 18.4142 164.625 18.813C164.872 19.4113 164.855 20.1093 164.97 20.6411C165.381 20.3254 165.545 19.8268 165.841 19.4612C166.449 18.6967 167.172 18.0486 167.961 17.5001C168.323 17.2508 168.701 16.9018 169.21 16.6692C170.952 15.8715 172.349 17.3173 172.497 18.7133C172.694 20.7242 171.741 22.2033 170.903 23.7323C170.196 25.0119 169.374 27.538 170.475 28.8343C171.396 29.9312 172.628 29.067 173.499 28.4022C174.107 27.9369 174.567 27.455 175.011 27.0062C175.98 25.9925 176.95 24.9122 177.821 23.9483C179.382 22.2199 180.795 20.1426 182.307 18.2314C182.8 17.6165 183.079 17.201 183.638 17.9322C183.786 18.1815 183.77 18.5139 184 18.6302ZM128.358 26.5741C127.454 26.84 126.681 27.4383 126.024 27.9701C125.318 28.5518 124.792 29.0836 124.167 29.8481C123.181 31.0613 121.998 33.0223 121.834 35.0332C121.735 36.2132 121.85 37.0441 122.31 37.6092C123.099 38.5565 124.595 37.792 125.203 37.2602C126.221 36.3794 126.912 34.5513 127.667 33.0722C128.374 31.6928 129.13 30.7123 129.393 29.2332C129.607 28.0532 129.311 26.6074 128.522 26.5243C128.473 26.5243 128.456 26.5741 128.44 26.5741C128.423 26.5741 128.391 26.5575 128.358 26.5741ZM95.7546 31.5765C94.7194 32.6235 94.0456 34.4516 93.8155 35.9307C94.4071 36.2631 95.3602 36.3794 95.9683 36.1966C98.0059 35.5817 100.405 33.255 99.1563 30.5627C97.743 30.1805 96.4941 30.8452 95.7546 31.5765Z" fill="#0A2541"/>
<path fill-rule="evenodd" clip-rule="evenodd" d="M21.5276 41.0491C21.314 41.1488 20.9196 41.099 20.7553 40.9993C20.5088 40.7334 20.6074 40.5007 20.4924 40.2182C20.3116 39.7528 19.7529 39.5368 19.6214 39.1213C19.4407 38.5563 19.5228 37.6921 19.6214 37.1603C19.6707 36.8611 19.9172 36.5952 19.9172 36.2794C19.9172 35.8141 19.5393 35.2657 19.3092 34.8004C18.997 34.119 18.6354 33.7035 18.7012 32.7562C18.7669 31.892 19.0298 30.5126 19.2599 29.6651C19.3092 29.449 19.5064 29.1333 19.5557 29.0502C19.9172 28.7676 20.3445 29.6318 20.6403 30.0972C21.0347 30.7287 21.4455 31.3602 21.3304 32.1912C21.2811 32.6066 20.7224 33.1384 20.6403 33.5872C20.3773 34.9832 21.692 36.0966 21.4948 37.2932C21.4455 37.609 21.0347 37.9746 21.0182 38.2073C20.9854 38.5729 21.3304 39.1047 21.4455 39.5534C21.6098 40.0852 21.7577 40.5672 21.5276 41.0491Z" fill="#0A2541"/>
<path fill-rule="evenodd" clip-rule="evenodd" d="M138.678 44.14C140.371 43.9738 143.674 44.2065 142.211 45.8352C142.392 46.1343 142.671 46.1343 142.721 46.4833C142.934 48.0123 139.927 47.5802 138.579 47.5802C138.415 46.6495 138.481 45.2535 138.53 44.2563C138.563 44.2065 138.612 44.1732 138.678 44.14ZM139.45 44.9377C139.434 45.1039 139.45 45.2535 139.5 45.3698C140.075 45.4862 141.389 45.6357 141.57 45.0707C141.209 44.7051 139.993 44.8214 139.45 44.9377ZM139.5 46.234C139.418 46.3503 139.434 46.7326 139.5 46.8489C140.223 47.0151 141.472 47.0151 141.702 46.4168C141.324 46.0346 140.091 46.1011 139.5 46.234Z" fill="#0A2541"/>
<path fill-rule="evenodd" clip-rule="evenodd" d="M145.531 45.4535C146.337 45.038 146.616 43.8414 148.029 44.1904C147.931 44.7222 147.421 44.9881 147.076 45.2873C146.715 45.603 146.37 45.9188 146.041 46.2512C146.008 46.6833 146.123 47.2649 145.959 47.5641C145.762 47.7137 145.269 47.6638 145.055 47.5641C145.334 46.1515 144.628 45.9022 143.97 45.3371C143.56 44.9715 143.198 44.689 142.984 44.2901C143.149 44.0575 143.675 44.1904 144.02 44.1572C144.562 44.5394 144.973 45.0712 145.531 45.4535Z" fill="#0A2541"/>
<path fill-rule="evenodd" clip-rule="evenodd" d="M95.3279 60.8924C95.1471 60.0947 95.4922 59.995 95.7223 59.5463C95.9194 59.164 96.1659 58.7319 96.3303 58.2334C96.889 56.5548 97.004 53.5468 96.4946 51.5525C96.4124 51.2367 96.2645 50.921 96.1002 50.5055C95.9194 50.0235 95.8209 49.3255 96.7411 49.4086C97.1848 49.4419 97.5299 49.6746 97.8257 49.8075C99.1074 50.3892 100.866 50.8545 102.953 50.7216C104.267 50.6385 105.96 50.1565 107.045 49.7244C108.195 49.2591 108.524 49.8574 107.998 50.7714C107.718 51.2534 107.439 51.486 107.258 51.9514C106.913 52.882 106.782 54.3279 106.699 55.6574C106.584 57.3359 106.913 58.5159 107.34 59.6626C107.472 60.0116 107.718 60.6764 107.423 61.0087C106.913 61.5904 105.221 60.5268 104.711 60.3606C102.082 59.513 99.1075 60.1279 96.774 60.7927C96.3467 60.9256 95.8208 61.2082 95.3279 60.8924ZM103.988 51.9514C103.051 52.882 102.295 53.9955 101.309 54.8763C100.701 53.9789 100.159 53.015 99.584 52.0843C99.1403 51.968 98.598 51.9015 98.2858 52.1674C98.2694 52.6327 98.7295 52.9153 98.7952 53.3972C98.8445 53.8127 98.6802 54.2946 98.6309 54.7434C98.5159 55.7737 98.4501 56.9205 98.3351 57.8844C98.1215 58.0838 97.6449 58.0339 97.5627 58.3663C97.8914 58.7818 99.0746 58.5491 99.5511 58.6655C99.6004 58.1835 99.0253 58.1503 98.9431 57.6683C98.8938 57.4024 99.0088 57.0534 99.0253 56.7543C99.0746 55.7571 99.1074 54.5772 99.2882 53.7462C100.077 54.5938 100.554 55.7571 101.277 56.6712C101.934 56.0895 102.509 55.2752 103.051 54.627C103.232 54.411 103.396 54.0786 103.692 54.062C103.659 55.3915 103.561 56.6546 103.479 57.9508C103.249 58.2001 102.756 58.1669 102.624 58.5159C102.92 58.6655 103.462 58.599 103.922 58.599C104.399 58.599 104.925 58.6987 105.171 58.466C105.122 58.2001 104.662 58.25 104.53 57.9508C104.465 57.7846 104.547 57.4855 104.58 57.1697C104.645 56.3222 104.662 54.6436 104.711 53.5966C104.711 53.3806 104.662 53.1978 104.711 53.0316C104.81 52.6992 105.336 52.4499 105.27 52.0677C104.974 51.8184 104.465 52.0178 103.988 51.9514Z" fill="#0A2541"/>
<path fill-rule="evenodd" clip-rule="evenodd" d="M124.742 51.3034C125.941 51.0209 125.908 52.7327 125.005 52.7825C124.166 52.8324 123.805 51.5195 124.742 51.3034Z" fill="#0A2541"/>
<path fill-rule="evenodd" clip-rule="evenodd" d="M135.736 53.6958C136.262 54.3273 136.624 54.9921 136.509 55.7898C136.426 56.4546 135.868 56.9531 135.178 57.0528C134.701 57.1193 133.748 57.1027 133.879 57.7508C133.961 58.1331 134.931 57.9835 135.44 58.05C136.328 58.1996 136.656 58.4655 137.084 58.964C138.448 61.8391 132.713 62.5039 132.68 60.011C132.68 59.3961 133.074 59.0139 133.37 58.615C132.795 58.0168 133.173 57.2855 133.715 57.003C132.318 56.2219 132.598 54.2276 133.715 53.6958C134.126 53.4964 134.569 53.38 134.964 53.1307C135.457 52.7984 135.802 52.5158 136.163 52.2998C136.41 52.1502 136.607 52.7153 136.558 52.9147C136.459 53.3136 135.818 53.1972 135.736 53.6958ZM134.323 55.9227C134.997 56.3382 135.457 55.1084 135.062 54.5766C134.241 54.0448 133.83 55.6236 134.323 55.9227ZM133.321 59.9279C133.255 61.058 135.703 61.1245 135.654 60.011C135.621 59.3961 134.832 59.3297 134.274 59.3629C133.633 59.4128 133.353 59.5457 133.321 59.9279Z" fill="#0A2541"/>
<path fill-rule="evenodd" clip-rule="evenodd" d="M157 58.1002C156.277 58.1667 155.258 58.1667 154.535 58.1002C154.502 57.6847 154.962 57.8177 155.094 57.4521C155.225 57.1197 155.094 56.3884 155.094 55.84C155.094 55.2417 155.143 54.6601 155.044 54.2612C154.995 54.095 154.65 54.228 154.535 54.1283C154.387 53.2474 155.504 53.2807 156.26 53.1643C156.408 53.2474 156.359 53.5632 156.425 53.7294C157 53.5798 157.279 52.9483 157.986 53.0813C158.462 53.1643 159.054 53.8125 159.07 54.2612C159.087 54.6767 158.758 55.2251 158.298 55.2251C157.756 55.2251 157.345 54.0285 156.737 54.4773C156.474 54.6767 156.425 56.887 156.572 57.4355C156.638 57.7346 156.983 57.7845 157 58.1002Z" fill="#0A2541"/>
<path fill-rule="evenodd" clip-rule="evenodd" d="M114.867 53.2643C114.982 53.3474 114.932 53.6133 114.998 53.7463C115.245 53.7629 115.327 53.5303 115.557 53.4472C116.181 53.2145 116.888 53.4638 117.364 53.7131C118.186 54.3446 117.677 56.3056 117.874 57.5521C117.94 57.8346 118.367 57.7515 118.433 58.034C118.252 58.3332 117.677 58.2002 117.233 58.2002C116.756 58.2002 116.263 58.2667 115.984 58.1171C116.001 57.7681 116.313 57.818 116.411 57.5521C116.674 56.9039 116.51 54.9761 115.984 54.8432C114.916 54.5939 115.195 56.3721 115.162 57.336C115.146 57.6684 115.639 57.8512 115.59 58.1171C114.85 58.3498 113.914 58.1171 113.01 58.167C112.287 58.2002 111.301 58.4994 110.988 58.0008C110.726 58.1171 110.594 58.2999 110.348 58.3498C108.178 58.7653 108.441 56.4718 108.408 54.5939C108.343 54.4443 108.031 54.544 107.899 54.4609C107.866 54.2116 107.8 53.846 107.85 53.63C108.293 53.4139 109.214 53.4804 109.707 53.4638C109.97 54.4443 109.312 56.6048 110.315 56.6546C111.153 56.6879 111.12 55.6243 111.087 54.6936C111.038 54.4775 110.693 54.5773 110.561 54.4277C110.495 54.195 110.479 53.7131 110.61 53.5469C111.12 53.497 111.843 53.4305 112.287 53.4638C112.369 53.9956 112.336 54.7767 112.336 55.5578C112.336 56.3056 112.204 57.2031 112.385 57.6019C112.5 57.8678 112.796 57.8678 112.944 58.034C113.174 57.8678 113.519 57.8013 113.683 57.5521C113.651 56.4884 113.733 55.3085 113.634 54.328C113.585 54.1119 113.174 54.2781 113.075 54.1119C113.059 53.2311 114.111 53.2145 114.867 53.2643Z" fill="#0A2541"/>
<path fill-rule="evenodd" clip-rule="evenodd" d="M122.277 53.9122C122.244 54.2944 122.375 54.8429 122.145 55.0423C121.537 55.2417 121.603 54.4938 121.242 54.3941C120.864 54.2944 120.518 54.5105 120.502 54.793C120.486 55.4578 122.014 55.491 122.277 56.1391C122.441 56.4217 122.54 56.7374 122.49 57.236C122.277 58.5323 119.976 58.6818 119.039 57.934C119.023 57.5351 118.859 56.9036 119.039 56.5878C119.697 56.2388 119.697 57.585 120.42 57.6348C120.699 57.6515 121.11 57.5019 121.11 57.103C121.11 56.4383 119.286 56.2555 118.99 55.2749C118.464 53.397 121.11 52.915 122.277 53.9122Z" fill="#0A2541"/>
<path fill-rule="evenodd" clip-rule="evenodd" d="M154.076 58.1006C153.648 58.2003 152.531 58.3332 152.301 57.9676C151.15 58.6988 148.948 58.2667 149.491 56.4387C149.524 56.3223 149.655 56.1229 149.704 56.0398C150.23 55.3252 151.43 55.4083 151.857 54.6937C151.726 54.1618 150.789 54.4278 150.263 54.2948C149.655 53.281 151.561 53.3143 152.383 53.4638C152.597 53.4971 153.007 53.63 153.155 53.7297C154.108 54.3114 153.435 56.5882 153.632 57.4358C153.681 57.6518 153.993 57.8679 154.076 58.1006ZM150.657 56.7877C150.707 57.5189 151.956 57.3693 152.383 57.0037C152.514 56.6381 152.399 56.1894 152.219 56.0066C151.446 55.7074 150.625 56.1894 150.657 56.7877Z" fill="#0A2541"/>
<path fill-rule="evenodd" clip-rule="evenodd" d="M128.67 53.48C128.818 53.5631 128.687 53.9287 128.851 53.9952C129.968 53.2307 131.677 53.5797 131.825 55.1253C131.891 55.79 131.612 57.0697 131.825 57.7345C131.907 58.0004 132.4 58.017 132.433 58.2995C131.76 58.4491 130.511 58.4491 129.853 58.2995C129.886 57.9838 130.231 57.9838 130.33 57.7345C130.231 56.7539 130.675 54.9258 129.64 55.0256C129.295 55.0588 129.097 55.3247 129.032 55.7734C128.966 56.3219 128.982 57.5683 129.081 57.7843C129.18 58.017 129.475 57.9838 129.475 58.2995C128.785 58.4491 127.536 58.4491 126.846 58.2995C126.83 57.9339 127.323 58.0835 127.405 57.8176C127.503 56.837 127.421 55.6571 127.454 54.5935C127.405 54.3276 126.945 54.4938 126.846 54.2943C126.863 53.4467 127.783 53.4966 128.67 53.48Z" fill="#0A2541"/>
<path fill-rule="evenodd" clip-rule="evenodd" d="M125.597 53.6961C125.794 55.0256 125.252 56.7374 125.729 57.7013C125.877 57.9838 126.172 58.017 126.205 58.3494C125.893 58.5655 125.416 58.4824 124.825 58.4824C124.381 58.4824 123.609 58.5821 123.527 58.2663C123.461 57.9838 124.036 57.7844 124.217 57.3523C124.365 57.0199 124.496 55.491 124.348 55.0422C124.217 54.6766 123.543 54.5104 123.527 54.2113C123.494 53.5133 125.137 53.6462 125.597 53.6961Z" fill="#0A2541"/>
<path fill-rule="evenodd" clip-rule="evenodd" d="M148.243 57.5354C148.44 58.466 147.059 58.6655 146.254 58.6322C145.597 58.599 144.808 58.2998 144.529 57.7514C143.97 56.6878 144.348 54.3113 145.219 53.9124C145.991 53.5634 147.7 53.6631 148.111 54.3113C148.308 54.627 148.588 56.1228 148.276 56.4551C147.898 56.8374 145.811 56.1892 145.646 56.8872C145.515 57.4689 146.221 57.7016 146.632 57.7182C147.142 57.7182 147.75 57.2695 148.243 57.5354ZM145.663 55.3583C145.712 55.9067 147.043 55.9566 147.043 55.2752C147.043 54.8929 146.649 54.7101 146.139 54.8431C145.843 54.9096 145.63 55.0259 145.663 55.3583Z" fill="#0A2541"/>
<path fill-rule="evenodd" clip-rule="evenodd" d="M139.055 53.8787C139.121 54.1113 138.858 54.1944 138.841 54.4105C138.809 54.6598 138.973 54.7761 139.055 55.0254C139.186 55.391 139.186 56.0059 139.532 56.0724C139.778 55.5904 139.942 55.0254 140.172 54.5434C140.156 54.2277 139.811 54.2443 139.778 53.9285C140.238 53.7291 141.109 53.7457 141.586 53.9285C141.619 54.2609 141.273 54.1944 141.241 54.4437C141.504 54.9922 141.602 55.6735 142.013 56.0558C142.144 55.6569 142.736 54.9257 142.654 54.4437C142.605 54.1612 142.309 54.1944 142.358 53.9285C142.9 53.7291 143.788 53.7291 144.264 53.9285C144.281 54.2942 143.886 54.2443 143.755 54.4437C143.459 55.2414 143.065 56.3549 142.769 57.2357C142.605 57.7011 142.407 58.6483 141.996 58.6816C141.306 58.7314 141.241 56.9532 140.698 56.8036C140.123 56.9366 139.992 58.7979 139.367 58.7647C139.104 58.7481 138.874 58.0999 138.759 57.8008C138.431 56.9532 138.233 56.3549 137.938 55.5406C137.79 55.1417 137.658 54.6764 137.51 54.4437C137.33 54.1944 137.083 54.2443 136.984 54.0116C136.968 53.8953 137.001 53.8288 137.116 53.8454C137.675 53.8122 138.496 53.6959 139.055 53.8787Z" fill="#0A2541"/>
<path fill-rule="evenodd" clip-rule="evenodd" d="M131.512 61.5567C131.365 61.6232 131.102 61.6232 130.954 61.5567C130.888 60.6261 129.968 60.2438 128.965 60.2438C128.587 60.2438 128.078 60.2771 127.848 60.543C128.324 60.8089 129.442 60.4765 130.001 60.759C130.28 60.9751 130.264 61.5567 129.951 61.7229C130.181 61.9556 130.379 62.2215 130.379 62.6868C130.839 62.6868 130.904 62.288 130.987 61.9057C131.102 61.8226 131.381 61.8559 131.496 61.9057C131.825 64.1659 126.418 64.3155 126.714 61.9888C126.928 62.0221 127.059 61.939 127.191 61.9888C127.355 62.1218 127.273 62.5207 127.486 62.6037C127.733 62.2215 127.601 61.241 127.569 60.7258C127.207 60.7424 127.24 61.3075 127.223 61.5567C127.043 61.6232 126.928 61.6897 126.698 61.6066C126.27 58.8811 131.743 59.014 131.512 61.5567ZM129.606 61.3739C129.705 60.9086 128.604 61.108 128.275 61.2077C128.242 61.8226 129.557 61.6398 129.606 61.3739ZM128.226 62.637C128.144 62.7533 127.766 62.5705 127.799 62.8198C128.44 63.1023 129.623 63.0525 130.264 62.7699C130.132 62.6868 129.935 62.6702 129.705 62.6868C129.623 62.5705 129.573 62.4209 129.573 62.2049C129.245 61.939 128.012 61.8226 128.226 62.637Z" fill="#0A2541"/>
</g>
<defs>
<clipPath id="clip0_4553_28548">
<rect width="184" height="64" fill="white"/>
</clipPath>
</defs>
</svg>
