<svg xmlns="http://www.w3.org/2000/svg" width="28" height="26" viewBox="0 0 28 26" fill="none">
  <path fill-rule="evenodd" clip-rule="evenodd"
    d="M24.51 20.9767C23.9886 20.9767 23.5541 21.152 23.1195 21.5903C22.7719 21.9409 22.5112 22.4668 22.5112 22.9927C22.5112 23.5186 22.685 23.9569 23.1195 24.3951C23.4671 24.7457 23.9886 25.0087 24.51 25.0087C25.0314 25.0087 25.4659 24.8334 25.9004 24.3951C26.248 24.0445 26.5087 23.5186 26.5087 22.9927C26.5087 22.4668 26.335 22.0285 25.9004 21.5903C25.4659 21.152 25.0314 20.9767 24.51 20.9767Z"
    fill="black" />
  <path fill-rule="evenodd" clip-rule="evenodd"
    d="M11.9949 20.9767C11.4734 20.9767 11.0389 21.152 10.6044 21.5903C10.2568 21.9409 9.99609 22.4668 9.99609 22.9927C9.99609 23.5186 10.1699 23.9569 10.6044 24.3951C10.952 24.7457 11.4734 25.0087 11.9949 25.0087C12.5163 25.0087 12.9508 24.8334 13.3853 24.3951C13.7329 24.0445 13.9936 23.5186 13.9936 22.9927C13.9936 22.4668 13.8198 22.0285 13.3853 21.5903C12.9508 21.152 12.5163 20.9767 11.9949 20.9767Z"
    fill="black" />
  <path fill-rule="evenodd" clip-rule="evenodd"
    d="M27.5511 4.32256H8.08488C8.08488 4.23491 7.47657 1.86828 7.47657 1.69298C7.47657 1.51767 7.38965 1.34237 7.38965 1.25471C7.38965 1.16706 7.30274 0.991756 7.30274 0.816451C7.21584 0.641145 7.12899 0.553498 7.04209 0.465845L6.78134 0.202887C6.60754 0.115234 6.52067 0.115234 6.34686 0.115234H0.263672V2.04359H5.56472L9.04085 16.9445L9.82289 20.0124H27.0296V18.084H11.6479L11.1264 16.068L26.682 14.1397C26.9427 14.1397 27.1165 13.9644 27.2903 13.7891C27.4641 13.6138 27.5511 13.3508 27.5511 13.1755V4.32256Z"
    fill="black" />
</svg>
