<svg width="30" height="30" viewBox="0 0 30 30" fill="none" xmlns="http://www.w3.org/2000/svg">
<g id="commerce-and-shopping 1" clip-path="url(#clip0_1_3234)">
<path id="Vector" d="M28.7674 6.25812H5.31107L4.9624 2.37382C4.90538 1.73861 4.37301 1.25189 3.73528 1.25189H1.23205C0.551606 1.25189 0 1.8035 0 2.48394C0 3.16438 0.551606 3.71599 1.23205 3.71599H2.60889C3.36132 12.0987 1.41668 -9.56756 4.02593 19.5032C4.12649 20.641 4.74128 21.8757 5.80037 22.7147C3.89087 25.1532 5.63557 28.7481 8.74169 28.7481C11.3197 28.7481 13.1381 26.1769 12.254 23.7417H18.9972C18.1142 26.1738 19.9286 28.7481 22.5094 28.7481C24.5691 28.7481 26.2447 27.0725 26.2447 25.0128C26.2447 22.9532 24.5691 21.2776 22.5094 21.2776H8.75002C7.81413 21.2776 6.99857 20.7129 6.64656 19.8903L26.3364 18.7331C26.8739 18.7015 27.3287 18.3244 27.4593 17.802L29.9627 7.78897C30.1568 7.01255 29.5691 6.25812 28.7674 6.25812ZM8.74169 26.284C8.04083 26.284 7.47056 25.7138 7.47056 25.0128C7.47056 24.3119 8.04083 23.7417 8.74169 23.7417C9.44261 23.7417 10.0129 24.3119 10.0129 25.0128C10.0129 25.7138 9.44261 26.284 8.74169 26.284ZM22.5094 26.284C21.8085 26.284 21.2382 25.7138 21.2382 25.0128C21.2382 24.3119 21.8085 23.7417 22.5094 23.7417C23.2103 23.7417 23.7806 24.3119 23.7806 25.0128C23.7806 25.7138 23.2103 26.284 22.5094 26.284ZM25.2883 16.3264L6.3149 17.4414L5.53226 8.72216H27.1895L25.2883 16.3264Z" fill="#060606"/>
</g>
<defs>
<clipPath id="clip0_1_3234">
<rect width="30" height="30" fill="white"/>
</clipPath>
</defs>
</svg>
