<svg width="57" height="40" viewBox="0 0 57 40" fill="none" xmlns="http://www.w3.org/2000/svg">
<path d="M34.1132 35.9814H15.4541C9.80819 35.9814 5.21507 31.3869 5.21507 25.7395L5.12048 1.15425C5.12003 0.847551 5.2394 0.554166 5.45565 0.338837C5.67007 0.120288 5.96299 0 6.26786 0H43.2028C43.8359 0 44.3492 0.514684 44.3492 1.14874V25.7411C44.3502 31.3875 39.7598 35.9815 34.1134 35.9815L34.1132 35.9814ZM7.42042 2.29754L7.51179 25.7368C7.51179 30.1197 11.0746 33.6817 15.4538 33.6817H34.114C38.4923 33.6817 42.0551 30.1202 42.0551 25.7397V2.29683L7.42042 2.29754Z" fill="#5B7B9F"/>
<path d="M43.7288 19.4253C43.1682 19.4253 42.6783 19.0153 42.5947 18.4442C42.502 17.817 42.9363 17.2329 43.563 17.1416L49.3159 16.2931C51.4142 15.6467 53.8732 14.2762 53.8732 11.3869C53.8732 5.99169 51.1625 5.7478 51.0477 5.74004L43.6356 5.7405C42.9997 5.7405 42.4868 5.22627 42.4868 4.59176C42.4868 3.95725 42.9997 3.44531 43.6356 3.44531H51.0982C51.1772 3.44577 56.1697 3.65743 56.1697 11.386C56.1697 14.7693 53.943 17.3005 49.8976 18.5149C49.8457 18.53 49.7911 18.5434 49.7351 18.5503L43.8986 19.4125C43.8408 19.4221 43.7848 19.4253 43.7287 19.4253L43.7288 19.4253Z" fill="#5B7B9F"/>
<path d="M46.0278 39.999H3.44396C1.54503 39.999 0 38.4527 0 36.5541C0 35.9191 0.511934 35.4062 1.14874 35.4062C1.78188 35.4062 2.2961 35.9191 2.2961 36.5541C2.2961 37.1872 2.81262 37.7037 3.44393 37.7037H46.0277C46.6604 37.7037 47.1755 37.1872 47.1755 36.5541C47.1755 35.9191 47.6884 35.4062 48.3229 35.4062C48.9579 35.4062 49.4707 35.9191 49.4707 36.5541C49.4707 38.453 47.9266 39.999 46.0277 39.999H46.0278Z" fill="#5B7B9F"/>
</svg>
