<svg width="29" height="35" viewBox="0 0 29 35" fill="none" xmlns="http://www.w3.org/2000/svg">
<g id="Group">
<path id="Vector" fill-rule="evenodd" clip-rule="evenodd" d="M2.97083 2.97058H2.22806C0.997408 2.97058 0 3.96799 0 5.19864V31.9354C0 33.166 0.997408 34.1635 2.22806 34.1635H23.0235C24.2542 34.1635 25.2516 33.166 25.2516 31.9354V31.1929H25.9944C27.225 31.1929 28.2224 30.1955 28.2224 28.9648V2.22806C28.2224 0.997408 27.225 0 25.9944 0H5.1989C3.96824 0 2.97083 0.997408 2.97083 2.22806V2.97058ZM23.7663 5.19864V31.9354C23.7663 32.3454 23.4336 32.6782 23.0235 32.6782H2.22806C1.81826 32.6782 1.48554 32.3454 1.48554 31.9354V5.19864C1.48554 4.78884 1.81826 4.45613 2.22806 4.45613H23.0235C23.4336 4.45613 23.7663 4.78885 23.7663 5.19864ZM25.2516 29.7073H25.9944C26.4042 29.7073 26.7369 29.3746 26.7369 28.9648V2.22806C26.7369 1.81801 26.4042 1.48529 25.9944 1.48529H5.1989C4.78884 1.48529 4.45612 1.81801 4.45612 2.22806V2.97058H23.0235C24.2542 2.97058 25.2516 3.96799 25.2516 5.19864V29.7073Z" fill="#4D4D4D"/>
<path id="Vector_2" fill-rule="evenodd" clip-rule="evenodd" d="M8.16855 8.91133H17.0808C17.4906 8.91133 17.8233 8.57861 17.8233 8.16855C17.8233 7.7585 17.4906 7.42578 17.0808 7.42578H8.16855C7.7585 7.42578 7.42578 7.7585 7.42578 8.16855C7.42578 8.57861 7.7585 8.91133 8.16855 8.91133Z" fill="#4D4D4D"/>
<path id="Vector_3" fill-rule="evenodd" clip-rule="evenodd" d="M5.19662 14.8544H20.0508C20.4606 14.8544 20.7936 14.5217 20.7936 14.1117C20.7936 13.7019 20.4606 13.3691 20.0508 13.3691H5.19662C4.78706 13.3691 4.4541 13.7019 4.4541 14.1117C4.4541 14.5217 4.78707 14.8544 5.19662 14.8544Z" fill="#4D4D4D"/>
<path id="Vector_4" fill-rule="evenodd" clip-rule="evenodd" d="M5.19662 17.8254H14.1089C14.5184 17.8254 14.8514 17.4927 14.8514 17.0826C14.8514 16.6726 14.5184 16.3398 14.1089 16.3398H5.19662C4.78706 16.3398 4.4541 16.6726 4.4541 17.0826C4.4541 17.4927 4.78707 17.8254 5.19662 17.8254Z" fill="#4D4D4D"/>
<path id="Vector_5" fill-rule="evenodd" clip-rule="evenodd" d="M5.19662 20.7958H20.0508C20.4606 20.7958 20.7936 20.4631 20.7936 20.0533C20.7936 19.6433 20.4606 19.3105 20.0508 19.3105H5.19662C4.78706 19.3105 4.4541 19.6433 4.4541 20.0533C4.4541 20.4631 4.78707 20.7958 5.19662 20.7958Z" fill="#4D4D4D"/>
<path id="Vector_6" fill-rule="evenodd" clip-rule="evenodd" d="M5.19662 23.7665H20.0508C20.4606 23.7665 20.7936 23.4338 20.7936 23.0238C20.7936 22.614 20.4606 22.2812 20.0508 22.2812H5.19662C4.78706 22.2812 4.4541 22.614 4.4541 23.0238C4.4541 23.4338 4.78707 23.7665 5.19662 23.7665Z" fill="#4D4D4D"/>
<path id="Vector_7" fill-rule="evenodd" clip-rule="evenodd" d="M11.1402 26.7375H20.0525C20.4623 26.7375 20.7953 26.4048 20.7953 25.9947C20.7953 25.5847 20.4623 25.252 20.0525 25.252H11.1402C10.7304 25.252 10.3975 25.5847 10.3975 25.9947C10.3975 26.4048 10.7304 26.7375 11.1402 26.7375Z" fill="#4D4D4D"/>
<path id="Vector_8" fill-rule="evenodd" clip-rule="evenodd" d="M5.19662 29.7079H20.0508C20.4606 29.7079 20.7936 29.3752 20.7936 28.9654C20.7936 28.5554 20.4606 28.2227 20.0508 28.2227H5.19662C4.78706 28.2227 4.4541 28.5554 4.4541 28.9654C4.4541 29.3752 4.78707 29.7079 5.19662 29.7079Z" fill="#4D4D4D"/>
<path id="Vector_9" fill-rule="evenodd" clip-rule="evenodd" d="M20.0542 16.3379H17.0836C16.6735 16.3379 16.3408 16.6706 16.3408 17.0807C16.3408 17.4907 16.6735 17.8234 17.0836 17.8234H20.0542C20.4642 17.8234 20.7969 17.4907 20.7969 17.0807C20.7969 16.6706 20.4642 16.3379 20.0542 16.3379Z" fill="#4D4D4D"/>
<path id="Vector_10" fill-rule="evenodd" clip-rule="evenodd" d="M5.19687 26.7375H8.16771C8.57751 26.7375 8.91023 26.4048 8.91023 25.9947C8.91023 25.5847 8.57751 25.252 8.16771 25.252H5.19687C4.78682 25.252 4.4541 25.5847 4.4541 25.9947C4.4541 26.4048 4.78682 26.7375 5.19687 26.7375Z" fill="#4D4D4D"/>
</g>
</svg>
