<svg width="73" height="23" viewBox="0 0 73 23" fill="none" xmlns="http://www.w3.org/2000/svg">
<path d="M0.68 0.99H6.21V2.45H2.51V3.76H5.85V5.21L2.51 5.22V6.54H6.31V8H0.68V0.99ZM12.218 0.99H13.918V8H12.318L9.13805 3.81V8H7.42805V0.99H9.03805L12.228 5.21L12.218 0.99ZM14.6794 0.99H20.6894V2.5H18.5894V8H16.7594V2.5H14.6794V0.99ZM25.642 8L24.622 6.06H24.582H23.262V8H21.432V0.99H24.582C25.5086 0.99 26.2253 1.20667 26.732 1.64C27.2453 2.06667 27.502 2.67 27.502 3.45C27.502 3.97667 27.3953 4.43333 27.182 4.82C26.9686 5.2 26.6586 5.49667 26.252 5.71L27.712 8H25.642ZM23.262 4.6H24.592C24.9653 4.6 25.252 4.50667 25.452 4.32C25.6586 4.13333 25.762 3.86333 25.762 3.51C25.762 3.17 25.6586 2.91 25.452 2.73C25.252 2.54333 24.9653 2.45 24.592 2.45H23.262V4.6ZM33.8183 8L33.3383 6.76H30.3083L29.8183 8H27.9383L30.9483 0.99H32.8283L35.7683 8H33.8183ZM30.8583 5.36H32.7983L31.8383 2.86L30.8583 5.36ZM40.6127 8L39.5927 6.06H39.5527H38.2327V8H36.4027V0.99H39.5527C40.4793 0.99 41.196 1.20667 41.7027 1.64C42.216 2.06667 42.4727 2.67 42.4727 3.45C42.4727 3.97667 42.366 4.43333 42.1527 4.82C41.9393 5.2 41.6293 5.49667 41.2227 5.71L42.6827 8H40.6127ZM38.2327 4.6H39.5627C39.936 4.6 40.2227 4.50667 40.4227 4.32C40.6293 4.13333 40.7327 3.86333 40.7327 3.51C40.7327 3.17 40.6293 2.91 40.4227 2.73C40.2227 2.54333 39.936 2.45 39.5627 2.45H38.2327V4.6ZM49.6362 0.94C50.3095 0.94 50.9262 1.09667 51.4862 1.41C52.0528 1.72333 52.4995 2.15333 52.8262 2.7C53.1528 3.24 53.3162 3.83667 53.3162 4.49C53.3162 5.14333 53.1528 5.74667 52.8262 6.3C52.4995 6.84667 52.0528 7.28 51.4862 7.6C50.9262 7.91333 50.3095 8.07 49.6362 8.07C48.9628 8.07 48.3428 7.91333 47.7762 7.6C47.2162 7.28 46.7728 6.84667 46.4462 6.3C46.1195 5.74667 45.9562 5.14333 45.9562 4.49C45.9562 3.83667 46.1195 3.24 46.4462 2.7C46.7728 2.15333 47.2162 1.72333 47.7762 1.41C48.3362 1.09667 48.9562 0.94 49.6362 0.94ZM49.6462 1.8C49.1595 1.8 48.7062 1.92 48.2862 2.16C47.8728 2.4 47.5428 2.72667 47.2962 3.14C47.0495 3.54667 46.9262 3.99667 46.9262 4.49C46.9262 4.98333 47.0495 5.43667 47.2962 5.85C47.5428 6.26333 47.8728 6.59333 48.2862 6.84C48.7062 7.08 49.1595 7.2 49.6462 7.2C50.1328 7.2 50.5795 7.08 50.9862 6.84C51.3995 6.59333 51.7262 6.26333 51.9662 5.85C52.2128 5.43667 52.3362 4.98333 52.3362 4.49C52.3362 3.99667 52.2128 3.54667 51.9662 3.14C51.7262 2.72667 51.3995 2.4 50.9862 2.16C50.5795 1.92 50.1328 1.8 49.6462 1.8ZM55.5014 5.14C55.5014 5.78667 55.6781 6.29333 56.0314 6.66C56.3914 7.02 56.8847 7.2 57.5114 7.2C58.1314 7.2 58.6181 7.02 58.9714 6.66C59.3247 6.29333 59.5014 5.78667 59.5014 5.14V1H60.4614V5.14C60.4614 6.05333 60.1981 6.77 59.6714 7.29C59.1514 7.81 58.4314 8.07 57.5114 8.07C56.5847 8.07 55.8581 7.81 55.3314 7.29C54.8047 6.77 54.5414 6.05333 54.5414 5.14V1H55.5014V5.14ZM5.75 17.37C5.52333 17.0833 5.25333 16.8567 4.94 16.69C4.62667 16.5167 4.31667 16.43 4.01 16.43C3.65667 16.43 3.33333 16.52 3.04 16.7C2.75333 16.8733 2.52667 17.1167 2.36 17.43C2.19333 17.7367 2.11 18.08 2.11 18.46C2.11 18.84 2.19333 19.1867 2.36 19.5C2.52667 19.8067 2.75333 20.05 3.04 20.23C3.33333 20.4033 3.65667 20.49 4.01 20.49C4.29667 20.49 4.59667 20.4167 4.91 20.27C5.22333 20.1233 5.50333 19.9233 5.75 19.67L6.82 20.82C6.44 21.22 5.98667 21.54 5.46 21.78C4.94 22.0133 4.42333 22.13 3.91 22.13C3.21667 22.13 2.59 21.97 2.03 21.65C1.47 21.33 1.03 20.8933 0.71 20.34C0.39 19.7867 0.23 19.1667 0.23 18.48C0.23 17.8 0.393333 17.1867 0.72 16.64C1.04667 16.0933 1.49333 15.6633 2.06 15.35C2.63333 15.0367 3.27333 14.88 3.98 14.88C4.5 14.88 5.01333 14.99 5.52 15.21C6.02667 15.4233 6.45667 15.7167 6.81 16.09L5.75 17.37ZM12.6757 22L12.1957 20.76H9.1657L8.6757 22H6.7957L9.8057 14.99H11.6857L14.6257 22H12.6757ZM9.7157 19.36H11.6557L10.6957 16.86L9.7157 19.36ZM18.2801 14.99C19.0134 14.99 19.6601 15.1367 20.2201 15.43C20.7867 15.7233 21.2267 16.1367 21.5401 16.67C21.8534 17.1967 22.0101 17.8033 22.0101 18.49C22.0101 19.1767 21.8501 19.7867 21.5301 20.32C21.2167 20.8533 20.7701 21.2667 20.1901 21.56C19.6167 21.8533 18.9567 22 18.2101 22H15.2601V14.99H18.2801ZM18.3301 20.52C18.6834 20.52 18.9967 20.4367 19.2701 20.27C19.5434 20.1033 19.7567 19.8667 19.9101 19.56C20.0634 19.2533 20.1401 18.9033 20.1401 18.51C20.1401 18.11 20.0567 17.7567 19.8901 17.45C19.7301 17.1433 19.5067 16.9067 19.2201 16.74C18.9334 16.5667 18.6067 16.48 18.2401 16.48H17.0901V20.52H18.3301ZM27.8808 22L27.4008 20.76H24.3708L23.8808 22H22.0008L25.0108 14.99H26.8908L29.8308 22H27.8808ZM24.9208 19.36H26.8608L25.9008 16.86L24.9208 19.36ZM35.2659 17.1C34.8925 16.88 34.4925 16.7 34.0659 16.56C33.6459 16.42 33.2925 16.35 33.0059 16.35C32.7792 16.35 32.5992 16.3933 32.4659 16.48C32.3392 16.56 32.2759 16.68 32.2759 16.84C32.2759 16.9933 32.3325 17.1233 32.4459 17.23C32.5592 17.33 32.6992 17.4133 32.8659 17.48C33.0325 17.54 33.2792 17.62 33.6059 17.72C34.0925 17.86 34.4925 18 34.8059 18.14C35.1259 18.28 35.3992 18.4967 35.6259 18.79C35.8525 19.0767 35.9659 19.4533 35.9659 19.92C35.9659 20.3867 35.8425 20.7867 35.5959 21.12C35.3492 21.4467 35.0092 21.6933 34.5759 21.86C34.1492 22.0267 33.6725 22.11 33.1459 22.11C32.5659 22.11 31.9859 22.01 31.4059 21.81C30.8325 21.6033 30.3359 21.3233 29.9159 20.97L30.6259 19.54C30.9792 19.8533 31.3959 20.11 31.8759 20.31C32.3625 20.51 32.7925 20.61 33.1659 20.61C33.4392 20.61 33.6525 20.56 33.8059 20.46C33.9659 20.36 34.0459 20.2133 34.0459 20.02C34.0459 19.86 33.9859 19.7267 33.8659 19.62C33.7525 19.5133 33.6059 19.43 33.4259 19.37C33.2525 19.3033 33.0059 19.2267 32.6859 19.14C32.2059 19.0067 31.8092 18.8733 31.4959 18.74C31.1825 18.6 30.9125 18.3933 30.6859 18.12C30.4659 17.84 30.3559 17.47 30.3559 17.01C30.3559 16.5767 30.4692 16.1967 30.6959 15.87C30.9292 15.5433 31.2559 15.2933 31.6759 15.12C32.1025 14.94 32.5959 14.85 33.1559 14.85C33.6625 14.85 34.1625 14.9233 34.6559 15.07C35.1492 15.21 35.5825 15.4 35.9559 15.64L35.2659 17.1ZM36.2907 14.99H42.3007V16.5H40.2007V22H38.3707V16.5H36.2907V14.99ZM47.2533 22L46.2333 20.06H46.1933H44.8733V22H43.0433V14.99H46.1933C47.1199 14.99 47.8366 15.2067 48.3433 15.64C48.8566 16.0667 49.1133 16.67 49.1133 17.45C49.1133 17.9767 49.0066 18.4333 48.7933 18.82C48.5799 19.2 48.2699 19.4967 47.8633 19.71L49.3233 22H47.2533ZM44.8733 18.6H46.2033C46.5766 18.6 46.8633 18.5067 47.0633 18.32C47.2699 18.1333 47.3733 17.8633 47.3733 17.51C47.3733 17.17 47.2699 16.91 47.0633 16.73C46.8633 16.5433 46.5766 16.45 46.2033 16.45H44.8733V18.6ZM50.2796 14.99H55.8096V16.45H52.1096V17.76H55.4496V19.21L52.1096 19.22V20.54H55.9096V22H50.2796V14.99ZM56.8977 18.36H59.5477V19.5H56.8977V18.36ZM65.6077 17.1C65.2343 16.88 64.8343 16.7 64.4077 16.56C63.9877 16.42 63.6343 16.35 63.3477 16.35C63.121 16.35 62.941 16.3933 62.8077 16.48C62.681 16.56 62.6177 16.68 62.6177 16.84C62.6177 16.9933 62.6743 17.1233 62.7877 17.23C62.901 17.33 63.041 17.4133 63.2077 17.48C63.3743 17.54 63.621 17.62 63.9477 17.72C64.4343 17.86 64.8343 18 65.1477 18.14C65.4677 18.28 65.741 18.4967 65.9677 18.79C66.1943 19.0767 66.3077 19.4533 66.3077 19.92C66.3077 20.3867 66.1843 20.7867 65.9377 21.12C65.691 21.4467 65.351 21.6933 64.9177 21.86C64.491 22.0267 64.0143 22.11 63.4877 22.11C62.9077 22.11 62.3277 22.01 61.7477 21.81C61.1743 21.6033 60.6777 21.3233 60.2577 20.97L60.9677 19.54C61.321 19.8533 61.7377 20.11 62.2177 20.31C62.7043 20.51 63.1343 20.61 63.5077 20.61C63.781 20.61 63.9943 20.56 64.1477 20.46C64.3077 20.36 64.3877 20.2133 64.3877 20.02C64.3877 19.86 64.3277 19.7267 64.2077 19.62C64.0943 19.5133 63.9477 19.43 63.7677 19.37C63.5943 19.3033 63.3477 19.2267 63.0277 19.14C62.5477 19.0067 62.151 18.8733 61.8377 18.74C61.5243 18.6 61.2543 18.3933 61.0277 18.12C60.8077 17.84 60.6977 17.47 60.6977 17.01C60.6977 16.5767 60.811 16.1967 61.0377 15.87C61.271 15.5433 61.5977 15.2933 62.0177 15.12C62.4443 14.94 62.9377 14.85 63.4977 14.85C64.0043 14.85 64.5043 14.9233 64.9977 15.07C65.491 15.21 65.9243 15.4 66.2977 15.64L65.6077 17.1ZM67.2425 14.99H72.7725V16.45H69.0725V17.76H72.4125V19.21L69.0725 19.22V20.54H72.8725V22H67.2425V14.99Z" fill="#636363"/>
</svg>
