<svg width="88" height="27" viewBox="0 0 88 27" fill="none" xmlns="http://www.w3.org/2000/svg">
  <path
    d="M0.816 0.588H7.452V2.34H3.012V3.912H7.02V5.652L3.012 5.664V7.248H7.572V9H0.816V0.588ZM14.6617 0.588H16.7017V9H14.7817L10.9657 3.972V9H8.91366V0.588H10.8457L14.6737 5.652L14.6617 0.588ZM17.6153 0.588H24.8273V2.4H22.3073V9H20.1113V2.4H17.6153V0.588ZM30.7703 9L29.5463 6.672H29.4983H27.9143V9H25.7183V0.588H29.4983C30.6103 0.588 31.4703 0.848 32.0783 1.368C32.6943 1.88 33.0023 2.604 33.0023 3.54C33.0023 4.172 32.8743 4.72 32.6183 5.184C32.3623 5.64 31.9903 5.996 31.5023 6.252L33.2543 9H30.7703ZM27.9143 4.92H29.5103C29.9583 4.92 30.3023 4.808 30.5423 4.584C30.7903 4.36 30.9143 4.036 30.9143 3.612C30.9143 3.204 30.7903 2.892 30.5423 2.676C30.3023 2.452 29.9583 2.34 29.5103 2.34H27.9143V4.92ZM40.5819 9L40.0059 7.512H36.3699L35.7819 9H33.5259L37.1379 0.588H39.3939L42.9219 9H40.5819ZM37.0299 5.832H39.3579L38.2059 2.832L37.0299 5.832ZM48.7352 9L47.5112 6.672H47.4632H45.8792V9H43.6832V0.588H47.4632C48.5752 0.588 49.4352 0.848 50.0432 1.368C50.6592 1.88 50.9672 2.604 50.9672 3.54C50.9672 4.172 50.8392 4.72 50.5832 5.184C50.3272 5.64 49.9552 5.996 49.4672 6.252L51.2192 9H48.7352ZM45.8792 4.92H47.4752C47.9232 4.92 48.2672 4.808 48.5072 4.584C48.7552 4.36 48.8792 4.036 48.8792 3.612C48.8792 3.204 48.7552 2.892 48.5072 2.676C48.2672 2.452 47.9232 2.34 47.4752 2.34H45.8792V4.92ZM59.5634 0.528C60.3714 0.528 61.1114 0.716 61.7834 1.092C62.4634 1.468 62.9994 1.984 63.3914 2.64C63.7834 3.288 63.9794 4.004 63.9794 4.788C63.9794 5.572 63.7834 6.296 63.3914 6.96C62.9994 7.616 62.4634 8.136 61.7834 8.52C61.1114 8.896 60.3714 9.084 59.5634 9.084C58.7554 9.084 58.0114 8.896 57.3314 8.52C56.6594 8.136 56.1274 7.616 55.7354 6.96C55.3434 6.296 55.1474 5.572 55.1474 4.788C55.1474 4.004 55.3434 3.288 55.7354 2.64C56.1274 1.984 56.6594 1.468 57.3314 1.092C58.0034 0.716 58.7474 0.528 59.5634 0.528ZM59.5754 1.56C58.9914 1.56 58.4474 1.704 57.9434 1.992C57.4474 2.28 57.0514 2.672 56.7554 3.168C56.4594 3.656 56.3114 4.196 56.3114 4.788C56.3114 5.38 56.4594 5.924 56.7554 6.42C57.0514 6.916 57.4474 7.312 57.9434 7.608C58.4474 7.896 58.9914 8.04 59.5754 8.04C60.1594 8.04 60.6954 7.896 61.1834 7.608C61.6794 7.312 62.0714 6.916 62.3594 6.42C62.6554 5.924 62.8034 5.38 62.8034 4.788C62.8034 4.196 62.6554 3.656 62.3594 3.168C62.0714 2.672 61.6794 2.28 61.1834 1.992C60.6954 1.704 60.1594 1.56 59.5754 1.56ZM66.6017 5.568C66.6017 6.344 66.8137 6.952 67.2377 7.392C67.6697 7.824 68.2617 8.04 69.0137 8.04C69.7577 8.04 70.3417 7.824 70.7657 7.392C71.1897 6.952 71.4017 6.344 71.4017 5.568V0.599999H72.5537V5.568C72.5537 6.664 72.2377 7.524 71.6057 8.148C70.9817 8.772 70.1177 9.084 69.0137 9.084C67.9017 9.084 67.0297 8.772 66.3977 8.148C65.7657 7.524 65.4497 6.664 65.4497 5.568V0.599999H66.6017V5.568ZM6.9 20.444C6.628 20.1 6.304 19.828 5.928 19.628C5.552 19.42 5.18 19.316 4.812 19.316C4.388 19.316 4 19.424 3.648 19.64C3.304 19.848 3.032 20.14 2.832 20.516C2.632 20.884 2.532 21.296 2.532 21.752C2.532 22.208 2.632 22.624 2.832 23C3.032 23.368 3.304 23.66 3.648 23.876C4 24.084 4.388 24.188 4.812 24.188C5.156 24.188 5.516 24.1 5.892 23.924C6.268 23.748 6.604 23.508 6.9 23.204L8.184 24.584C7.728 25.064 7.184 25.448 6.552 25.736C5.928 26.016 5.308 26.156 4.692 26.156C3.86 26.156 3.108 25.964 2.436 25.58C1.764 25.196 1.236 24.672 0.852 24.008C0.468 23.344 0.276 22.6 0.276 21.776C0.276 20.96 0.472 20.224 0.864 19.568C1.256 18.912 1.792 18.396 2.472 18.02C3.16 17.644 3.928 17.456 4.776 17.456C5.4 17.456 6.016 17.588 6.624 17.852C7.232 18.108 7.748 18.46 8.172 18.908L6.9 20.444ZM15.2108 26L14.6348 24.512H10.9988L10.4108 26H8.15484L11.7668 17.588H14.0228L17.5508 26H15.2108ZM11.6588 22.832H13.9868L12.8348 19.832L11.6588 22.832ZM21.9361 17.588C22.8161 17.588 23.5921 17.764 24.2641 18.116C24.9441 18.468 25.4721 18.964 25.8481 19.604C26.2241 20.236 26.4121 20.964 26.4121 21.788C26.4121 22.612 26.2201 23.344 25.8361 23.984C25.4601 24.624 24.9241 25.12 24.2281 25.472C23.5401 25.824 22.7481 26 21.8521 26H18.3121V17.588H21.9361ZM21.9961 24.224C22.4201 24.224 22.7961 24.124 23.1241 23.924C23.4521 23.724 23.7081 23.44 23.8921 23.072C24.0761 22.704 24.1681 22.284 24.1681 21.812C24.1681 21.332 24.0681 20.908 23.8681 20.54C23.6761 20.172 23.4081 19.888 23.0641 19.688C22.7201 19.48 22.3281 19.376 21.8881 19.376H20.5081V24.224H21.9961ZM33.4569 26L32.8809 24.512H29.2449L28.6569 26H26.4009L30.0129 17.588H32.2689L35.7969 26H33.4569ZM29.9049 22.832H32.2329L31.0809 19.832L29.9049 22.832ZM42.319 20.12C41.871 19.856 41.391 19.64 40.879 19.472C40.375 19.304 39.951 19.22 39.607 19.22C39.335 19.22 39.119 19.272 38.959 19.376C38.807 19.472 38.731 19.616 38.731 19.808C38.731 19.992 38.799 20.148 38.935 20.276C39.071 20.396 39.239 20.496 39.439 20.576C39.639 20.648 39.935 20.744 40.327 20.864C40.911 21.032 41.391 21.2 41.767 21.368C42.151 21.536 42.479 21.796 42.751 22.148C43.023 22.492 43.159 22.944 43.159 23.504C43.159 24.064 43.011 24.544 42.715 24.944C42.419 25.336 42.011 25.632 41.491 25.832C40.979 26.032 40.407 26.132 39.775 26.132C39.079 26.132 38.383 26.012 37.687 25.772C36.999 25.524 36.403 25.188 35.899 24.764L36.751 23.048C37.175 23.424 37.675 23.732 38.251 23.972C38.835 24.212 39.351 24.332 39.799 24.332C40.127 24.332 40.383 24.272 40.567 24.152C40.759 24.032 40.855 23.856 40.855 23.624C40.855 23.432 40.783 23.272 40.639 23.144C40.503 23.016 40.327 22.916 40.111 22.844C39.903 22.764 39.607 22.672 39.223 22.568C38.647 22.408 38.171 22.248 37.795 22.088C37.419 21.92 37.095 21.672 36.823 21.344C36.559 21.008 36.427 20.564 36.427 20.012C36.427 19.492 36.563 19.036 36.835 18.644C37.115 18.252 37.507 17.952 38.011 17.744C38.523 17.528 39.115 17.42 39.787 17.42C40.395 17.42 40.995 17.508 41.587 17.684C42.179 17.852 42.699 18.08 43.147 18.368L42.319 20.12ZM43.5488 17.588H50.7608V19.4H48.2408V26H46.0448V19.4H43.5488V17.588ZM56.7039 26L55.4799 23.672H55.4319H53.8479V26H51.6519V17.588H55.4319C56.5439 17.588 57.4039 17.848 58.0119 18.368C58.6279 18.88 58.9359 19.604 58.9359 20.54C58.9359 21.172 58.8079 21.72 58.5519 22.184C58.2959 22.64 57.9239 22.996 57.4359 23.252L59.1879 26H56.7039ZM53.8479 21.92H55.4439C55.8919 21.92 56.2359 21.808 56.4759 21.584C56.7239 21.36 56.8479 21.036 56.8479 20.612C56.8479 20.204 56.7239 19.892 56.4759 19.676C56.2359 19.452 55.8919 19.34 55.4439 19.34H53.8479V21.92ZM60.3355 17.588H66.9715V19.34H62.5315V20.912H66.5395V22.652L62.5315 22.664V24.248H67.0915V26H60.3355V17.588ZM68.2772 21.632H71.4572V23H68.2772V21.632ZM78.7292 20.12C78.2812 19.856 77.8012 19.64 77.2892 19.472C76.7852 19.304 76.3612 19.22 76.0172 19.22C75.7452 19.22 75.5292 19.272 75.3692 19.376C75.2172 19.472 75.1412 19.616 75.1412 19.808C75.1412 19.992 75.2092 20.148 75.3452 20.276C75.4812 20.396 75.6492 20.496 75.8492 20.576C76.0492 20.648 76.3452 20.744 76.7372 20.864C77.3212 21.032 77.8012 21.2 78.1772 21.368C78.5612 21.536 78.8892 21.796 79.1612 22.148C79.4332 22.492 79.5692 22.944 79.5692 23.504C79.5692 24.064 79.4212 24.544 79.1252 24.944C78.8292 25.336 78.4212 25.632 77.9012 25.832C77.3892 26.032 76.8172 26.132 76.1852 26.132C75.4892 26.132 74.7932 26.012 74.0972 25.772C73.4092 25.524 72.8132 25.188 72.3092 24.764L73.1612 23.048C73.5852 23.424 74.0852 23.732 74.6612 23.972C75.2452 24.212 75.7612 24.332 76.2092 24.332C76.5372 24.332 76.7932 24.272 76.9772 24.152C77.1692 24.032 77.2652 23.856 77.2652 23.624C77.2652 23.432 77.1932 23.272 77.0492 23.144C76.9132 23.016 76.7372 22.916 76.5212 22.844C76.3132 22.764 76.0172 22.672 75.6332 22.568C75.0572 22.408 74.5812 22.248 74.2052 22.088C73.8292 21.92 73.5052 21.672 73.2332 21.344C72.9692 21.008 72.8372 20.564 72.8372 20.012C72.8372 19.492 72.9732 19.036 73.2452 18.644C73.5252 18.252 73.9172 17.952 74.4212 17.744C74.9332 17.528 75.5252 17.42 76.1972 17.42C76.8052 17.42 77.4052 17.508 77.9972 17.684C78.5892 17.852 79.1092 18.08 79.5572 18.368L78.7292 20.12ZM80.691 17.588H87.327V19.34H82.887V20.912H86.895V22.652L82.887 22.664V24.248H87.447V26H80.691V17.588Z"
    fill="black" />
</svg>
