<svg width="40" height="40" viewBox="0 0 40 40" fill="none" xmlns="http://www.w3.org/2000/svg">
<path d="M19.9993 36.6667C19.9993 36.6667 33.3327 30 33.3327 20V8.33333L19.9993 3.33333L6.66602 8.33333V20C6.66602 30 19.9993 36.6667 19.9993 36.6667Z" stroke="#0A2541" stroke-width="1.5" stroke-linecap="round" stroke-linejoin="round"/>
<path d="M24.9442 15.3181L19.4263 20.8002L17.5454 18.9194C17.192 18.5659 16.6192 18.5665 16.2651 18.92C15.9116 19.2735 15.9116 19.8462 16.2651 20.1997L18.7901 22.7247C18.9564 22.9002 19.1885 23 19.4306 23C19.6726 23 19.9042 22.9002 20.0704 22.7247L26.2503 16.5448C26.6038 16.1913 26.6044 15.6186 26.2509 15.2651C25.8968 14.9116 25.3241 14.9116 24.9706 15.2651L24.9442 15.3181Z" fill="#0A2541"/>
</svg>
