<svg width="40" height="40" viewBox="0 0 40 40" fill="none" xmlns="http://www.w3.org/2000/svg">
<path d="M30.8327 35C33.1339 35 34.9993 33.1345 34.9993 30.8333C34.9993 28.5321 33.1339 26.6667 30.8327 26.6667C28.5315 26.6667 26.666 28.5321 26.666 30.8333C26.666 33.1345 28.5315 35 30.8327 35Z" stroke="#0A2541" stroke-width="1.5" stroke-linecap="round" stroke-linejoin="round"/>
<path d="M9.16667 35C11.4679 35 13.3333 33.1345 13.3333 30.8333C13.3333 28.5321 11.4679 26.6667 9.16667 26.6667C6.86548 26.6667 5 28.5321 5 30.8333C5 33.1345 6.86548 35 9.16667 35Z" stroke="#0A2541" stroke-width="1.5" stroke-linecap="round" stroke-linejoin="round"/>
<path d="M26.666 13.3333H33.3327L38.3327 18.3333V26.6667H26.666V13.3333Z" stroke="#0A2541" stroke-width="1.5" stroke-linecap="round" stroke-linejoin="round"/>
<path d="M26.666 5H1.66602V26.6667H26.666V5Z" stroke="#0A2541" stroke-width="1.5" stroke-linecap="round" stroke-linejoin="round"/>
</svg>
