<svg width="30" height="28" viewBox="0 0 30 28" fill="none" xmlns="http://www.w3.org/2000/svg">
<path d="M28.7674 5.25812H5.31107L4.9624 1.37382C4.90538 0.73861 4.37301 0.251892 3.73528 0.251892H1.23205C0.551606 0.251892 0 0.803498 0 1.48394C0 2.16438 0.551606 2.71599 1.23205 2.71599H2.60889C3.36132 11.0987 1.41668 -10.5676 4.02593 18.5032C4.12649 19.641 4.74128 20.8757 5.80037 21.7147C3.89087 24.1532 5.63557 27.7481 8.74169 27.7481C11.3197 27.7481 13.1381 25.1769 12.254 22.7417H18.9972C18.1142 25.1738 19.9286 27.7481 22.5094 27.7481C24.5691 27.7481 26.2447 26.0725 26.2447 24.0128C26.2447 21.9532 24.5691 20.2776 22.5094 20.2776H8.75002C7.81413 20.2776 6.99857 19.7129 6.64656 18.8903L26.3364 17.7331C26.8739 17.7015 27.3287 17.3244 27.4593 16.802L29.9627 6.78897C30.1568 6.01255 29.5691 5.25812 28.7674 5.25812ZM8.74169 25.284C8.04083 25.284 7.47056 24.7138 7.47056 24.0128C7.47056 23.3119 8.04083 22.7417 8.74169 22.7417C9.44261 22.7417 10.0129 23.3119 10.0129 24.0128C10.0129 24.7138 9.44261 25.284 8.74169 25.284ZM22.5094 25.284C21.8085 25.284 21.2382 24.7138 21.2382 24.0128C21.2382 23.3119 21.8085 22.7417 22.5094 22.7417C23.2103 22.7417 23.7806 23.3119 23.7806 24.0128C23.7806 24.7138 23.2103 25.284 22.5094 25.284ZM25.2883 15.3264L6.3149 16.4414L5.53226 7.72216H27.1895L25.2883 15.3264Z" fill="#060606"/>
</svg>
