<svg width="35" height="34" viewBox="0 0 35 34" fill="none" xmlns="http://www.w3.org/2000/svg">
<path fill-rule="evenodd" clip-rule="evenodd" d="M17.4299 1.6323C13.354 1.6323 9.44494 3.25146 6.56281 6.13359C3.68067 9.01573 2.0615 12.9248 2.0615 17.0007C2.0615 21.0767 3.68067 24.9857 6.56281 27.8678C9.44494 30.75 13.354 32.3691 17.4299 32.3691C21.5059 32.3691 25.4149 30.75 28.297 27.8678C31.1792 24.9857 32.7983 21.0767 32.7983 17.0007C32.7983 12.9248 31.1792 9.01573 28.297 6.13359C25.4149 3.25146 21.5059 1.6323 17.4299 1.6323ZM5.66962 5.24041C8.78864 2.12138 13.019 0.369141 17.4299 0.369141C21.8409 0.369141 26.0712 2.12138 29.1902 5.24041C32.3092 8.35943 34.0615 12.5898 34.0615 17.0007C34.0615 21.4117 32.3092 25.642 29.1902 28.761C26.0712 31.88 21.8409 33.6323 17.4299 33.6323C13.019 33.6323 8.78864 31.88 5.66962 28.761C2.55059 25.642 0.79834 21.4117 0.79834 17.0007C0.79834 12.5898 2.55059 8.35943 5.66962 5.24041Z" fill="#E31C79"/>
<path d="M17.4296 9.78238C19.7791 9.78238 20.057 9.78238 20.9833 9.83291C21.5382 9.84216 22.0876 9.94464 22.6086 10.1361C22.9902 10.2769 23.3354 10.5014 23.6191 10.7929C23.9144 11.0735 24.1394 11.4197 24.276 11.8034C24.4756 12.325 24.5783 12.8786 24.5791 13.4371C24.6212 14.3634 24.6296 14.6413 24.6296 16.9908C24.6296 19.3403 24.6296 19.6098 24.5791 20.5361C24.5783 21.0945 24.4756 21.6482 24.276 22.1698C24.1394 22.5535 23.9144 22.8997 23.6191 23.1803C23.3354 23.4718 22.9902 23.6962 22.6086 23.8371C22.0876 24.0285 21.5382 24.131 20.9833 24.1403C20.057 24.1824 19.7791 24.1908 17.4296 24.1908C15.0802 24.1908 14.8023 24.1908 13.876 24.1403C13.321 24.131 12.7716 24.0285 12.2507 23.8371C11.8691 23.6962 11.5238 23.4718 11.2402 23.1803C10.9477 22.8973 10.7232 22.5519 10.5833 22.1698C10.3837 21.6482 10.281 21.0945 10.2802 20.5361C10.2381 19.6098 10.2296 19.3319 10.2296 16.9908C10.2296 14.6497 10.2296 14.3634 10.2802 13.4371C10.281 12.8786 10.3837 12.325 10.5833 11.8034C10.7232 11.4213 10.9477 11.0758 11.2402 10.7929C11.5238 10.5014 11.8691 10.2769 12.2507 10.1361C12.7716 9.94464 13.321 9.84216 13.876 9.83291C14.8023 9.83291 15.0802 9.78238 17.4296 9.78238ZM17.4296 8.19922C15.0465 8.19922 14.7433 8.19922 13.8086 8.24974C13.08 8.26401 12.3593 8.40359 11.6781 8.66238C11.0974 8.8827 10.5686 9.22092 10.1251 9.65572C9.6816 10.0905 9.33297 10.6125 9.1012 11.1887C8.84981 11.8717 8.71324 12.5916 8.69701 13.3192C8.6549 14.2624 8.64648 14.5571 8.64648 16.9487C8.64648 19.3403 8.64648 19.635 8.69701 20.5697C8.71324 21.2974 8.84981 22.0173 9.1012 22.7003C9.32408 23.2872 9.67176 23.8188 10.1202 24.2582C10.5578 24.7068 11.09 25.052 11.6781 25.2687C12.3593 25.5275 13.08 25.6671 13.8086 25.6813C14.7433 25.7234 15.0465 25.7319 17.4296 25.7319C19.8128 25.7319 20.1159 25.7319 21.0507 25.6813C21.7819 25.666 22.5052 25.5265 23.1896 25.2687C23.7746 25.0509 24.3039 24.7057 24.7391 24.2582C25.1875 23.8188 25.5352 23.2872 25.758 22.7003C26.0094 22.0173 26.146 21.2974 26.1623 20.5697C26.2044 19.635 26.2128 19.3319 26.2128 16.9487C26.2128 14.5655 26.2128 14.2624 26.1623 13.3192C26.146 12.5916 26.0094 11.8717 25.758 11.1887C25.5259 10.6141 25.1781 10.0933 24.7363 9.65872C24.2944 9.22413 23.768 8.885 23.1896 8.66238C22.5052 8.40457 21.7819 8.26503 21.0507 8.24974C20.1159 8.24974 19.8128 8.19922 17.4296 8.19922Z" fill="#E31C79"/>
<path d="M17.4297 12.4609C16.537 12.4609 15.6643 12.7257 14.922 13.2216C14.1798 13.7176 13.6012 14.4225 13.2596 15.2473C12.918 16.0721 12.8286 16.9796 13.0027 17.8552C13.1769 18.7308 13.6068 19.535 14.238 20.1663C14.8693 20.7975 15.6736 21.2274 16.5491 21.4016C17.4247 21.5757 18.3322 21.4864 19.157 21.1447C19.9818 20.8031 20.6867 20.2246 21.1827 19.4823C21.6787 18.74 21.9434 17.8673 21.9434 16.9746C21.9434 16.3819 21.8266 15.7949 21.5998 15.2473C21.373 14.6997 21.0405 14.2021 20.6214 13.783C20.2022 13.3638 19.7046 13.0314 19.157 12.8045C18.6094 12.5777 18.0225 12.4609 17.4297 12.4609ZM17.4297 19.8967C16.8497 19.8967 16.2828 19.7246 15.8007 19.4023C15.3186 19.0799 14.943 18.6217 14.7215 18.0857C14.4999 17.5497 14.4424 16.9601 14.5561 16.3914C14.6699 15.8227 14.9498 15.3005 15.3605 14.891C15.7712 14.4815 16.2942 14.2031 16.8632 14.091C17.4322 13.9788 18.0217 14.0381 18.557 14.2612C19.0924 14.4843 19.5495 14.8612 19.8704 15.3442C20.1914 15.8273 20.3619 16.3947 20.3602 16.9746C20.3602 17.3591 20.2844 17.7397 20.137 18.0948C19.9896 18.4499 19.7736 18.7724 19.5014 19.0439C19.2291 19.3153 18.906 19.5304 18.5505 19.6767C18.195 19.8231 17.8142 19.8978 17.4297 19.8967Z" fill="#E31C79"/>
<path d="M23.1731 12.3091C23.1715 12.5169 23.1083 12.7196 22.9916 12.8916C22.875 13.0636 22.71 13.1972 22.5175 13.2756C22.325 13.354 22.1136 13.3736 21.91 13.332C21.7064 13.2905 21.5196 13.1896 21.3732 13.042C21.2269 12.8945 21.1274 12.7069 21.0875 12.503C21.0475 12.299 21.0689 12.0878 21.1488 11.8959C21.2287 11.7041 21.3636 11.5402 21.5366 11.4249C21.7095 11.3096 21.9127 11.2481 22.1205 11.248C22.2594 11.248 22.397 11.2755 22.5252 11.329C22.6535 11.3824 22.7699 11.4607 22.8678 11.5593C22.9656 11.658 23.043 11.775 23.0954 11.9037C23.1478 12.0324 23.1742 12.1702 23.1731 12.3091Z" fill="#E31C79"/>
</svg>
