<svg width="35" height="34" viewBox="0 0 35 34" fill="none" xmlns="http://www.w3.org/2000/svg">
<path fill-rule="evenodd" clip-rule="evenodd" d="M17.4299 1.6323C13.354 1.6323 9.44494 3.25147 6.56281 6.13361C3.68067 9.01574 2.0615 12.9248 2.0615 17.0007C2.0615 21.0767 3.68067 24.9857 6.56281 27.8678C9.44494 30.75 13.354 32.3691 17.4299 32.3691C21.5059 32.3691 25.4149 30.75 28.297 27.8678C31.1792 24.9857 32.7983 21.0767 32.7983 17.0007C32.7983 12.9248 31.1792 9.01574 28.297 6.13361C25.4149 3.25147 21.5059 1.6323 17.4299 1.6323ZM5.66962 5.24042C8.78864 2.12139 13.019 0.369141 17.4299 0.369141C21.8409 0.369141 26.0712 2.12139 29.1902 5.24042C32.3092 8.35944 34.0615 12.5898 34.0615 17.0007C34.0615 21.4117 32.3092 25.642 29.1902 28.761C26.0712 31.88 21.8409 33.6323 17.4299 33.6323C13.019 33.6323 8.78864 31.88 5.66962 28.761C2.55059 25.642 0.79834 21.4117 0.79834 17.0007C0.79834 12.5898 2.55059 8.35944 5.66962 5.24042Z" fill="#E31C79"/>
<path d="M12.3012 18.4647C12.3545 18.4921 12.4135 18.5064 12.4734 18.5065C12.5333 18.5067 12.5924 18.4926 12.6458 18.4655C12.6992 18.4384 12.7454 18.399 12.7807 18.3505C12.8159 18.3021 12.8392 18.246 12.8485 18.1868C12.8991 18.0015 13.0169 17.5131 13.0759 17.3447C13.1158 17.2396 13.1219 17.1246 13.0932 17.0159C13.0645 16.9071 13.0025 16.8101 12.9159 16.7384C12.4192 16.1357 12.1615 15.3714 12.1917 14.591C12.1832 13.8886 12.3176 13.1918 12.5869 12.543C12.8561 11.8942 13.2545 11.307 13.7579 10.817C14.2612 10.327 14.859 9.94458 15.5148 9.69292C16.1707 9.44126 16.8708 9.32565 17.5728 9.35312C20.5117 9.35312 22.1285 11.1552 22.1285 13.5636C22.1285 16.7131 20.7306 19.3742 18.6591 19.3742C18.3941 19.3893 18.1292 19.3417 17.8862 19.2351C17.6431 19.1284 17.4287 18.9659 17.2604 18.7606C17.0921 18.5554 16.9747 18.3133 16.9178 18.054C16.8608 17.7948 16.866 17.5258 16.9327 17.2689C17.2612 15.8878 17.9012 14.3889 17.9012 13.3952C17.933 13.1846 17.9186 12.9695 17.8588 12.765C17.799 12.5605 17.6954 12.3715 17.5551 12.2112C17.4148 12.0508 17.2412 11.923 17.0465 11.8366C16.8517 11.7503 16.6405 11.7074 16.4275 11.711C15.257 11.711 14.3138 12.9152 14.3138 14.5405C14.3068 15.1346 14.4274 15.7233 14.6675 16.2668L13.2612 22.2289C13.0215 23.6024 13.0215 25.007 13.2612 26.3805C13.2652 26.4092 13.278 26.436 13.2977 26.4574C13.3174 26.4787 13.343 26.4936 13.3714 26.5C13.3997 26.5064 13.4293 26.504 13.4562 26.4932C13.4832 26.4824 13.5062 26.4636 13.5222 26.4394C14.3835 25.371 15.0505 24.1596 15.4928 22.8605C15.6275 22.3805 16.259 19.8626 16.259 19.8626C16.5555 20.2934 16.9551 20.6432 17.4213 20.88C17.8876 21.1169 18.4058 21.2332 18.9285 21.2184C22.4485 21.2184 24.8233 18.0184 24.8233 13.7321C24.8233 10.49 22.078 7.4668 17.9012 7.4668C12.7054 7.4668 10.0864 11.1889 10.0864 14.2963C10.0864 16.1657 10.777 17.8415 12.3012 18.4647Z" fill="#E31C79"/>
</svg>
