<svg width="35" height="34" viewBox="0 0 35 34" fill="none" xmlns="http://www.w3.org/2000/svg">
<path fill-rule="evenodd" clip-rule="evenodd" d="M17.4299 1.6323C13.354 1.6323 9.44494 3.25147 6.56281 6.13361C3.68067 9.01574 2.0615 12.9248 2.0615 17.0007C2.0615 21.0767 3.68067 24.9857 6.56281 27.8678C9.44494 30.75 13.354 32.3691 17.4299 32.3691C21.5059 32.3691 25.4149 30.75 28.297 27.8678C31.1792 24.9857 32.7983 21.0767 32.7983 17.0007C32.7983 12.9248 31.1792 9.01574 28.297 6.13361C25.4149 3.25147 21.5059 1.6323 17.4299 1.6323ZM5.66962 5.24042C8.78864 2.12139 13.019 0.369141 17.4299 0.369141C21.8409 0.369141 26.0712 2.12139 29.1902 5.24042C32.3092 8.35944 34.0615 12.5898 34.0615 17.0007C34.0615 21.4117 32.3092 25.642 29.1902 28.761C26.0712 31.88 21.8409 33.6323 17.4299 33.6323C13.019 33.6323 8.78864 31.88 5.66962 28.761C2.55059 25.642 0.79834 21.4117 0.79834 17.0007C0.79834 12.5898 2.55059 8.35944 5.66962 5.24042Z" fill="#E31C79"/>
<path d="M28.2265 11.4293C28.0974 10.9456 27.8432 10.5044 27.4895 10.1497C27.1357 9.79513 26.6949 9.5396 26.2111 9.40882C24.442 8.93165 17.3284 8.93164 17.3284 8.93164C17.3284 8.93164 10.2222 8.93165 8.44564 9.40882C7.9629 9.54006 7.52322 9.79584 7.17077 10.1505C6.81832 10.5052 6.5655 10.9462 6.43769 11.4293C5.80072 15.0699 5.80072 18.7933 6.43769 22.434C6.5655 22.9171 6.81832 23.3581 7.17077 23.7128C7.52322 24.0674 7.9629 24.3232 8.44564 24.4545C10.2222 24.9316 17.3284 24.9316 17.3284 24.9316C17.3284 24.9316 24.442 24.9316 26.2111 24.4545C26.6949 24.3237 27.1357 24.0682 27.4895 23.7136C27.8432 23.3589 28.0974 22.9177 28.2265 22.434C28.8536 18.7925 28.8536 15.0708 28.2265 11.4293Z" fill="#E31C79"/>
<path d="M15.2231 20.7212V13.9844L21.1179 17.3528L15.2231 20.7212Z" fill="white"/>
</svg>
