<svg width="35" height="34" viewBox="0 0 35 34" fill="none" xmlns="http://www.w3.org/2000/svg">
<path fill-rule="evenodd" clip-rule="evenodd" d="M17.4299 1.63031C8.9416 1.63031 2.06048 8.51143 2.06048 16.9997C2.06048 25.488 8.9416 32.3691 17.4299 32.3691C25.9182 32.3691 32.7993 25.488 32.7993 16.9997C32.7993 8.51143 25.9182 1.63031 17.4299 1.63031ZM0.799316 16.9997C0.799316 7.81491 8.24508 0.369141 17.4299 0.369141C26.6147 0.369141 34.0605 7.81491 34.0605 16.9997C34.0605 26.1845 26.6147 33.6303 17.4299 33.6303C8.24508 33.6303 0.799316 26.1845 0.799316 16.9997Z" fill="#E31C79"/>
<path d="M14.9915 26.6355H18.8844V16.8825H21.6421L21.9364 13.6119H18.9264V11.7538C18.9264 10.9887 19.0777 10.6776 19.826 10.6776H21.9364V7.31445H19.2375C16.3368 7.31445 15.0336 8.59243 15.0336 11.0391V13.6371H13.0073V16.9498H15.0336L14.9915 26.6355Z" fill="#E31C79"/>
</svg>
