<svg width="24" height="25" viewBox="0 0 24 25" fill="none" xmlns="http://www.w3.org/2000/svg">
<g clip-path="url(#clip0_10_1615)">
<path d="M8.3328 15.1372C8.15353 15.1558 8.01533 15.3171 8.02425 15.4973C8.03344 15.6776 8.18616 15.8084 8.36542 15.7896C8.54504 15.771 8.68324 15.6096 8.67396 15.4295C8.66523 15.2493 8.51251 15.1184 8.3328 15.1372Z" fill="white"/>
<path d="M14.9012 19.9975L14.478 16.7831C14.476 16.7682 14.4731 16.7536 14.4691 16.7393C14.2652 16.0045 13.5867 15.5472 12.8193 15.6272L10.9169 15.8257C10.785 15.8395 10.6633 15.7727 10.6065 15.6557C9.90052 14.1967 9.60918 12.6611 9.74043 11.092C9.8405 9.8955 10.1516 9.14313 10.1972 9.03861C10.2094 9.01831 10.2197 8.99658 10.2276 8.97355C10.272 8.84596 10.3857 8.75472 10.5176 8.74113L12.4202 8.54229C13.1877 8.46218 13.8136 7.86869 13.9423 7.09912C13.9433 7.09294 13.9442 7.08677 13.945 7.08053L14.2847 4.00592C14.4525 2.9675 13.634 2.08757 12.5976 2.19565L12.2167 2.23541C12.2164 2.23553 12.2161 2.23556 12.2158 2.2355L10.8557 2.37746C9.23372 2.54683 7.93692 3.77838 7.10536 5.93933C6.39302 7.79036 6.07057 10.2079 6.19748 12.7464C6.3274 15.3449 6.90988 17.7242 7.83755 19.4458C8.75587 21.1498 10.1589 22.4649 12.1253 22.2595L13.408 22.1258C14.4398 22.018 15.16 20.986 14.9012 19.9975ZM13.8361 16.9271L14.2589 20.1388C14.2608 20.1535 14.2638 20.1681 14.2678 20.1824C14.4336 20.7802 13.9983 21.4081 13.3753 21.4731L13.28 21.4831L12.2719 16.3403L12.8519 16.2798C13.3053 16.2324 13.707 16.4977 13.8361 16.9271ZM13.6417 3.94038C13.6407 3.94656 13.6397 3.95282 13.639 3.95896L13.2993 7.0324C13.2188 7.48995 12.8452 7.84191 12.3876 7.88967L11.8254 7.94844L12.5224 2.85952L12.6303 2.84826C13.2559 2.78296 13.746 3.3166 13.6417 3.94038ZM8.4131 19.1091C7.52869 17.4679 6.97264 15.1841 6.84738 12.6786C6.72493 10.2312 7.03145 7.91183 7.71032 6.14775C8.2199 4.82357 9.18492 3.20785 10.8882 3.03017L11.8608 2.92857L11.1638 8.01749L10.4852 8.0885C10.0996 8.12839 9.76505 8.38982 9.62509 8.7579C9.41854 9.15313 9.18221 10.1384 9.10339 10.946C8.9874 12.1346 9.05213 13.9707 10.0187 15.9684C10.1886 16.3195 10.5538 16.5196 10.9494 16.4784L11.6154 16.4088L12.6235 21.5516L12.0927 21.6069C10.2666 21.7976 9.08386 20.3539 8.4131 19.1091Z" fill="white"/>
<path d="M8.40155 14.1406C8.34879 13.6863 8.25556 12.9027 8.23942 12.4516C8.19922 11.3461 8.2433 10.0856 8.35155 9.24031C8.37473 9.05966 8.24909 8.90197 8.07083 8.88832C7.89265 8.87457 7.72942 9.00994 7.70624 9.19059C7.56969 10.2566 7.55623 11.6045 7.58916 12.5103C7.60611 12.9866 7.70004 13.777 7.75513 14.251C7.77587 14.4292 7.937 14.5496 8.11594 14.5192C8.29435 14.4888 8.4223 14.3192 8.40155 14.1406Z" fill="white"/>
</g>
<defs>
<clipPath id="clip0_10_1615">
<rect width="16.2714" height="17.1754" fill="white" transform="translate(11.2422 0.386719) rotate(40.5897)"/>
</clipPath>
</defs>
</svg>
