<svg width="32" height="32" viewBox="0 0 32 32" fill="none" xmlns="http://www.w3.org/2000/svg">
  <path
    d="M14.3403 6V7.26416C10.6835 9.43434 8.4277 12.183 7.5699 15.5164C8.49894 14.895 9.34189 14.5828 10.1017 14.5828C11.3662 14.5828 12.4347 15.1093 13.3074 16.1653C14.18 17.2182 14.6163 18.5069 14.6163 20.0343C14.6163 21.7208 14.0435 23.138 12.8977 24.2828C11.7491 25.4276 10.3392 26 8.66515 26C6.99111 26 5.59311 25.2715 4.46818 23.8145C3.34325 22.3575 2.7793 20.5455 2.7793 18.3783C2.7793 15.3235 3.91016 12.5901 6.17487 10.169C8.43957 7.7539 11.1614 6.36119 14.3403 6ZM28.7269 6V7.26416C25.0702 9.43434 22.8114 12.183 21.9566 15.5164C22.8856 14.895 23.7345 14.5828 24.5092 14.5828C25.7617 14.5828 26.8214 15.1093 27.694 16.1653C28.5637 17.2213 29 18.5099 29 20.0343C29 21.7208 28.4301 23.138 27.2903 24.2828C26.1535 25.4276 24.7466 26 23.0726 26C21.3867 26 19.9827 25.2715 18.8637 23.8145C17.7447 22.3575 17.1867 20.5455 17.1867 18.3783C17.1867 15.3235 18.3146 12.5901 20.5734 10.169C22.8292 7.7539 25.548 6.36119 28.7269 6Z"
    stroke="#E31C79" stroke-width="1.5" stroke-miterlimit="10" />
</svg>
