<svg width="72" height="72" viewBox="0 0 72 72" fill="none" xmlns="http://www.w3.org/2000/svg">
<circle cx="36" cy="36" r="35.5" stroke="#CCCCCC"/>
<path d="M46.6668 48V45.3333C46.6668 43.9188 46.1049 42.5623 45.1047 41.5621C44.1045 40.5619 42.748 40 41.3335 40H30.6668C29.2523 40 27.8958 40.5619 26.8956 41.5621C25.8954 42.5623 25.3335 43.9188 25.3335 45.3333V48" stroke="#191919" stroke-width="1.5" stroke-linecap="round" stroke-linejoin="round"/>
<path d="M35.9998 34.6667C38.9454 34.6667 41.3332 32.2789 41.3332 29.3333C41.3332 26.3878 38.9454 24 35.9998 24C33.0543 24 30.6665 26.3878 30.6665 29.3333C30.6665 32.2789 33.0543 34.6667 35.9998 34.6667Z" stroke="#191919" stroke-width="1.5" stroke-linecap="round" stroke-linejoin="round"/>
</svg>
