<svg width="72" height="72" viewBox="0 0 72 72" fill="none" xmlns="http://www.w3.org/2000/svg">
<circle cx="36" cy="36" r="35.5" stroke="#CCCCCC"/>
<path d="M46.6666 48V45.3333C46.6666 43.9188 46.1047 42.5623 45.1045 41.5621C44.1043 40.5619 42.7477 40 41.3333 40H30.6666C29.2521 40 27.8955 40.5619 26.8953 41.5621C25.8952 42.5623 25.3333 43.9188 25.3333 45.3333V48" stroke="#191919" stroke-width="1.5" stroke-linecap="round" stroke-linejoin="round"/>
<path d="M36.0001 34.6667C38.9456 34.6667 41.3334 32.2789 41.3334 29.3333C41.3334 26.3878 38.9456 24 36.0001 24C33.0546 24 30.6667 26.3878 30.6667 29.3333C30.6667 32.2789 33.0546 34.6667 36.0001 34.6667Z" stroke="#191919" stroke-width="1.5" stroke-linecap="round" stroke-linejoin="round"/>
</svg>
