<svg width="40" height="40" viewBox="0 0 40 40" fill="none" xmlns="http://www.w3.org/2000/svg">
  <path fill-rule="evenodd" clip-rule="evenodd" d="M9.99768 15.4184C10.1616 17.2878 10.8678 19.0687 12.0297 20.5424C14.1563 23.7253 17.0737 26.3008 20.4957 28.0164C21.418 28.4131 22.3607 28.7609 23.3197 29.0584C24.3305 29.3676 25.3997 29.4361 26.4417 29.2584C27.1312 29.1176 27.7842 28.8359 28.3596 28.4308C28.9351 28.0257 29.4206 27.506 29.7857 26.9044C30.1093 26.1639 30.2094 25.345 30.0737 24.5484C29.9745 24.3836 29.7422 24.2713 29.4004 24.106C29.3149 24.0647 29.2225 24.02 29.1237 23.9704C28.6297 23.7224 26.1937 22.5224 25.7397 22.3584C25.2857 22.1944 24.9537 22.1104 24.6237 22.6064C24.2937 23.1024 23.3437 24.2244 23.0557 24.5484C22.7677 24.8724 22.4777 24.9204 21.9817 24.6724C20.5212 24.0903 19.1731 23.2586 17.9977 22.2144C16.9106 21.2141 15.9778 20.0582 15.2297 18.7844C14.9417 18.2884 15.2257 17.9924 15.4477 17.7724C15.5944 17.627 15.7638 17.4214 15.9334 17.2155C16.0204 17.1098 16.1076 17.0041 16.1917 16.9064C16.395 16.6554 16.5613 16.3765 16.6857 16.0784C16.7519 15.9422 16.783 15.7916 16.776 15.6403C16.769 15.489 16.7242 15.3419 16.6457 15.2124C16.5587 15.044 16.0705 13.8533 15.6402 12.804C15.437 12.3084 15.2466 11.8443 15.1177 11.5344C14.7644 10.6856 14.3957 10.6861 14.1147 10.6865C14.076 10.6865 14.0388 10.6866 14.0037 10.6844C13.7137 10.6664 13.3837 10.6664 13.0537 10.6664C12.8025 10.673 12.5554 10.7315 12.3279 10.8382C12.1003 10.9449 11.8974 11.0975 11.7317 11.2864C11.1715 11.8169 10.728 12.4583 10.4295 13.1698C10.1309 13.8812 9.98386 14.647 9.99768 15.4184ZM6.11568 28.5884C4.46573 25.9619 3.59276 22.9221 3.59768 19.8204C3.59926 16.5613 4.56714 13.3759 6.37895 10.6668C8.19075 7.95771 10.7651 5.84667 13.7766 4.60057C16.7881 3.35446 20.1014 3.02924 23.2977 3.66603C26.4939 4.30282 29.4297 5.87302 31.7336 8.17811C34.0376 10.4832 35.6064 13.4197 36.2416 16.6163C36.8768 19.8128 36.55 23.126 35.3024 26.1369C34.0549 29.1477 31.9426 31.7211 29.2326 33.5316C26.5227 35.3421 23.3368 36.3084 20.0777 36.3084C17.1263 36.3096 14.229 35.5165 11.6897 34.0124L11.0897 33.6564L4.85168 35.2924L6.51568 29.2124L6.11568 28.5884Z" fill="#25D366"/>
  <g clip-path="url(#clip0_7516_9764)">
  <path d="M12.0299 20.542C10.8681 19.0683 10.1618 17.2875 9.99789 15.418C9.98407 14.6466 10.1311 13.8808 10.4297 13.1694C10.7282 12.458 11.1717 11.8166 11.7319 11.286C11.8976 11.0971 12.1006 10.9445 12.3281 10.8378C12.5556 10.7311 12.8027 10.6726 13.0539 10.666C13.3839 10.666 13.7139 10.666 14.0039 10.684C14.2939 10.702 14.7159 10.568 15.1179 11.534C15.5199 12.5 16.5179 14.964 16.6459 15.212C16.7244 15.3415 16.7692 15.4887 16.7762 15.6399C16.7832 15.7912 16.7521 15.9418 16.6859 16.078C16.5615 16.3762 16.3952 16.655 16.1919 16.906C15.9439 17.194 15.6699 17.552 15.4479 17.772C15.2259 17.992 14.9419 18.288 15.2299 18.784C15.978 20.0579 16.9108 21.2138 17.9979 22.214C19.1733 23.2582 20.5214 24.0899 21.9819 24.672C22.4779 24.92 22.7679 24.872 23.0559 24.548C23.3439 24.224 24.2939 23.102 24.6239 22.606C24.9539 22.11 25.2859 22.194 25.7399 22.358C26.1939 22.522 28.6299 23.722 29.1239 23.97C29.6179 24.218 29.9499 24.342 30.0739 24.548C30.2097 25.3446 30.1096 26.1636 29.7859 26.904C29.4208 27.5057 28.9353 28.0253 28.3599 28.4304C27.7844 28.8355 27.1314 29.1173 26.4419 29.258C25.3999 29.4357 24.3307 29.3672 23.3199 29.058C22.3609 28.7606 21.4183 28.4128 20.4959 28.016C17.0739 26.3005 14.1565 23.7249 12.0299 20.542ZM0.0878906 40L2.89989 29.728C0.720958 25.9469 -0.14968 21.5525 0.422961 17.2262C0.995602 12.8999 2.97953 8.88341 6.06716 5.79937C9.15479 2.71533 13.1736 0.736069 17.5006 0.168459C21.8275 -0.399151 26.2209 0.476597 29.9995 2.65992C33.7781 4.84325 36.7308 8.21219 38.4 12.2444C40.0691 16.2766 40.3613 20.7469 39.2313 24.9621C38.1013 29.1773 35.6123 32.9019 32.1501 35.5586C28.6879 38.2153 24.4459 39.6555 20.0819 39.656C16.7687 39.6567 13.5082 38.8275 10.5979 37.244L0.0878906 40ZM3.59789 19.82C3.59298 22.9218 4.46595 25.9616 6.11589 28.588L6.51589 29.212L4.85189 35.292L11.0899 33.656L11.6899 34.012C14.2292 35.5161 17.1265 36.3092 20.0779 36.308C23.337 36.308 26.5229 35.3417 29.2329 33.5312C31.9428 31.7207 34.0551 29.1474 35.3027 26.1365C36.5502 23.1256 36.877 19.8125 36.2418 16.6159C35.6066 13.4193 34.0378 10.4828 31.7338 8.17774C29.4299 5.87265 26.4942 4.30245 23.2979 3.66566C20.1016 3.02888 16.7883 3.35409 13.7768 4.6002C10.7653 5.8463 8.19097 7.95734 6.37916 10.6664C4.56735 13.3755 3.59947 16.5609 3.59789 19.82Z" fill="white"/>
  </g>
  <defs>
  <clipPath id="clip0_7516_9764">
  <rect width="40" height="40" fill="white"/>
  </clipPath>
  </defs>
  </svg>
