<svg width="40" height="40" viewBox="0 0 40 40" fill="none" xmlns="http://www.w3.org/2000/svg">
<path d="M17.9253 7.5V9.08019C13.3544 11.7929 10.5346 15.2288 9.46238 19.3955C10.6237 18.6188 11.6774 18.2285 12.6272 18.2285C14.2077 18.2285 15.5434 18.8866 16.6342 20.2066C17.725 21.5228 18.2704 23.1336 18.2704 25.0429C18.2704 27.1511 17.5543 28.9226 16.1222 30.3535C14.6863 31.7845 12.924 32.5 10.8314 32.5C8.73889 32.5 6.99139 31.5894 5.58522 29.7681C4.17906 27.9469 3.47412 25.6818 3.47412 22.9729C3.47412 19.1544 4.8877 15.7377 7.71859 12.7112C10.5495 9.69238 13.9517 7.95148 17.9253 7.5ZM35.9087 7.5V9.08019C31.3377 11.7929 28.5142 15.2288 27.4457 19.3955C28.607 18.6188 29.6681 18.2285 30.6365 18.2285C32.2022 18.2285 33.5267 18.8866 34.6175 20.2066C35.7046 21.5266 36.25 23.1374 36.25 25.0429C36.25 27.1511 35.5376 28.9226 34.1129 30.3535C32.6919 31.7845 30.9333 32.5 28.8407 32.5C26.7333 32.5 24.9784 31.5894 23.5797 29.7681C22.1809 27.9469 21.4834 25.6818 21.4834 22.9729C21.4834 19.1544 22.8933 15.7377 25.7168 12.7112C28.5365 9.69238 31.935 7.95148 35.9087 7.5Z" stroke="#E31C79" stroke-width="1.5" stroke-miterlimit="10"/>
</svg>
