<svg width="57" height="52" viewBox="0 0 57 52" fill="none" xmlns="http://www.w3.org/2000/svg">
<path d="M53.6741 0.84375H3.32592C1.49191 0.84375 0 2.3097 0 4.11132V34.7639C0 36.5654 1.49191 38.0312 3.32592 38.0312H26.77C27.7638 42.1623 30.0112 45.0881 31.9754 46.9625C34.8423 49.6989 38.1287 51.1561 39.3988 51.1561C40.6689 51.1561 43.9553 49.699 46.8223 46.9627C48.7865 45.0881 51.0339 42.1623 52.0277 38.0313H53.6741C55.508 38.0313 57 36.5655 57 34.764V4.11132C57 2.3097 55.508 0.84375 53.6741 0.84375ZM50.3202 33.5488C50.3203 39.3116 47.6127 43.1341 45.3412 45.3261C42.6467 47.9262 39.8828 48.9376 39.3988 48.9684C38.9148 48.9376 36.1507 47.9264 33.4563 45.3261C31.185 43.1341 28.4773 39.3116 28.4773 33.5488V28.1625C32.3104 27.0735 35.8969 25.583 39.3992 23.6244C42.8225 25.5333 46.5698 27.09 50.3202 28.1619V33.5488ZM54.7734 34.7639C54.7734 35.3593 54.2802 35.8437 53.6741 35.8437H52.4149C52.5001 35.1108 52.5469 34.3465 52.5469 33.5488V27.3333C52.5469 26.8395 52.2102 26.4072 51.7254 26.2778C47.6828 25.1992 43.6147 23.5186 39.9612 21.4176C39.6138 21.2179 39.1839 21.2181 38.8363 21.4178C35.0792 23.5784 31.2312 25.168 27.0723 26.2778C26.5874 26.4073 26.2508 26.8396 26.2508 27.3333V33.5488C26.2508 34.3465 26.2974 35.1108 26.3828 35.8437H3.32592C2.71974 35.8437 2.22656 35.3592 2.22656 34.7639V16.156H54.7734V34.7639ZM54.7734 13.9686H2.22656V9.59385H54.7734V13.9686ZM54.7734 7.40624H2.22656V4.11132C2.22656 3.51578 2.71974 3.03125 3.32592 3.03125H53.6741C54.2802 3.03125 54.7734 3.51578 54.7734 4.11132V7.40624Z" fill="#40D6C6"/>
</svg>
