<svg width="14" height="14" viewBox="0 0 14 14" fill="none" xmlns="http://www.w3.org/2000/svg">
  <g clip-path="url(#clip0_300_19538)">
  <path d="M6.35688 10.673C6.25018 10.7796 6.25018 10.9527 6.35688 11.0595C6.4638 11.1662 6.63684 11.1662 6.74343 11.0595C6.85035 10.9527 6.85035 10.7796 6.74343 10.673C6.63684 10.566 6.4638 10.566 6.35688 10.673Z" fill="black"/>
  <path d="M13.3698 10.198L11.2938 8.43277C11.2842 8.42465 11.2741 8.41718 11.2635 8.41045C10.7188 8.06374 10.0195 8.14054 9.56293 8.59705L8.43105 9.72882C8.35265 9.80733 8.23569 9.83051 8.13315 9.78821C6.85505 9.25949 5.80509 8.46353 5.01244 7.42266C4.40799 6.62894 4.1901 5.99822 4.16137 5.90935C4.15795 5.89034 4.1525 5.87143 4.14481 5.85295C4.10241 5.75041 4.12558 5.63367 4.2042 5.55527L5.33597 4.42317C5.79259 3.96656 5.86928 3.26726 5.52257 2.72263C5.51979 2.71825 5.51691 2.71398 5.51392 2.7097L4.01471 0.626346C3.54303 -0.105419 2.51561 -0.215969 1.89899 0.400547L1.67234 0.627201C1.67223 0.627414 1.67202 0.627628 1.6718 0.627735L0.862599 1.43694C-0.102336 2.40198 -0.260203 3.85205 0.406194 5.63068C0.976994 7.15424 2.11966 8.82167 3.62368 10.3257C5.16326 11.8653 6.87577 13.0291 8.44568 13.6028C9.99958 14.1705 11.6525 14.2404 12.8224 13.0704L13.5856 12.3074C14.1994 11.6934 14.0923 10.6727 13.3698 10.198ZM10.955 8.86237L13.0292 10.6261C13.0387 10.6343 13.0488 10.6417 13.0594 10.6485C13.5025 10.9306 13.5695 11.5501 13.1988 11.9207L13.1422 11.9774L9.60448 9.32871L9.94959 8.98371C10.2193 8.7139 10.6303 8.66509 10.955 8.86237ZM3.55788 0.926807C3.56066 0.931186 3.56354 0.935565 3.56653 0.939731L5.0651 3.02234C5.26868 3.34822 5.22158 3.76425 4.94931 4.03652L4.61489 4.37105L2.22146 0.851398L2.28565 0.787204C2.65789 0.414966 3.27686 0.485355 3.55788 0.926807ZM8.63324 13.0891C7.1366 12.5422 5.4948 11.4235 4.01033 9.93903C2.56026 8.48906 1.46213 6.89084 0.918141 5.43885C0.509801 4.34894 0.235829 2.83702 1.24926 1.8237L1.82785 1.245L4.22129 4.76465L3.81765 5.16851C3.588 5.39772 3.5158 5.73696 3.63041 6.03902C3.71671 6.39321 4.11383 7.12839 4.51448 7.67014C5.10408 8.46738 6.17423 9.56957 7.92412 10.2935C8.23163 10.4207 8.58229 10.3509 8.81771 10.1156L9.21387 9.71932L12.7516 12.368L12.4357 12.6838C11.3494 13.7702 9.76833 13.5039 8.63324 13.0891Z" fill="black"/>
  <path d="M5.84391 10.02C5.55509 9.76674 5.05553 9.33116 4.79246 9.0605C4.14732 8.39753 3.47045 7.59388 3.06799 7.01325C2.982 6.88914 2.81164 6.85816 2.68752 6.94425C2.56341 7.03024 2.53254 7.2006 2.61852 7.32471C3.12609 8.05701 3.87185 8.89847 4.40046 9.44171C4.67817 9.72754 5.182 10.167 5.48331 10.4311C5.59664 10.5304 5.76936 10.5195 5.86922 10.4058C5.96877 10.2924 5.95745 10.1195 5.84391 10.02Z" fill="black"/>
  </g>
  <defs>
  <clipPath id="clip0_300_19538">
  <rect width="14" height="14" fill="white"/>
  </clipPath>
  </defs>
  </svg>
