<svg width="79" height="43" viewBox="0 0 79 43" fill="none" xmlns="http://www.w3.org/2000/svg">
  <path
    d="M75.5253 10.1107C73.3919 7.85807 70.3535 6.6136 66.9756 6.6136H58.8461V2.32882C58.8461 1.28913 57.9733 0.438477 56.9066 0.438477H18.1824C17.1157 0.438477 16.243 1.28913 16.243 2.32882V8.91351H8.6953C7.62861 8.91351 6.75586 9.76417 6.75586 10.8039C6.75586 11.8435 7.62861 12.6942 8.6953 12.6942H18.1339C18.1501 12.6942 18.1663 12.6942 18.1824 12.6942C18.1824 12.6942 18.1824 12.6942 18.1986 12.6942C19.2653 12.6942 20.138 11.8435 20.138 10.8039V4.21916H54.9834V8.50394V33.8503H36.7203C36.6395 33.8503 36.5586 33.8503 36.4778 33.866C35.5081 31.5346 33.1646 29.8806 30.4332 29.8806C27.6857 29.8806 25.3422 31.5504 24.3886 33.8975C24.2432 33.866 24.1139 33.8503 23.9684 33.8503H20.138V27.2498C20.138 26.2101 19.2653 25.3595 18.1986 25.3595C18.1663 25.3595 18.1339 25.3595 18.1016 25.3595C18.0693 25.3595 18.0531 25.3595 18.0208 25.3595H8.6953C7.62861 25.3595 6.75586 26.2101 6.75586 27.2498C6.75586 28.2895 7.62861 29.1402 8.6953 29.1402H16.243V35.7249C16.243 36.7646 17.1157 37.6152 18.1824 37.6152H23.9523C24.0007 37.6152 24.0331 37.6152 24.0816 37.6152C24.728 40.4507 27.3301 42.5616 30.4332 42.5616C33.5363 42.5616 36.1223 40.4507 36.7849 37.6152H56.9228H60.0259C60.6886 40.435 63.2745 42.5616 66.3776 42.5616C69.4807 42.5616 72.0666 40.4507 72.7293 37.6152H77.0607C78.1274 37.6152 79.0001 36.7646 79.0001 35.7249V20.0193C79.0001 15.9393 77.788 12.5052 75.5253 10.1107ZM30.4332 38.7967C28.9787 38.7967 27.7988 37.6467 27.7988 36.229C27.7988 34.8112 28.9787 33.6612 30.4332 33.6612C31.8878 33.6612 33.0676 34.8112 33.0676 36.229C33.0676 37.6467 31.8878 38.7967 30.4332 38.7967ZM66.3776 38.7967C64.923 38.7967 63.7432 37.6467 63.7432 36.229C63.7432 34.8112 64.923 33.6612 66.3776 33.6612C67.8322 33.6612 69.012 34.8112 69.012 36.229C68.9958 37.6467 67.816 38.7967 66.3776 38.7967ZM75.1213 33.8503H72.406C71.4363 31.5346 69.0928 29.8806 66.3776 29.8806C63.6624 29.8806 61.3189 31.5189 60.3492 33.8503H58.8623V10.3943H66.9918C72.0828 10.3943 75.1213 14.0017 75.1213 20.035V33.8503Z"
    fill="#40D6C6" />
  <path
    d="M33.3099 22.5712C32.5503 23.3115 32.5503 24.5088 33.3099 25.2491C33.6817 25.6115 34.1827 25.8005 34.6837 25.8005C35.1847 25.8005 35.6696 25.6115 36.0575 25.2491L41.0516 20.3815L41.0677 20.3657C41.1 20.3185 41.1485 20.287 41.1809 20.2397C41.197 20.2082 41.2132 20.1925 41.2293 20.161C41.2455 20.1295 41.2617 20.1137 41.294 20.0822C41.3101 20.0507 41.3263 20.0192 41.3425 19.9877C41.3586 19.9562 41.3748 19.9404 41.391 19.9089C41.4071 19.8774 41.4233 19.8459 41.4394 19.8144C41.4556 19.7829 41.4718 19.7671 41.4718 19.7356C41.4879 19.7041 41.4879 19.6726 41.5041 19.6411C41.5202 19.6096 41.5203 19.5781 41.5364 19.5624C41.5526 19.5308 41.5526 19.4993 41.5526 19.4678C41.5526 19.4363 41.5687 19.4048 41.5687 19.3733C41.5687 19.3418 41.5849 19.3103 41.5849 19.263C41.5849 19.2315 41.6011 19.2158 41.6011 19.1843C41.6172 19.0583 41.6172 18.9322 41.6011 18.8062C41.6011 18.7747 41.6011 18.759 41.5849 18.7275C41.5849 18.6959 41.5687 18.6644 41.5687 18.6172C41.5687 18.5857 41.5526 18.5542 41.5526 18.5227C41.5526 18.4912 41.5364 18.4597 41.5364 18.4281C41.5203 18.3966 41.5202 18.3651 41.5041 18.3494C41.4879 18.3179 41.4879 18.2864 41.4718 18.2549C41.4556 18.2234 41.4394 18.2076 41.4394 18.1761C41.4233 18.1446 41.4071 18.1131 41.391 18.0816C41.3748 18.0501 41.3586 18.0343 41.3425 18.0028C41.3263 17.9713 41.3101 17.9398 41.294 17.9083C41.2778 17.8768 41.2617 17.861 41.2293 17.8295C41.2132 17.798 41.197 17.7823 41.1809 17.7508C41.1485 17.7035 41.1 17.672 41.0677 17.6248L41.0516 17.609L36.2999 12.9777C35.5403 12.2373 34.312 12.2373 33.5524 12.9777C32.7928 13.718 32.7928 14.9153 33.5524 15.6556L34.9908 17.0576H1.93944C0.87275 17.0576 0 17.9083 0 18.948C0 19.9877 0.87275 20.8383 1.93944 20.8383H34.9746L33.3099 22.5712Z"
    fill="#40D6C6" />
</svg>
