<svg width="32" height="28" viewBox="0 0 32 28" fill="none" xmlns="http://www.w3.org/2000/svg">
  <path fill-rule="evenodd" clip-rule="evenodd"
    d="M27.8841 1.35187L31.2413 6.87794C32.9794 9.73699 31.4379 13.7055 28.1893 14.1536C27.9566 14.1856 27.7238 14.2016 27.4806 14.2016C25.9547 14.2016 24.5994 13.5082 23.6631 12.436C22.732 13.5082 21.3766 14.2016 19.8455 14.2016C18.3195 14.2016 16.959 13.5082 16.0279 12.436C15.0968 13.5082 13.7415 14.2016 12.2104 14.2016C10.6843 14.2016 9.32388 13.5082 8.39276 12.436C7.46164 13.5082 6.10627 14.2016 4.57514 14.2016C4.33715 14.2016 4.09926 14.1856 3.86645 14.1536C0.628207 13.7002 -0.90811 9.73166 0.824825 6.87794L4.18201 1.35187C4.48202 0.855799 5.01483 0.551758 5.58383 0.551758H26.4823C27.0513 0.551758 27.5841 0.855799 27.8841 1.35187ZM25.965 15.7111C26.4616 15.8338 26.9738 15.9138 27.491 15.9138C27.8066 15.9138 28.1169 15.8925 28.4325 15.8498C28.7221 15.8125 29.0015 15.7431 29.2808 15.6578V26.1552C29.2808 27.0993 28.5411 27.8621 27.6255 27.8621H4.45101C3.53534 27.8621 2.79564 27.0993 2.79564 26.1552V15.6578C3.06983 15.7378 3.35428 15.8071 3.64402 15.8498C3.94921 15.8925 4.26477 15.9138 4.57514 15.9138C5.0924 15.9138 5.60457 15.8285 6.10109 15.7111V21.0345H25.965V15.7111Z"
    fill="black" />
</svg>
