<svg width="14" height="14" viewBox="0 0 14 14" fill="none" xmlns="http://www.w3.org/2000/svg">
  <g clip-path="url(#clip0_135_227)">
    <path
      d="M6.35688 10.673C6.25018 10.7796 6.25018 10.9527 6.35688 11.0595C6.4638 11.1662 6.63684 11.1662 6.74343 11.0595C6.85035 10.9527 6.85035 10.7796 6.74343 10.673C6.63684 10.566 6.4638 10.566 6.35688 10.673Z"
      fill="white" />
    <path
      d="M13.3698 10.1979L11.2938 8.43265C11.2842 8.42453 11.2741 8.41706 11.2635 8.41033C10.7188 8.06362 10.0195 8.14041 9.56293 8.59693L8.43105 9.7287C8.35265 9.80721 8.23569 9.83038 8.13315 9.78809C6.85505 9.25937 5.80509 8.46341 5.01244 7.42253C4.40799 6.62882 4.1901 5.9981 4.16137 5.90923C4.15795 5.89022 4.1525 5.87131 4.14481 5.85283C4.10241 5.75029 4.12558 5.63355 4.2042 5.55515L5.33597 4.42305C5.79259 3.96643 5.86928 3.26714 5.52257 2.72251C5.51979 2.71813 5.51691 2.71386 5.51392 2.70958L4.01471 0.626224C3.54303 -0.105541 2.51561 -0.216091 1.89899 0.400425L1.67234 0.627079C1.67223 0.627292 1.67202 0.627506 1.6718 0.627613L0.862599 1.43682C-0.102336 2.40186 -0.260203 3.85193 0.406194 5.63056C0.976994 7.15412 2.11966 8.82155 3.62368 10.3256C5.16326 11.8651 6.87577 13.029 8.44568 13.6026C9.99958 14.1703 11.6525 14.2403 12.8224 13.0703L13.5856 12.3072C14.1994 11.6933 14.0923 10.6726 13.3698 10.1979ZM10.955 8.86225L13.0292 10.626C13.0387 10.6341 13.0488 10.6416 13.0594 10.6483C13.5025 10.9304 13.5695 11.5499 13.1988 11.9206L13.1422 11.9773L9.60448 9.32858L9.94959 8.98358C10.2193 8.71378 10.6303 8.66496 10.955 8.86225ZM3.55788 0.926685C3.56066 0.931064 3.56354 0.935443 3.56653 0.939609L5.0651 3.02222C5.26868 3.3481 5.22158 3.76413 4.94931 4.0364L4.61489 4.37093L2.22146 0.851276L2.28565 0.787082C2.65789 0.414844 3.27686 0.485233 3.55788 0.926685ZM8.63324 13.089C7.1366 12.5421 5.4948 11.4234 4.01033 9.9389C2.56026 8.48894 1.46213 6.89072 0.918141 5.43872C0.509801 4.34882 0.235829 2.8369 1.24926 1.82358L1.82785 1.24488L4.22129 4.76453L3.81765 5.16838C3.588 5.3976 3.5158 5.73683 3.63041 6.0389C3.71671 6.39308 4.11383 7.12827 4.51448 7.67002C5.10408 8.46726 6.17423 9.56944 7.92412 10.2934C8.23163 10.4206 8.58229 10.3508 8.81771 10.1155L9.21387 9.71919L12.7516 12.3679L12.4357 12.6836C11.3494 13.7701 9.76833 13.5037 8.63324 13.089Z"
      fill="white" />
    <path
      d="M5.84391 10.0201C5.55509 9.76686 5.05553 9.33129 4.79246 9.06063C4.14732 8.39765 3.47045 7.594 3.06799 7.01337C2.982 6.88926 2.81164 6.85828 2.68752 6.94437C2.56341 7.03036 2.53254 7.20072 2.61852 7.32484C3.12609 8.05713 3.87185 8.89859 4.40046 9.44184C4.67817 9.72766 5.182 10.1671 5.48331 10.4312C5.59664 10.5306 5.76936 10.5197 5.86922 10.4059C5.96877 10.2925 5.95745 10.1197 5.84391 10.0201Z"
      fill="white" />
  </g>
  <defs>
    <clipPath id="clip0_135_227">
      <rect width="14" height="14" fill="white" />
    </clipPath>
  </defs>
</svg>
