<svg width="27" height="20" viewBox="0 0 27 20" fill="none" xmlns="http://www.w3.org/2000/svg">
  <path fill-rule="evenodd" clip-rule="evenodd" d="M0 1.26985C0 0.568529 0.38632 0 0.862869 0H25.8039C26.2805 0 26.6668 0.568529 26.6668 1.26985C26.6668 1.97116 26.2805 2.53969 25.8039 2.53969H0.862869C0.38632 2.53969 0 1.97116 0 1.26985Z" fill="black"/>
  <path fill-rule="evenodd" clip-rule="evenodd" d="M0 10.0003C0 9.299 0.38632 8.73047 0.862869 8.73047H25.8039C26.2805 8.73047 26.6668 9.299 26.6668 10.0003C26.6668 10.7016 26.2805 11.2702 25.8039 11.2702H0.862869C0.38632 11.2702 0 10.7016 0 10.0003Z" fill="black"/>
  <path fill-rule="evenodd" clip-rule="evenodd" d="M0 18.7298C0 18.0285 0.38632 17.46 0.862869 17.46H25.8039C26.2805 17.46 26.6668 18.0285 26.6668 18.7298C26.6668 19.4311 26.2805 19.9997 25.8039 19.9997H0.862869C0.38632 19.9997 0 19.4311 0 18.7298Z" fill="black"/>
  </svg>
