<svg width="31" height="19" viewBox="0 0 31 19" fill="none" xmlns="http://www.w3.org/2000/svg">
<g id="Group">
<path id="Vector" fill-rule="evenodd" clip-rule="evenodd" d="M0 1.46032C0 0.653806 0.444266 0 0.992296 0H29.6744C30.2224 0 30.6667 0.653806 30.6667 1.46032C30.6667 2.26683 30.2224 2.92063 29.6744 2.92063H0.992296C0.444266 2.92063 0 2.26683 0 1.46032Z" fill="#060606"/>
<path id="Vector_2" fill-rule="evenodd" clip-rule="evenodd" d="M0 9.49993C0 8.69342 0.444266 8.03961 0.992296 8.03961H29.6744C30.2224 8.03961 30.6667 8.69342 30.6667 9.49993C30.6667 10.3064 30.2224 10.9602 29.6744 10.9602H0.992296C0.444266 10.9602 0 10.3064 0 9.49993Z" fill="#060606"/>
<path id="Vector_3" fill-rule="evenodd" clip-rule="evenodd" d="M0 17.5397C0 16.7332 0.444266 16.0793 0.992296 16.0793H29.6744C30.2224 16.0793 30.6667 16.7332 30.6667 17.5397C30.6667 18.3462 30.2224 19 29.6744 19H0.992296C0.444266 19 0 18.3462 0 17.5397Z" fill="#060606"/>
</g>
</svg>
