<svg width="24" height="23" viewBox="0 0 24 23" fill="none" xmlns="http://www.w3.org/2000/svg">
<g id="Group">
<path id="Vector" fill-rule="evenodd" clip-rule="evenodd" d="M21.3268 18.8276C20.8686 18.8276 20.4867 18.9817 20.1049 19.3668C19.7994 19.6749 19.5703 20.1371 19.5703 20.5993C19.5703 21.0615 19.723 21.4466 20.1049 21.8317C20.4104 22.1398 20.8686 22.3709 21.3268 22.3709C21.785 22.3709 22.1669 22.2169 22.5487 21.8317C22.8542 21.5236 23.0833 21.0615 23.0833 20.5993C23.0833 20.1371 22.9306 19.752 22.5487 19.3668C22.1669 18.9817 21.785 18.8276 21.3268 18.8276V18.8276Z" fill="#40D6C6"/>
<path id="Vector_2" fill-rule="evenodd" clip-rule="evenodd" d="M10.3288 18.8276C9.87054 18.8276 9.48868 18.9817 9.10684 19.3668C8.80137 19.6749 8.57227 20.1371 8.57227 20.5993C8.57227 21.0615 8.725 21.4466 9.10684 21.8317C9.41232 22.1398 9.87054 22.3709 10.3288 22.3709C10.787 22.3709 11.1688 22.2169 11.5507 21.8317C11.8561 21.5236 12.0852 21.0615 12.0852 20.5993C12.0852 20.1371 11.9325 19.752 11.5507 19.3668C11.1688 18.9817 10.787 18.8276 10.3288 18.8276Z" fill="#40D6C6"/>
<path id="Vector_3" fill-rule="evenodd" clip-rule="evenodd" d="M23.9994 4.19247H6.89271C6.89271 4.11544 6.35814 2.03568 6.35814 1.88162C6.35814 1.72756 6.28176 1.57351 6.28176 1.49648C6.28176 1.41945 6.20538 1.26539 6.20538 1.11134C6.12901 0.957281 6.05269 0.880258 5.97632 0.80323L5.74718 0.572145C5.59445 0.495117 5.51811 0.495117 5.36537 0.495117H0.0195312V2.18973H4.67803L7.73281 15.2845L8.42006 17.9805H23.5411V16.2859H10.0239L9.56559 14.5142L23.2357 12.8196C23.4648 12.8196 23.6175 12.6656 23.7702 12.5115C23.923 12.3574 23.9994 12.1264 23.9994 11.9723V4.19247V4.19247Z" fill="#40D6C6"/>
</g>
</svg>
