<svg width="41" height="42" viewBox="0 0 41 42" fill="none" xmlns="http://www.w3.org/2000/svg">
<g opacity="0.7">
<path d="M32.5949 31.5998C32.2314 31.3416 31.7325 31.4345 31.4806 31.8068C31.2366 32.1677 30.96 32.5187 30.6582 32.85C30.456 33.0722 30.1778 33.3401 29.8751 33.6039C29.5383 33.8976 29.4976 34.4153 29.7842 34.7604C29.9426 34.951 30.1678 35.049 30.3945 35.049C30.5779 35.049 30.7623 34.9847 30.9131 34.8533C31.2663 34.5454 31.5833 34.2396 31.8295 33.9688C32.1836 33.5801 32.5092 33.1671 32.7971 32.7412C33.049 32.3689 32.9585 31.8578 32.5949 31.5998Z" fill="black"/>
<path d="M29.1063 35.2783C28.9184 34.8681 28.4418 34.6916 28.0413 34.884L28.0162 34.8955C27.6116 35.0784 27.4284 35.5627 27.607 35.9772C27.7391 36.284 28.0324 36.4665 28.3399 36.4665C28.448 36.4665 28.5578 36.444 28.6628 36.3965C28.6824 36.3877 28.7017 36.3787 28.7212 36.3694C29.1216 36.1769 29.294 35.6886 29.1063 35.2783Z" fill="black"/>
<path d="M38.6077 2.13281H2.39233C1.07312 2.13281 0 3.23228 0 4.58349V27.5729C0 28.924 1.07312 30.0234 2.39233 30.0234H19.2556C19.9705 33.1217 21.587 35.3161 22.9998 36.7219C25.062 38.7742 27.4259 39.8671 28.3395 39.8671C29.253 39.8671 31.6169 38.7743 33.6792 36.722C35.092 35.3161 36.7086 33.1217 37.4234 30.0235H38.6077C39.9268 30.0235 41 28.9241 41 27.573V4.58349C41 3.23228 39.9268 2.13281 38.6077 2.13281ZM36.1952 26.6616C36.1953 30.9837 34.2477 33.8506 32.6138 35.4946C30.6757 37.4447 28.6876 38.2032 28.3395 38.2263C27.9913 38.2032 26.0032 37.4448 24.065 35.4946C22.4313 33.8506 20.4837 30.9837 20.4837 26.6616V22.6219C23.2408 21.8051 25.8206 20.6873 28.3398 19.2183C30.8022 20.65 33.4976 21.8175 36.1952 22.6214V26.6616ZM39.3984 27.5729C39.3984 28.0195 39.0436 28.3828 38.6077 28.3828H37.7019C37.7633 27.8331 37.7969 27.2599 37.7969 26.6616V21.9999C37.7969 21.6297 37.5547 21.3054 37.206 21.2083C34.2981 20.3994 31.372 19.1389 28.744 17.5632C28.4941 17.4134 28.1849 17.4136 27.9349 17.5634C25.2324 19.1838 22.4645 20.376 19.473 21.2083C19.1243 21.3055 18.8821 21.6297 18.8821 21.9999V26.6616C18.8821 27.2599 18.9157 27.8331 18.9771 28.3828H2.39233C1.9563 28.3828 1.60156 28.0194 1.60156 27.5729V13.617H39.3984V27.5729ZM39.3984 11.9765H1.60156V8.69539H39.3984V11.9765ZM39.3984 7.05468H1.60156V4.58349C1.60156 4.13683 1.9563 3.77344 2.39233 3.77344H38.6077C39.0436 3.77344 39.3984 4.13683 39.3984 4.58349V7.05468Z" fill="black"/>
<path d="M9.60904 19.3594C9.12625 19.3594 8.64954 19.4594 8.20831 19.65C7.77725 19.4629 7.30351 19.3594 6.80671 19.3594C4.81974 19.3594 3.20312 21.0153 3.20312 23.0506C3.20312 25.086 4.81966 26.742 6.80671 26.742C7.30351 26.742 7.77725 26.6385 8.20823 26.4514C8.64954 26.642 9.12625 26.742 9.60904 26.742C11.5961 26.742 13.2127 25.086 13.2127 23.0506C13.2127 21.0153 11.5961 19.3594 9.60904 19.3594ZM6.80671 25.1014C5.70276 25.1014 4.80468 24.1815 4.80468 23.0506C4.80468 21.9198 5.70276 21 6.80671 21C7.9105 21 8.80858 21.9198 8.80858 23.0506C8.80858 24.1814 7.9105 25.1014 6.80671 25.1014ZM9.80755 25.0914C10.1879 24.5064 10.4101 23.8047 10.4101 23.0507C10.4101 22.2968 10.1879 21.5951 9.80763 21.0102C10.8186 21.1125 11.6111 21.9886 11.6111 23.0507C11.6111 24.1128 10.8186 24.9889 9.80755 25.0914Z" fill="black"/>
<path d="M8.12287 15.668H4.0039C3.56163 15.668 3.20312 16.0352 3.20312 16.4883C3.20312 16.9413 3.56163 17.3086 4.0039 17.3086H8.12287C8.56515 17.3086 8.92365 16.9412 8.92365 16.4883C8.92365 16.0352 8.56515 15.668 8.12287 15.668Z" fill="black"/>
<path d="M10.4901 15.668H10.4521C10.0099 15.668 9.65137 16.0352 9.65137 16.4883C9.65137 16.9413 10.0099 17.3086 10.4521 17.3086H10.4901C10.9323 17.3086 11.2909 16.9412 11.2909 16.4883C11.2909 16.0352 10.9323 15.668 10.4901 15.668Z" fill="black"/>
<path d="M32.7353 24.7754C32.4228 24.4552 31.9158 24.455 31.6029 24.7753L27.3206 29.1617L25.0766 26.8628C24.7638 26.5427 24.2567 26.5425 23.944 26.8628C23.6313 27.1832 23.6312 27.7026 23.944 28.023L26.7544 30.9019C26.9108 31.0621 27.1157 31.1423 27.3206 31.1423C27.5255 31.1423 27.7305 31.0621 27.8867 30.9019L32.7352 25.9355C33.048 25.6153 33.048 25.0958 32.7353 24.7754Z" fill="black"/>
</g>
</svg>
