<svg width="8" height="16" viewBox="0 0 8 16" fill="none" xmlns="http://www.w3.org/2000/svg">
<path d="M7.31135 13.9524L6.98868 11.5015C6.98715 11.4902 6.98487 11.479 6.98185 11.4682C6.82636 10.9079 6.30904 10.5592 5.72393 10.6202L4.27344 10.7715C4.17291 10.7821 4.08009 10.7311 4.03683 10.642C3.49852 9.52949 3.27639 8.35873 3.37646 7.16236C3.45276 6.25006 3.68999 5.67641 3.72474 5.59672C3.73401 5.58125 3.74185 5.56468 3.74792 5.54712C3.78179 5.44983 3.86844 5.38027 3.96906 5.36991L5.41966 5.2183C6.00484 5.15722 6.48204 4.70471 6.58018 4.11795C6.58098 4.11324 6.58164 4.10854 6.58223 4.10378L6.84129 1.75953C6.96923 0.967782 6.34512 0.296878 5.55496 0.379279L5.26449 0.409595C5.26429 0.409685 5.26402 0.409714 5.26381 0.409667L4.22678 0.517902C2.99012 0.647043 2.00137 1.58604 1.36734 3.23366C0.824219 4.64499 0.578365 6.48823 0.67513 8.42373C0.774184 10.405 1.2183 12.2191 1.92561 13.5317C2.62578 14.8309 3.6955 15.8336 5.19485 15.6771L6.17281 15.5751C6.95954 15.4929 7.50864 14.7061 7.31135 13.9524ZM6.49923 11.6113L6.82159 14.0601C6.82304 14.0713 6.82532 14.0825 6.82834 14.0934C6.95481 14.5492 6.62292 15.0279 6.14786 15.0774L6.07525 15.0851L5.3066 11.1639L5.7488 11.1178C6.0945 11.0817 6.40079 11.284 6.49923 11.6113ZM6.35101 1.70956C6.35021 1.71427 6.34948 1.71904 6.34896 1.72373L6.08993 4.06708C6.02859 4.41594 5.7437 4.68429 5.39479 4.72071L4.96614 4.76552L5.49757 0.885452L5.57983 0.876865C6.05687 0.827077 6.43056 1.23396 6.35101 1.70956ZM2.36444 13.275C1.69012 12.0236 1.26615 10.2824 1.17065 8.37201C1.07729 6.506 1.31099 4.73761 1.8286 3.39257C2.21713 2.38295 2.95291 1.15104 4.25159 1.01556L4.99315 0.938098L4.46173 4.81816L3.94432 4.87231C3.65028 4.90272 3.39523 5.10205 3.28852 5.38269C3.13104 5.68404 2.95085 6.43523 2.89075 7.05105C2.80232 7.95729 2.85167 9.35721 3.58863 10.8804C3.71814 11.1481 3.99663 11.3006 4.29825 11.2692L4.80602 11.2161L5.57467 15.1373L5.16997 15.1795C3.77767 15.3249 2.87586 14.2241 2.36444 13.275Z" fill="#4F4F4F"/>
</svg>
