<svg width="56" height="52" viewBox="0 0 56 52" fill="none" xmlns="http://www.w3.org/2000/svg">
  <path
    d="M52.7324 0.84375H3.26757C1.46573 0.84375 0 2.3097 0 4.11132V34.7639C0 36.5654 1.46573 38.0312 3.26757 38.0312H26.3004C27.2768 42.1623 29.4847 45.0881 31.4144 46.9625C34.231 49.6989 37.4598 51.1561 38.7076 51.1561C39.9554 51.1561 43.1841 49.699 46.0008 46.9627C47.9305 45.0881 50.1386 42.1623 51.1149 38.0313H52.7324C54.5342 38.0313 56 36.5655 56 34.764V4.11132C56 2.3097 54.5342 0.84375 52.7324 0.84375ZM49.4374 33.5488C49.4375 39.3116 46.7774 43.1341 44.5457 45.3261C41.8985 47.9262 39.1831 48.9376 38.7076 48.9684C38.2321 48.9376 35.5165 47.9264 32.8693 45.3261C30.6378 43.1341 27.9777 39.3116 27.9777 33.5488V28.1625C31.7435 27.0735 35.2671 25.583 38.708 23.6244C42.0712 25.5333 45.7528 27.09 49.4374 28.1619V33.5488ZM53.8125 34.7639C53.8125 35.3593 53.3279 35.8437 52.7324 35.8437H51.4953C51.5791 35.1108 51.625 34.3465 51.625 33.5488V27.3333C51.625 26.8395 51.2943 26.4072 50.8179 26.2778C46.8462 25.1992 42.8495 23.5186 39.2601 21.4176C38.9188 21.2179 38.4964 21.2181 38.155 21.4178C34.4638 23.5784 30.6832 25.168 26.5973 26.2778C26.121 26.4073 25.7902 26.8396 25.7902 27.3333V33.5488C25.7902 34.3465 25.8361 35.1108 25.92 35.8437H3.26757C2.67203 35.8437 2.1875 35.3592 2.1875 34.7639V16.156H53.8125V34.7639ZM53.8125 13.9686H2.1875V9.59385H53.8125V13.9686ZM53.8125 7.40624H2.1875V4.11132C2.1875 3.51578 2.67203 3.03125 3.26757 3.03125H52.7324C53.3279 3.03125 53.8125 3.51578 53.8125 4.11132V7.40624Z"
    fill="#40D6C6" />
</svg>
