<svg width="24" height="28" viewBox="0 0 24 28" fill="none" xmlns="http://www.w3.org/2000/svg">
  <path fill-rule="evenodd" clip-rule="evenodd"
    d="M3.69399 3.70271H1.63731C1.05749 3.70271 0.586914 4.17329 0.586914 4.75311V26.8115C0.586914 27.3913 1.05749 27.8619 1.63731 27.8619H22.6453C23.2251 27.8619 23.6957 27.3913 23.6957 26.8115V4.75311C23.6957 4.17329 23.2251 3.70271 22.6453 3.70271H20.5886V7.9043C20.5886 9.08915 19.6285 10.0492 18.4437 10.0492H5.8389C4.65405 10.0492 3.69399 9.08915 3.69399 7.9043V3.70271ZM7.9397 22.6099H16.3429C16.9227 22.6099 17.3933 22.1393 17.3933 21.5595C17.3933 20.9797 16.9227 20.5091 16.3429 20.5091H7.9397C7.35988 20.5091 6.8893 20.9797 6.8893 21.5595C6.8893 22.1393 7.35988 22.6099 7.9397 22.6099ZM7.9397 18.4083H16.3429C16.9227 18.4083 17.3933 17.9377 17.3933 17.3579C17.3933 16.7781 16.9227 16.3075 16.3429 16.3075H7.9397C7.35988 16.3075 6.8893 16.7781 6.8893 17.3579C6.8893 17.9377 7.35988 18.4083 7.9397 18.4083ZM7.9397 14.2067H16.3429C16.9227 14.2067 17.3933 13.7361 17.3933 13.1563C17.3933 12.5765 16.9227 12.1059 16.3429 12.1059H7.9397C7.35988 12.1059 6.8893 12.5765 6.8893 13.1563C6.8893 13.7361 7.35988 14.2067 7.9397 14.2067ZM19.4941 1.60191C19.4941 1.02209 19.0235 0.551514 18.4437 0.551514H5.8389C5.25908 0.551514 4.78851 1.02209 4.78851 1.60191V7.9043C4.78851 8.48412 5.25908 8.9547 5.8389 8.9547H18.4437C19.0235 8.9547 19.4941 8.48412 19.4941 7.9043V1.60191Z"
    fill="black" />
</svg>
