<svg width="17" height="17" viewBox="0 0 17 17" fill="none" xmlns="http://www.w3.org/2000/svg">
<path fill-rule="evenodd" clip-rule="evenodd" d="M5.12345 0.450012C2.54977 0.450012 0.450195 2.54959 0.450195 5.12327V11.8768C0.450195 14.4504 2.54977 16.55 5.12345 16.55H11.8769C14.4506 16.55 16.5502 14.4504 16.5502 11.8768V5.12327C16.5502 2.54959 14.4506 0.450012 11.8769 0.450012H5.12345ZM5.12345 1.68847H11.8769C13.7806 1.68847 15.3117 3.2172 15.3117 5.12327V11.8768C15.3117 13.7804 13.783 15.3116 11.8769 15.3116H5.12345C3.2198 15.3116 1.68866 13.7828 1.68866 11.8768V5.12327C1.68866 3.21962 3.21738 1.68847 5.12345 1.68847ZM13.1444 2.92694C12.6316 2.92694 12.2156 3.34298 12.2156 3.85578C12.2156 4.36858 12.6316 4.78463 13.1444 4.78463C13.6572 4.78463 14.0733 4.36858 14.0733 3.85578C14.0733 3.34298 13.6572 2.92694 13.1444 2.92694ZM8.5002 4.1654C6.11277 4.1654 4.16558 6.11259 4.16558 8.50001C4.16558 10.8874 6.11277 12.8346 8.5002 12.8346C10.8876 12.8346 12.8348 10.8874 12.8348 8.50001C12.8348 6.11259 10.8876 4.1654 8.5002 4.1654ZM8.5002 5.40386C10.2176 5.40386 11.5963 6.78262 11.5963 8.50001C11.5963 10.2174 10.2176 11.5962 8.5002 11.5962C6.7828 11.5962 5.40404 10.2174 5.40404 8.50001C5.40404 6.78262 6.7828 5.40386 8.5002 5.40386Z" fill="#808080"/>
</svg>
