<svg width="24" height="24" viewBox="0 0 24 24" fill="none" xmlns="http://www.w3.org/2000/svg">
<path d="M11.2634 21.9793C10.158 21.9278 9.23943 21.7803 8.24233 21.4941C6.85668 21.0963 5.60658 20.4353 4.52354 19.5277C4.13293 19.2004 3.53236 18.5792 3.26865 18.2297C2.76983 17.5686 2.34807 16.7942 2.13649 16.1508L2.01817 15.791L2.00478 11.3888C1.99107 6.88181 2.00363 5.9717 2.08481 5.58934C2.12504 5.39982 2.30709 5.03593 2.49319 4.77302C2.66201 4.53454 3.07591 4.1182 3.34911 3.91206C3.98857 3.42956 4.73612 3.05653 5.71146 2.73326C6.8463 2.35712 7.92755 2.15069 9.38777 2.03139C9.86066 1.99276 10.0275 1.99146 11.0634 2.01834C12.2434 2.04897 12.5826 2.06815 13.1266 2.13504C15.0803 2.37526 16.6222 2.83966 17.6881 3.50892C18.387 3.9478 18.97 4.6378 19.1173 5.20053C19.1728 5.41278 19.2011 6.24732 19.2029 7.72449C19.2037 8.35043 19.2113 8.90477 19.2198 8.95635C19.2309 9.02338 19.2479 9.05015 19.2794 9.05015C19.3341 9.05015 20.3702 8.68734 20.9419 8.46802C21.1757 8.3783 21.4161 8.29172 21.4761 8.2756C21.6794 8.22103 21.8567 8.28953 21.949 8.45831C21.9895 8.5323 21.9927 8.82034 21.999 12.9271C22.0026 15.3414 21.9962 18.0008 21.9847 18.8368C21.9647 20.287 21.9615 20.3599 21.9148 20.4251C21.8538 20.5102 21.4556 20.7118 21.1037 20.8356C19.6804 21.3363 17.8552 21.6808 15.7025 21.8552C14.1253 21.983 12.3875 22.0316 11.2634 21.9793ZM12.7778 19.8606C12.7795 18.2987 12.8038 17.5563 12.8575 17.4281C12.9051 17.3147 13.0286 17.2108 13.1409 17.1897C13.2545 17.1684 13.4197 17.2305 13.5157 17.3308L13.5881 17.4064L13.5979 19.2938L13.6077 21.1812H13.715C14.1907 21.1812 16.1525 21.0289 16.9691 20.9286L17.1979 20.9005L17.2069 19.0336L17.216 17.1667L17.2746 17.0472C17.3429 16.908 17.436 16.8499 17.5907 16.8499C17.7187 16.8499 17.8247 16.9004 17.9104 17.0023C17.9952 17.103 17.9991 17.1817 18.0185 19.162L18.0344 20.7821L18.1251 20.7662C19.1377 20.5887 20.42 20.2568 21.0045 20.021L21.217 19.9353L21.2233 14.5928C21.2268 11.6544 21.2224 9.25025 21.2137 9.25025C21.2049 9.25025 20.7913 9.38466 20.2945 9.54894C18.6134 10.1049 17.6431 10.3617 16.3722 10.587C14.6645 10.8898 13.7811 10.9592 11.6011 10.9619C10.1586 10.9636 10.0376 10.9585 8.97512 10.8494C6.72544 10.6186 4.99658 10.1146 3.84798 9.3546C3.5467 9.15526 3.08543 8.76612 2.92773 8.57825C2.86845 8.50763 2.80795 8.44985 2.79328 8.44985C2.75602 8.44985 2.78278 15.3203 2.82099 15.5659C2.83597 15.6622 2.87163 15.8198 2.90024 15.9161C2.96122 16.1213 3.1501 16.5789 3.17386 16.5789C3.18288 16.5789 3.1983 16.005 3.20812 15.3036C3.21795 14.6021 3.23507 13.9708 3.24617 13.9006C3.25985 13.814 3.28775 13.7515 3.33281 13.7064C3.39362 13.6456 3.4162 13.6399 3.59836 13.6399C3.79282 13.6399 3.79944 13.642 3.88351 13.7275L3.96958 13.815L3.98748 15.8511L4.00538 17.8872L4.17341 18.0772C4.36926 18.2987 4.91854 18.836 5.05566 18.9403C5.10761 18.9798 5.15825 19.0039 5.1682 18.994C5.17814 18.9841 5.19289 18.2528 5.20098 17.3689C5.21485 15.8535 5.21842 15.7563 5.2635 15.6655C5.32999 15.5315 5.42141 15.472 5.57912 15.4602C5.75652 15.4469 5.87349 15.5096 5.92115 15.6436C5.94908 15.7221 5.95816 16.1151 5.96806 17.6752L5.98035 19.6095L6.09599 19.6935C6.24778 19.8038 6.74646 20.0613 7.19949 20.2633C7.54972 20.4194 8.3025 20.7059 8.36247 20.7059C8.39381 20.7059 8.42493 19.2472 8.42493 17.7775V17.0333L8.52851 16.9513C8.6112 16.8858 8.66039 16.8672 8.77235 16.8592C8.89836 16.8502 8.92529 16.8576 9.03764 16.9329L9.16269 17.0166L9.17855 18.8925C9.18733 19.9309 9.20482 20.802 9.21772 20.8435C9.2373 20.9065 9.26083 20.9235 9.36442 20.9496C9.50286 20.9843 10.2069 21.0902 10.5882 21.1335C10.8975 21.1687 11.8266 21.1962 12.3701 21.1863L12.7765 21.1788L12.7778 19.8606ZM12.8265 10.1751C14.1451 10.1247 15.4539 9.97031 16.6404 9.72523C17.1487 9.62023 18.0568 9.41009 18.2409 9.35483L18.391 9.30981L18.3975 8.30455C18.402 7.61022 18.3959 7.29928 18.3776 7.29928C18.363 7.29928 18.2643 7.3494 18.1581 7.41065C17.1705 7.98038 15.9104 8.25983 13.9269 8.349C11.2654 8.46866 8.83753 8.14175 7.5246 7.48695C7.40769 7.42864 7.28671 7.37305 7.25576 7.36343L7.19949 7.34593L7.19987 8.54196C7.20007 9.19978 7.20864 9.75117 7.21888 9.76728C7.2411 9.80221 7.95223 9.9298 8.51246 9.99938C9.80291 10.1596 11.4622 10.2272 12.8265 10.1751ZM6.38278 9.51913C6.39049 9.48818 6.40436 8.66371 6.4136 7.68697L6.4304 5.91109L6.50858 5.76142C6.67827 5.43659 7.06313 5.11798 7.58082 4.87375C8.67337 4.35832 10.5464 4.02752 12.4514 4.01354C12.9817 4.00965 13.0472 4.02845 13.1391 4.21094C13.1872 4.30643 13.1896 4.3735 13.2016 5.9361L13.2141 7.56191L13.4892 7.56951C13.8021 7.57815 14.6192 7.52088 15.2223 7.44804C16.5557 7.28698 17.5567 6.94812 18.0429 6.4932C18.2338 6.31465 18.3234 6.1731 18.3695 5.97731C18.4131 5.79195 18.4119 5.66637 18.3649 5.48594C18.0689 4.34921 16.2919 3.41859 13.6393 3.01104C12.0453 2.76614 10.1073 2.73304 8.52496 2.92369C6.26849 3.19555 4.35555 3.94161 3.42025 4.91457C3.11196 5.23527 2.90713 5.57589 2.84628 5.86907C2.80249 6.08002 2.82954 6.66375 2.89433 6.90618C3.15277 7.8732 4.00249 8.67667 5.36133 9.2389C5.58994 9.33349 6.28805 9.57283 6.34022 9.5745C6.35593 9.575 6.37508 9.55009 6.38278 9.51913ZM12.3953 6.19248L12.3888 4.81054L12.0137 4.81834C11.181 4.83565 9.88338 5.00161 9.12924 5.18723C8.1266 5.43402 7.40259 5.7843 7.23494 6.10369C7.18492 6.19899 7.18986 6.22977 7.27176 6.33284C7.58601 6.72833 8.42188 7.06938 9.66546 7.30954C10.0274 7.37944 10.7921 7.48066 11.2759 7.52271C11.4479 7.53765 11.6223 7.55371 11.6636 7.5584C11.7048 7.56309 11.8878 7.56861 12.0702 7.57067L12.4018 7.57442L12.3953 6.19248Z" fill="#E31C79" stroke="#E31C79" stroke-width="0.5"/>
</svg>
