<svg width="56" height="22" viewBox="0 0 56 22" fill="none" xmlns="http://www.w3.org/2000/svg">
<path d="M1 -4.76837e-07H2.14L4.7 4.92L7.24 -4.76837e-07H8.39V7H7.49L7.48 1.41L4.99 6.26H4.4L1.89 1.41V7H1V-4.76837e-07ZM10.3945 -4.76837e-07H15.2545V0.87H11.3545V3.03H14.8445V3.9H11.3545V6.13H15.3745V7H10.3945V-4.76837e-07ZM17.7377 4.14C17.7377 4.78667 17.9144 5.29333 18.2677 5.66C18.6277 6.02 19.1211 6.2 19.7477 6.2C20.3677 6.2 20.8544 6.02 21.2077 5.66C21.5611 5.29333 21.7377 4.78667 21.7377 4.14V-4.76837e-07H22.6977V4.14C22.6977 5.05333 22.4344 5.77 21.9077 6.29C21.3877 6.81 20.6677 7.07 19.7477 7.07C18.8211 7.07 18.0944 6.81 17.5677 6.29C17.0411 5.77 16.7777 5.05333 16.7777 4.14V-4.76837e-07H17.7377V4.14ZM5.75 16.37C5.52333 16.0833 5.25333 15.8567 4.94 15.69C4.62667 15.5167 4.31667 15.43 4.01 15.43C3.65667 15.43 3.33333 15.52 3.04 15.7C2.75333 15.8733 2.52667 16.1167 2.36 16.43C2.19333 16.7367 2.11 17.08 2.11 17.46C2.11 17.84 2.19333 18.1867 2.36 18.5C2.52667 18.8067 2.75333 19.05 3.04 19.23C3.33333 19.4033 3.65667 19.49 4.01 19.49C4.29667 19.49 4.59667 19.4167 4.91 19.27C5.22333 19.1233 5.50333 18.9233 5.75 18.67L6.82 19.82C6.44 20.22 5.98667 20.54 5.46 20.78C4.94 21.0133 4.42333 21.13 3.91 21.13C3.21667 21.13 2.59 20.97 2.03 20.65C1.47 20.33 1.03 19.8933 0.71 19.34C0.39 18.7867 0.23 18.1667 0.23 17.48C0.23 16.8 0.393333 16.1867 0.72 15.64C1.04667 15.0933 1.49333 14.6633 2.06 14.35C2.63333 14.0367 3.27333 13.88 3.98 13.88C4.5 13.88 5.01333 13.99 5.52 14.21C6.02667 14.4233 6.45667 14.7167 6.81 15.09L5.75 16.37ZM12.6757 21L12.1957 19.76H9.1657L8.6757 21H6.7957L9.8057 13.99H11.6857L14.6257 21H12.6757ZM9.7157 18.36H11.6557L10.6957 15.86L9.7157 18.36ZM19.4701 21L18.4501 19.06H18.4101H17.0901V21H15.2601V13.99H18.4101C19.3367 13.99 20.0534 14.2067 20.5601 14.64C21.0734 15.0667 21.3301 15.67 21.3301 16.45C21.3301 16.9767 21.2234 17.4333 21.0101 17.82C20.7967 18.2 20.4867 18.4967 20.0801 18.71L21.5401 21H19.4701ZM17.0901 17.6H18.4201C18.7934 17.6 19.0801 17.5067 19.2801 17.32C19.4867 17.1333 19.5901 16.8633 19.5901 16.51C19.5901 16.17 19.4867 15.91 19.2801 15.73C19.0801 15.5433 18.7934 15.45 18.4201 15.45H17.0901V17.6ZM26.7064 21L25.6864 19.06H25.6464H24.3264V21H22.4964V13.99H25.6464C26.5731 13.99 27.2897 14.2067 27.7964 14.64C28.3097 15.0667 28.5664 15.67 28.5664 16.45C28.5664 16.9767 28.4597 17.4333 28.2464 17.82C28.0331 18.2 27.7231 18.4967 27.3164 18.71L28.7764 21H26.7064ZM24.3264 17.6H25.6564C26.0297 17.6 26.3164 17.5067 26.5164 17.32C26.7231 17.1333 26.8264 16.8633 26.8264 16.51C26.8264 16.17 26.7231 15.91 26.5164 15.73C26.3164 15.5433 26.0297 15.45 25.6564 15.45H24.3264V17.6ZM29.7327 13.99H31.5627V21H29.7327V13.99ZM37.7161 13.99H39.4161V21H37.8161L34.6361 16.81V21H32.9261V13.99H34.5361L37.7261 18.21L37.7161 13.99ZM40.7874 13.99H42.6174V16.85H45.4474V13.99H47.2774V21H45.4474V18.31H42.6174V21H40.7874V13.99ZM51.979 13.88C52.6923 13.88 53.3357 14.0367 53.909 14.35C54.489 14.6633 54.9423 15.0933 55.269 15.64C55.6023 16.1867 55.769 16.8 55.769 17.48C55.769 18.1667 55.6023 18.7867 55.269 19.34C54.9423 19.8933 54.489 20.33 53.909 20.65C53.3357 20.97 52.6923 21.13 51.979 21.13C51.2657 21.13 50.619 20.9733 50.039 20.66C49.4657 20.34 49.0123 19.9033 48.679 19.35C48.3523 18.79 48.189 18.1667 48.189 17.48C48.189 16.8 48.3523 16.1867 48.679 15.64C49.0123 15.0933 49.4657 14.6633 50.039 14.35C50.619 14.0367 51.2657 13.88 51.979 13.88ZM51.999 15.43C51.6523 15.43 51.329 15.52 51.029 15.7C50.7357 15.88 50.5023 16.13 50.329 16.45C50.1557 16.7633 50.069 17.11 50.069 17.49C50.069 17.8767 50.1557 18.23 50.329 18.55C50.509 18.8633 50.7457 19.1133 51.039 19.3C51.3323 19.48 51.6523 19.57 51.999 19.57C52.3457 19.57 52.6623 19.48 52.949 19.3C53.2423 19.1133 53.4723 18.8633 53.639 18.55C53.8057 18.23 53.889 17.8767 53.889 17.49C53.889 17.11 53.8057 16.7633 53.639 16.45C53.4723 16.13 53.2423 15.88 52.949 15.7C52.6623 15.52 52.3457 15.43 51.999 15.43Z" fill="#636363"/>
</svg>
