<svg width="67" height="27" viewBox="0 0 67 27" fill="none" xmlns="http://www.w3.org/2000/svg">
  <path
    d="M1.2 0.599999H2.568L5.64 6.504L8.688 0.599999H10.068V9H8.988L8.976 2.292L5.988 8.112H5.28L2.268 2.292V9H1.2V0.599999ZM12.4734 0.599999H18.3054V1.644H13.6254V4.236H17.8134V5.28H13.6254V7.956H18.4494V9H12.4734V0.599999ZM21.2853 5.568C21.2853 6.344 21.4973 6.952 21.9213 7.392C22.3533 7.824 22.9453 8.04 23.6973 8.04C24.4413 8.04 25.0253 7.824 25.4493 7.392C25.8733 6.952 26.0853 6.344 26.0853 5.568V0.599999H27.2373V5.568C27.2373 6.664 26.9213 7.524 26.2893 8.148C25.6653 8.772 24.8013 9.084 23.6973 9.084C22.5853 9.084 21.7133 8.772 21.0813 8.148C20.4493 7.524 20.1333 6.664 20.1333 5.568V0.599999H21.2853V5.568ZM6.9 20.444C6.628 20.1 6.304 19.828 5.928 19.628C5.552 19.42 5.18 19.316 4.812 19.316C4.388 19.316 4 19.424 3.648 19.64C3.304 19.848 3.032 20.14 2.832 20.516C2.632 20.884 2.532 21.296 2.532 21.752C2.532 22.208 2.632 22.624 2.832 23C3.032 23.368 3.304 23.66 3.648 23.876C4 24.084 4.388 24.188 4.812 24.188C5.156 24.188 5.516 24.1 5.892 23.924C6.268 23.748 6.604 23.508 6.9 23.204L8.184 24.584C7.728 25.064 7.184 25.448 6.552 25.736C5.928 26.016 5.308 26.156 4.692 26.156C3.86 26.156 3.108 25.964 2.436 25.58C1.764 25.196 1.236 24.672 0.852 24.008C0.468 23.344 0.276 22.6 0.276 21.776C0.276 20.96 0.472 20.224 0.864 19.568C1.256 18.912 1.792 18.396 2.472 18.02C3.16 17.644 3.928 17.456 4.776 17.456C5.4 17.456 6.016 17.588 6.624 17.852C7.232 18.108 7.748 18.46 8.172 18.908L6.9 20.444ZM15.2108 26L14.6348 24.512H10.9988L10.4108 26H8.15484L11.7668 17.588H14.0228L17.5508 26H15.2108ZM11.6588 22.832H13.9868L12.8348 19.832L11.6588 22.832ZM23.3641 26L22.1401 23.672H22.0921H20.5081V26H18.3121V17.588H22.0921C23.2041 17.588 24.0641 17.848 24.6721 18.368C25.2881 18.88 25.5961 19.604 25.5961 20.54C25.5961 21.172 25.4681 21.72 25.2121 22.184C24.9561 22.64 24.5841 22.996 24.0961 23.252L25.8481 26H23.3641ZM20.5081 21.92H22.1041C22.5521 21.92 22.8961 21.808 23.1361 21.584C23.3841 21.36 23.5081 21.036 23.5081 20.612C23.5081 20.204 23.3841 19.892 23.1361 19.676C22.8961 19.452 22.5521 19.34 22.1041 19.34H20.5081V21.92ZM32.0477 26L30.8237 23.672H30.7757H29.1917V26H26.9957V17.588H30.7757C31.8877 17.588 32.7477 17.848 33.3557 18.368C33.9717 18.88 34.2797 19.604 34.2797 20.54C34.2797 21.172 34.1517 21.72 33.8957 22.184C33.6397 22.64 33.2677 22.996 32.7797 23.252L34.5317 26H32.0477ZM29.1917 21.92H30.7877C31.2357 21.92 31.5797 21.808 31.8197 21.584C32.0677 21.36 32.1917 21.036 32.1917 20.612C32.1917 20.204 32.0677 19.892 31.8197 19.676C31.5797 19.452 31.2357 19.34 30.7877 19.34H29.1917V21.92ZM35.6793 17.588H37.8753V26H35.6793V17.588ZM45.2593 17.588H47.2993V26H45.3793L41.5633 20.972V26H39.5113V17.588H41.4433L45.2713 22.652L45.2593 17.588ZM48.9449 17.588H51.1409V21.02H54.5369V17.588H56.7329V26H54.5369V22.772H51.1409V26H48.9449V17.588ZM62.3748 17.456C63.2308 17.456 64.0028 17.644 64.6908 18.02C65.3868 18.396 65.9308 18.912 66.3228 19.568C66.7228 20.224 66.9228 20.96 66.9228 21.776C66.9228 22.6 66.7228 23.344 66.3228 24.008C65.9308 24.672 65.3868 25.196 64.6908 25.58C64.0028 25.964 63.2308 26.156 62.3748 26.156C61.5188 26.156 60.7428 25.968 60.0468 25.592C59.3588 25.208 58.8148 24.684 58.4148 24.02C58.0228 23.348 57.8268 22.6 57.8268 21.776C57.8268 20.96 58.0228 20.224 58.4148 19.568C58.8148 18.912 59.3588 18.396 60.0468 18.02C60.7428 17.644 61.5188 17.456 62.3748 17.456ZM62.3988 19.316C61.9828 19.316 61.5948 19.424 61.2348 19.64C60.8828 19.856 60.6028 20.156 60.3948 20.54C60.1868 20.916 60.0828 21.332 60.0828 21.788C60.0828 22.252 60.1868 22.676 60.3948 23.06C60.6108 23.436 60.8948 23.736 61.2468 23.96C61.5988 24.176 61.9828 24.284 62.3988 24.284C62.8148 24.284 63.1948 24.176 63.5388 23.96C63.8908 23.736 64.1668 23.436 64.3668 23.06C64.5668 22.676 64.6668 22.252 64.6668 21.788C64.6668 21.332 64.5668 20.916 64.3668 20.54C64.1668 20.156 63.8908 19.856 63.5388 19.64C63.1948 19.424 62.8148 19.316 62.3988 19.316Z"
    fill="black" />
</svg>
