<svg width="33" height="32" viewBox="0 0 33 32" fill="none" xmlns="http://www.w3.org/2000/svg">
<path d="M8.85547 2.66699L4.85547 8.00033L4.85547 26.667C4.85547 27.3742 5.13642 28.0525 5.63652 28.5526C6.13661 29.0527 6.81489 29.3337 7.52214 29.3337L26.1888 29.3337C26.896 29.3337 27.5743 29.0527 28.0744 28.5526C28.5745 28.0525 28.8555 27.3742 28.8555 26.667L28.8555 8.00033L24.8555 2.66699L8.85547 2.66699Z" stroke="#191919" stroke-width="1.5" stroke-linecap="round" stroke-linejoin="round"/>
<path d="M22.1886 13.333C22.1886 14.7475 21.6267 16.1041 20.6265 17.1042C19.6263 18.1044 18.2698 18.6663 16.8553 18.6663C15.4408 18.6663 14.0843 18.1044 13.0841 17.1042C12.0839 16.1041 11.522 14.7475 11.522 13.333" stroke="#191919" stroke-width="1.5" stroke-linecap="round" stroke-linejoin="round"/>
<path d="M4.85547 8L28.8555 8" stroke="#191919" stroke-width="1.5" stroke-linecap="round" stroke-linejoin="round"/>
</svg>
