<svg width="33" height="9" viewBox="0 0 33 9" fill="none" xmlns="http://www.w3.org/2000/svg">
<path d="M6.512 0.0799997V8H5.552V0.0799997H6.512ZM1.256 0.0799997V8H0.296V0.0799997H1.256ZM5.996 3.536V4.436H0.8V3.536H5.996ZM11.3188 1.88C11.8868 1.88 12.3868 2.004 12.8188 2.252C13.2588 2.5 13.6028 2.86 13.8508 3.332C14.0988 3.796 14.2228 4.352 14.2228 5C14.2228 5.648 14.0988 6.208 13.8508 6.68C13.6028 7.144 13.2588 7.5 12.8188 7.748C12.3868 7.996 11.8868 8.12 11.3188 8.12C10.7588 8.12 10.2588 7.996 9.81875 7.748C9.37875 7.5 9.03475 7.144 8.78675 6.68C8.53875 6.208 8.41475 5.648 8.41475 5C8.41475 4.352 8.53875 3.796 8.78675 3.332C9.03475 2.86 9.37875 2.5 9.81875 2.252C10.2588 2.004 10.7588 1.88 11.3188 1.88ZM11.3188 2.708C10.9108 2.708 10.5628 2.8 10.2748 2.984C9.98675 3.168 9.76275 3.432 9.60275 3.776C9.45075 4.112 9.37475 4.52 9.37475 5C9.37475 5.472 9.45075 5.88 9.60275 6.224C9.76275 6.568 9.98675 6.832 10.2748 7.016C10.5628 7.2 10.9108 7.292 11.3188 7.292C11.7268 7.292 12.0748 7.2 12.3628 7.016C12.6508 6.832 12.8708 6.568 13.0228 6.224C13.1828 5.88 13.2628 5.472 13.2628 5C13.2628 4.52 13.1828 4.112 13.0228 3.776C12.8708 3.432 12.6508 3.168 12.3628 2.984C12.0748 2.8 11.7268 2.708 11.3188 2.708ZM16.0301 8V2H16.8701L16.9301 2.936C17.1461 2.568 17.4261 2.3 17.7701 2.132C18.1221 1.964 18.4821 1.88 18.8501 1.88C19.2741 1.88 19.6741 1.976 20.0501 2.168C20.4261 2.36 20.7141 2.656 20.9141 3.056C21.0421 2.784 21.2221 2.564 21.4541 2.396C21.6861 2.22 21.9381 2.092 22.2101 2.012C22.4901 1.924 22.7541 1.88 23.0021 1.88C23.3861 1.88 23.7501 1.96 24.0941 2.12C24.4461 2.28 24.7341 2.528 24.9581 2.864C25.1821 3.2 25.2941 3.632 25.2941 4.16V8H24.3341V4.256C24.3341 3.712 24.1981 3.32 23.9261 3.08C23.6541 2.84 23.3181 2.72 22.9181 2.72C22.6061 2.72 22.3141 2.796 22.0421 2.948C21.7701 3.1 21.5501 3.324 21.3821 3.62C21.2221 3.916 21.1421 4.28 21.1421 4.712V8H20.1821V4.256C20.1821 3.712 20.0461 3.32 19.7741 3.08C19.5021 2.84 19.1661 2.72 18.7661 2.72C18.5021 2.72 18.2301 2.792 17.9501 2.936C17.6781 3.072 17.4501 3.292 17.2661 3.596C17.0821 3.9 16.9901 4.3 16.9901 4.796V8H16.0301ZM29.9756 8.12C29.4076 8.12 28.8996 7.996 28.4516 7.748C28.0116 7.5 27.6676 7.144 27.4196 6.68C27.1716 6.208 27.0476 5.648 27.0476 5C27.0476 4.352 27.1716 3.796 27.4196 3.332C27.6676 2.86 28.0076 2.5 28.4396 2.252C28.8716 2.004 29.3636 1.88 29.9156 1.88C30.4756 1.88 30.9516 2 31.3436 2.24C31.7436 2.48 32.0476 2.808 32.2556 3.224C32.4636 3.632 32.5676 4.092 32.5676 4.604C32.5676 4.74 32.5636 4.864 32.5556 4.976C32.5476 5.088 32.5356 5.188 32.5196 5.276H27.6716V4.424H32.0996L31.6076 4.52C31.6076 3.944 31.4476 3.5 31.1276 3.188C30.8156 2.876 30.4036 2.72 29.8916 2.72C29.4996 2.72 29.1596 2.812 28.8716 2.996C28.5916 3.172 28.3716 3.432 28.2116 3.776C28.0596 4.112 27.9836 4.52 27.9836 5C27.9836 5.472 28.0636 5.88 28.2236 6.224C28.3836 6.568 28.6076 6.832 28.8956 7.016C29.1916 7.192 29.5436 7.28 29.9516 7.28C30.3916 7.28 30.7476 7.196 31.0196 7.028C31.2996 6.86 31.5236 6.632 31.6916 6.344L32.4476 6.788C32.2956 7.06 32.0996 7.296 31.8596 7.496C31.6276 7.696 31.3516 7.852 31.0316 7.964C30.7196 8.068 30.3676 8.12 29.9756 8.12Z" fill="#5B5B5B"/>
</svg>
