<svg width="17" height="16" viewBox="0 0 17 16" fill="none" xmlns="http://www.w3.org/2000/svg">
<mask id="path-1-inside-1_5207_24815" fill="white">
<path d="M11.638 12.4716C11.5122 12.593 11.3438 12.6602 11.169 12.6587C10.9942 12.6572 10.827 12.5871 10.7034 12.4635C10.5798 12.3399 10.5097 12.1727 10.5082 11.9979C10.5067 11.8231 10.5739 11.6547 10.6953 11.5289L13.5573 8.66694H1.83329C1.65648 8.66694 1.48691 8.5967 1.36189 8.47168C1.23686 8.34665 1.16663 8.17708 1.16663 8.00027C1.16663 7.82346 1.23686 7.65389 1.36189 7.52887C1.48691 7.40384 1.65648 7.3336 1.83329 7.3336H13.5573L10.6953 4.4716C10.5739 4.34587 10.5067 4.17747 10.5082 4.00267C10.5097 3.82787 10.5798 3.66066 10.7034 3.53706C10.827 3.41345 10.9942 3.34334 11.169 3.34182C11.3438 3.3403 11.5122 3.4075 11.638 3.52894L15.638 7.52894C15.7629 7.65396 15.8331 7.8235 15.8331 8.00027C15.8331 8.17705 15.7629 8.34659 15.638 8.4716L11.638 12.4716Z"/>
</mask>
<path d="M11.638 12.4716C11.5122 12.593 11.3438 12.6602 11.169 12.6587C10.9942 12.6572 10.827 12.5871 10.7034 12.4635C10.5798 12.3399 10.5097 12.1727 10.5082 11.9979C10.5067 11.8231 10.5739 11.6547 10.6953 11.5289L13.5573 8.66694H1.83329C1.65648 8.66694 1.48691 8.5967 1.36189 8.47168C1.23686 8.34665 1.16663 8.17708 1.16663 8.00027C1.16663 7.82346 1.23686 7.65389 1.36189 7.52887C1.48691 7.40384 1.65648 7.3336 1.83329 7.3336H13.5573L10.6953 4.4716C10.5739 4.34587 10.5067 4.17747 10.5082 4.00267C10.5097 3.82787 10.5798 3.66066 10.7034 3.53706C10.827 3.41345 10.9942 3.34334 11.169 3.34182C11.3438 3.3403 11.5122 3.4075 11.638 3.52894L15.638 7.52894C15.7629 7.65396 15.8331 7.8235 15.8331 8.00027C15.8331 8.17705 15.7629 8.34659 15.638 8.4716L11.638 12.4716Z" fill="white"/>
<path d="M11.638 12.4716L12.68 13.5505L12.6894 13.5415L12.6986 13.5323L11.638 12.4716ZM10.6953 11.5289L9.63463 10.4683L9.62541 10.4775L9.61636 10.4869L10.6953 11.5289ZM13.5573 8.66694L14.618 9.7276L17.1786 7.16694H13.5573V8.66694ZM1.16663 8.00027H-0.333374H1.16663ZM13.5573 7.3336V8.8336H17.1786L14.618 6.27294L13.5573 7.3336ZM10.6953 4.4716L9.61636 5.51367L9.62541 5.52305L9.63463 5.53226L10.6953 4.4716ZM11.638 3.52894L12.6986 2.46828L12.6894 2.45906L12.68 2.45001L11.638 3.52894ZM15.638 7.52894L16.6988 6.46844L16.6986 6.46828L15.638 7.52894ZM15.638 8.4716L16.6986 9.53226L16.6988 9.5321L15.638 8.4716ZM10.5959 11.3927C10.7531 11.2409 10.9636 11.1569 11.1821 11.1588L11.156 14.1587C11.7241 14.1636 12.2714 13.9452 12.68 13.5505L10.5959 11.3927ZM11.1821 11.1588C11.4006 11.1607 11.6096 11.2483 11.7641 11.4028L9.64275 13.5241C10.0445 13.9259 10.5879 14.1537 11.156 14.1587L11.1821 11.1588ZM11.7641 11.4028C11.9186 11.5573 12.0062 11.7663 12.0081 11.9848L9.00823 12.0109C9.01317 12.579 9.24103 13.1224 9.64275 13.5241L11.7641 11.4028ZM12.0081 11.9848C12.01 12.2033 11.926 12.4138 11.7742 12.571L9.61636 10.4869C9.22168 10.8955 9.0033 11.4428 9.00823 12.0109L12.0081 11.9848ZM11.756 12.5896L14.618 9.7276L12.4966 7.60628L9.63463 10.4683L11.756 12.5896ZM13.5573 7.16694H1.83329V10.1669H13.5573V7.16694ZM1.83329 7.16694C2.05431 7.16694 2.26627 7.25474 2.42255 7.41102L0.301228 9.53234C0.707556 9.93866 1.25866 10.1669 1.83329 10.1669V7.16694ZM2.42255 7.41102C2.57883 7.5673 2.66663 7.77926 2.66663 8.00027H-0.333374C-0.333374 8.57491 -0.105101 9.12601 0.301228 9.53234L2.42255 7.41102ZM2.66663 8.00027C2.66663 8.22129 2.57883 8.43325 2.42255 8.58953L0.301228 6.46821C-0.105101 6.87454 -0.333374 7.42564 -0.333374 8.00027H2.66663ZM2.42255 8.58953C2.26627 8.74581 2.05431 8.8336 1.83329 8.8336V5.8336C1.25866 5.8336 0.707556 6.06188 0.301228 6.46821L2.42255 8.58953ZM1.83329 8.8336H13.5573V5.8336H1.83329V8.8336ZM14.618 6.27294L11.756 3.41094L9.63463 5.53226L12.4966 8.39427L14.618 6.27294ZM11.7742 3.42954C11.926 3.58671 12.01 3.79721 12.0081 4.0157L9.00823 3.98964C9.0033 4.55773 9.22168 5.10503 9.61636 5.51367L11.7742 3.42954ZM12.0081 4.0157C12.0062 4.2342 11.9186 4.44321 11.7641 4.59772L9.64275 2.4764C9.24103 2.87812 9.01317 3.42154 9.00823 3.98964L12.0081 4.0157ZM11.7641 4.59772C11.6096 4.75223 11.4006 4.83987 11.1821 4.84177L11.156 1.84188C10.5879 1.84682 10.0445 2.07468 9.64275 2.4764L11.7641 4.59772ZM11.1821 4.84177C10.9636 4.84366 10.7531 4.75967 10.5959 4.60787L12.68 2.45001C12.2714 2.05533 11.7241 1.83694 11.156 1.84188L11.1821 4.84177ZM10.5773 4.5896L14.5773 8.5896L16.6986 6.46828L12.6986 2.46828L10.5773 4.5896ZM14.5771 8.58944C14.4209 8.43316 14.3331 8.22124 14.3331 8.00027H17.3331C17.3331 7.42575 17.105 6.87475 16.6988 6.46844L14.5771 8.58944ZM14.3331 8.00027C14.3331 7.7793 14.4209 7.56738 14.5771 7.4111L16.6988 9.5321C17.105 9.12579 17.3331 8.57479 17.3331 8.00027H14.3331ZM14.5773 7.41094L10.5773 11.4109L12.6986 13.5323L16.6986 9.53226L14.5773 7.41094Z" fill="white" mask="url(#path-1-inside-1_5207_24815)"/>
</svg>
