<svg width="16" height="10" viewBox="0 0 16 10" fill="none" xmlns="http://www.w3.org/2000/svg">
<mask id="path-1-inside-1_4835_17768" fill="white">
<path d="M11.138 9.47161C11.0122 9.59304 10.8438 9.66024 10.669 9.65872C10.4942 9.6572 10.327 9.58709 10.2034 9.46348C10.0798 9.33988 10.0097 9.17267 10.0082 8.99787C10.0067 8.82307 10.0739 8.65467 10.1953 8.52894L13.0573 5.66694H1.33329C1.15648 5.66694 0.986912 5.5967 0.861888 5.47168C0.736864 5.34665 0.666626 5.17708 0.666626 5.00027C0.666626 4.82346 0.736864 4.65389 0.861888 4.52887C0.986912 4.40384 1.15648 4.3336 1.33329 4.3336H13.0573L10.1953 1.4716C10.0739 1.34587 10.0067 1.17747 10.0082 1.00267C10.0097 0.827873 10.0798 0.660665 10.2034 0.537059C10.327 0.413454 10.4942 0.343341 10.669 0.341822C10.8438 0.340303 11.0122 0.4075 11.138 0.528938L15.138 4.52894C15.2629 4.65396 15.3331 4.8235 15.3331 5.00027C15.3331 5.17705 15.2629 5.34659 15.138 5.4716L11.138 9.47161Z"/>
</mask>
<path d="M11.138 9.47161C11.0122 9.59304 10.8438 9.66024 10.669 9.65872C10.4942 9.6572 10.327 9.58709 10.2034 9.46348C10.0798 9.33988 10.0097 9.17267 10.0082 8.99787C10.0067 8.82307 10.0739 8.65467 10.1953 8.52894L13.0573 5.66694H1.33329C1.15648 5.66694 0.986912 5.5967 0.861888 5.47168C0.736864 5.34665 0.666626 5.17708 0.666626 5.00027C0.666626 4.82346 0.736864 4.65389 0.861888 4.52887C0.986912 4.40384 1.15648 4.3336 1.33329 4.3336H13.0573L10.1953 1.4716C10.0739 1.34587 10.0067 1.17747 10.0082 1.00267C10.0097 0.827873 10.0798 0.660665 10.2034 0.537059C10.327 0.413454 10.4942 0.343341 10.669 0.341822C10.8438 0.340303 11.0122 0.4075 11.138 0.528938L15.138 4.52894C15.2629 4.65396 15.3331 4.8235 15.3331 5.00027C15.3331 5.17705 15.2629 5.34659 15.138 5.4716L11.138 9.47161Z" fill="white"/>
<path d="M11.138 9.47161L12.18 10.5505L12.1894 10.5415L12.1986 10.5323L11.138 9.47161ZM10.1953 8.52894L9.13463 7.46828L9.12541 7.47749L9.11636 7.48687L10.1953 8.52894ZM13.0573 5.66694L14.118 6.7276L16.6786 4.16694H13.0573V5.66694ZM0.666626 5.00027H-0.833374H0.666626ZM13.0573 4.3336V5.8336H16.6786L14.118 3.27294L13.0573 4.3336ZM10.1953 1.4716L9.11636 2.51367L9.12541 2.52305L9.13463 2.53226L10.1953 1.4716ZM11.138 0.528938L12.1986 -0.531722L12.1894 -0.540939L12.18 -0.549994L11.138 0.528938ZM15.138 4.52894L16.1988 3.46844L16.1986 3.46828L15.138 4.52894ZM15.138 5.4716L16.1986 6.53226L16.1988 6.5321L15.138 5.4716ZM10.0959 8.39267C10.2531 8.24087 10.4636 8.15688 10.6821 8.15878L10.656 11.1587C11.2241 11.1636 11.7714 10.9452 12.18 10.5505L10.0959 8.39267ZM10.6821 8.15878C10.9006 8.16068 11.1096 8.24832 11.2641 8.40282L9.14275 10.5241C9.54447 10.9259 10.0879 11.1537 10.656 11.1587L10.6821 8.15878ZM11.2641 8.40282C11.4186 8.55733 11.5062 8.76634 11.5081 8.98484L8.50823 9.01091C8.51317 9.579 8.74103 10.1224 9.14275 10.5241L11.2641 8.40282ZM11.5081 8.98484C11.51 9.20333 11.426 9.41384 11.2742 9.57101L9.11636 7.48687C8.72168 7.89551 8.5033 8.44281 8.50823 9.01091L11.5081 8.98484ZM11.256 9.5896L14.118 6.7276L11.9966 4.60628L9.13463 7.46828L11.256 9.5896ZM13.0573 4.16694H1.33329V7.16694H13.0573V4.16694ZM1.33329 4.16694C1.55431 4.16694 1.76627 4.25474 1.92255 4.41102L-0.198772 6.53234C0.207556 6.93866 0.758656 7.16694 1.33329 7.16694V4.16694ZM1.92255 4.41102C2.07883 4.5673 2.16663 4.77926 2.16663 5.00027H-0.833374C-0.833374 5.57491 -0.605101 6.12601 -0.198772 6.53234L1.92255 4.41102ZM2.16663 5.00027C2.16663 5.22129 2.07883 5.43325 1.92255 5.58953L-0.198772 3.46821C-0.605101 3.87454 -0.833374 4.42564 -0.833374 5.00027H2.16663ZM1.92255 5.58953C1.76627 5.74581 1.55431 5.8336 1.33329 5.8336V2.8336C0.758656 2.8336 0.207556 3.06188 -0.198772 3.46821L1.92255 5.58953ZM1.33329 5.8336H13.0573V2.8336H1.33329V5.8336ZM14.118 3.27294L11.256 0.410945L9.13463 2.53226L11.9966 5.39427L14.118 3.27294ZM11.2742 0.429537C11.426 0.586706 11.51 0.797208 11.5081 1.0157L8.50823 0.989637C8.5033 1.55773 8.72168 2.10503 9.11636 2.51367L11.2742 0.429537ZM11.5081 1.0157C11.5062 1.2342 11.4186 1.44321 11.2641 1.59772L9.14275 -0.523601C8.74103 -0.121883 8.51317 0.421544 8.50823 0.989637L11.5081 1.0157ZM11.2641 1.59772C11.1096 1.75223 10.9006 1.83987 10.6821 1.84177L10.656 -1.15812C10.0879 -1.15318 9.54447 -0.925318 9.14275 -0.523601L11.2641 1.59772ZM10.6821 1.84177C10.4636 1.84366 10.2531 1.75967 10.0959 1.60787L12.18 -0.549994C11.7714 -0.944669 11.2241 -1.16306 10.656 -1.15812L10.6821 1.84177ZM10.0773 1.5896L14.0773 5.5896L16.1986 3.46828L12.1986 -0.531722L10.0773 1.5896ZM14.0771 5.58944C13.9209 5.43316 13.8331 5.22124 13.8331 5.00027H16.8331C16.8331 4.42575 16.605 3.87475 16.1988 3.46844L14.0771 5.58944ZM13.8331 5.00027C13.8331 4.7793 13.9209 4.56738 14.0771 4.4111L16.1988 6.5321C16.605 6.12579 16.8331 5.57479 16.8331 5.00027H13.8331ZM14.0773 4.41094L10.0773 8.41095L12.1986 10.5323L16.1986 6.53226L14.0773 4.41094Z" fill="white" mask="url(#path-1-inside-1_4835_17768)"/>
</svg>
