<svg width="21" height="22" viewBox="0 0 21 22" fill="none" xmlns="http://www.w3.org/2000/svg">
  <path fill-rule="evenodd" clip-rule="evenodd"
    d="M7.14538 19.2441C7.54383 19.221 7.80942 18.9662 7.78286 18.642L7.11887 8.52203C7.09231 8.19782 6.80012 7.96623 6.42823 7.98939C6.05634 8.01255 5.79069 8.26729 5.81726 8.5915L6.48125 18.7115C6.50781 18.9894 6.80005 19.2441 7.14538 19.2441Z"
    fill="black" />
  <path fill-rule="evenodd" clip-rule="evenodd"
    d="M10.4127 19.2442C10.7846 19.2442 11.0768 18.9895 11.0768 18.6653V8.54526C11.0768 8.22105 10.7846 7.96631 10.4127 7.96631C10.0408 7.96631 9.74854 8.22105 9.74854 8.54526V18.6653C9.74854 18.9895 10.0408 19.2442 10.4127 19.2442Z"
    fill="black" />
  <path fill-rule="evenodd" clip-rule="evenodd"
    d="M13.6268 19.244C13.9987 19.244 14.2909 19.0124 14.3175 18.7114L14.9816 8.59137C15.0081 8.26716 14.7159 8.01242 14.3706 7.98926C13.9987 7.9661 13.7065 8.22084 13.68 8.5219L13.0158 18.6419C12.9893 18.9429 13.2815 19.2208 13.6268 19.244Z"
    fill="black" />
  <path fill-rule="evenodd" clip-rule="evenodd"
    d="M13.8927 2.64H19.2322C20.1086 2.64 20.8259 3.26526 20.7994 4.00632V4.9558C20.7994 5.72 20.0821 6.34526 19.2055 6.34526H18.9665L17.8242 19.9621C17.7446 21.0968 16.6288 22 15.3272 22H5.4721C4.17049 22 3.08137 21.0968 2.97519 19.9621L1.83292 6.36842H1.59377C0.717289 6.36842 0 5.74316 0 4.97894V4.02948C0 3.26526 0.717289 2.64 1.59377 2.64H6.90654L7.30502 1.11157C7.491 0.463165 8.15499 0 8.92544 0L11.9005 0.0231628C12.6709 0.0231628 13.3616 0.509476 13.5209 1.1579L13.8927 2.64ZM8.9253 1.13474C8.76582 1.13474 8.60649 1.22737 8.57998 1.36632L8.26117 2.64H12.591L12.2723 1.38947C12.2192 1.25052 12.0863 1.1579 11.927 1.1579L8.9253 1.13474ZM19.232 5.21053C19.3648 5.21053 19.4977 5.1179 19.4977 4.97894V4.02948C19.4977 3.91368 19.3913 3.7979 19.232 3.7979H1.59377C1.46095 3.7979 1.32812 3.89053 1.32812 4.02948V4.97894C1.32812 5.09474 1.43444 5.21053 1.59377 5.21053H19.232ZM16.5491 19.8926C16.496 20.4484 15.9647 20.8653 15.3538 20.8653H5.49861C4.86113 20.8653 4.35647 20.4484 4.30331 19.8926L3.16104 6.36842H17.6647L16.5491 19.8926Z"
    fill="black" />
</svg>
