<svg width="21" height="22" viewBox="0 0 21 22" fill="none" xmlns="http://www.w3.org/2000/svg">
<g id="Group">
<g id="Group_2">
<path id="Vector" fill-rule="evenodd" clip-rule="evenodd" d="M7.14538 19.2443C7.54383 19.2211 7.80942 18.9664 7.78286 18.6421L7.11887 8.52215C7.09231 8.19794 6.80012 7.96635 6.42823 7.98951C6.05634 8.01267 5.79069 8.26741 5.81726 8.59162L6.48125 18.7116C6.50781 18.9895 6.80005 19.2443 7.14538 19.2443V19.2443Z" fill="#40D6C6"/>
<path id="Vector_2" fill-rule="evenodd" clip-rule="evenodd" d="M10.4122 19.2442C10.7841 19.2442 11.0763 18.9895 11.0763 18.6653V8.54526C11.0763 8.22105 10.7841 7.96631 10.4122 7.96631C10.0403 7.96631 9.74805 8.22105 9.74805 8.54526V18.6653C9.74805 18.9895 10.0403 19.2442 10.4122 19.2442Z" fill="#40D6C6"/>
<path id="Vector_3" fill-rule="evenodd" clip-rule="evenodd" d="M13.6263 19.2442C13.9982 19.2442 14.2904 19.0127 14.317 18.7116L14.9811 8.59161C15.0077 8.2674 14.7154 8.01266 14.3701 7.9895C13.9982 7.96634 13.706 8.22109 13.6795 8.52214L13.0154 18.6421C12.9888 18.9432 13.281 19.2211 13.6263 19.2442Z" fill="#40D6C6"/>
<path id="Vector_4" fill-rule="evenodd" clip-rule="evenodd" d="M13.8927 2.64H19.2322C20.1086 2.64 20.8259 3.26526 20.7994 4.00632V4.9558C20.7994 5.72 20.0821 6.34526 19.2055 6.34526H18.9665L17.8242 19.9621C17.7446 21.0968 16.6288 22 15.3272 22H5.4721C4.17049 22 3.08137 21.0968 2.97519 19.9621L1.83292 6.36842H1.59377C0.717289 6.36842 0 5.74316 0 4.97894V4.02948C0 3.26526 0.717289 2.64 1.59377 2.64H6.90654L7.30502 1.11157C7.491 0.463165 8.15499 0 8.92544 0L11.9005 0.0231628C12.6709 0.0231628 13.3616 0.509476 13.5209 1.1579L13.8927 2.64V2.64ZM8.9253 1.13474C8.76582 1.13474 8.60649 1.22737 8.57998 1.36632L8.26117 2.64H12.591L12.2723 1.38947C12.2192 1.25052 12.0863 1.1579 11.927 1.1579L8.9253 1.13474ZM19.232 5.21053C19.3648 5.21053 19.4977 5.1179 19.4977 4.97894V4.02948C19.4977 3.91368 19.3913 3.7979 19.232 3.7979H1.59377C1.46095 3.7979 1.32812 3.89053 1.32812 4.02948V4.97894C1.32812 5.09474 1.43444 5.21053 1.59377 5.21053H19.232V5.21053ZM16.5491 19.8926C16.496 20.4484 15.9647 20.8653 15.3538 20.8653H5.49861C4.86113 20.8653 4.35647 20.4484 4.30331 19.8926L3.16104 6.36842H17.6647L16.5491 19.8926V19.8926Z" fill="#40D6C6"/>
</g>
</g>
</svg>
