<svg width="32" height="32" viewBox="0 0 32 32" fill="none" xmlns="http://www.w3.org/2000/svg">
<path d="M24.6666 28.0007C26.5076 28.0007 28 26.5083 28 24.6673C28 22.8264 26.5076 21.334 24.6666 21.334C22.8257 21.334 21.3333 22.8264 21.3333 24.6673C21.3333 26.5083 22.8257 28.0007 24.6666 28.0007Z" stroke="#36495E" stroke-width="2" stroke-linecap="round" stroke-linejoin="round"/>
<path d="M7.33333 28.0007C9.17428 28.0007 10.6667 26.5083 10.6667 24.6673C10.6667 22.8264 9.17428 21.334 7.33333 21.334C5.49238 21.334 4 22.8264 4 24.6673C4 26.5083 5.49238 28.0007 7.33333 28.0007Z" stroke="#36495E" stroke-width="2" stroke-linecap="round" stroke-linejoin="round"/>
<path d="M21.3333 10.666H26.6666L30.6666 14.666V21.3327H21.3333V10.666Z" stroke="#36495E" stroke-width="2" stroke-linecap="round" stroke-linejoin="round"/>
<path d="M21.3333 4H1.33331V21.3333H21.3333V4Z" stroke="#36495E" stroke-width="2" stroke-linecap="round" stroke-linejoin="round"/>
</svg>
