<svg width="20" height="20" viewBox="0 0 20 20" fill="none" xmlns="http://www.w3.org/2000/svg">
<g clip-path="url(#clip0_4467_36041)">
<mask id="path-1-inside-1_4467_36041" fill="white">
<path d="M14.582 11.9843C14.3338 11.8603 13.1099 11.2601 12.8818 11.1781C12.6537 11.0951 12.4879 11.0541 12.3221 11.3021C12.1564 11.5492 11.6791 12.1083 11.5334 12.2733C11.3887 12.4384 11.243 12.4584 10.9948 12.3344C10.2613 12.0437 9.58432 11.6281 8.99417 11.1061C8.44988 10.6053 7.98325 10.0269 7.60953 9.38971C7.46483 9.14166 7.59445 9.00763 7.71905 8.8846C7.83059 8.77358 7.96825 8.59554 8.09184 8.45051C8.19421 8.3253 8.27812 8.1862 8.34104 8.03742C8.37415 7.96904 8.38956 7.89351 8.38588 7.8177C8.38219 7.74189 8.35952 7.66819 8.31994 7.60332C8.25764 7.47929 7.76025 6.26003 7.55326 5.76392C7.35129 5.28181 7.1463 5.34683 6.99256 5.33882C6.84787 5.33182 6.68207 5.32982 6.51628 5.32982C6.39016 5.33332 6.26613 5.36277 6.152 5.4163C6.03786 5.46984 5.9361 5.5463 5.8531 5.64089C5.57177 5.90608 5.34902 6.2267 5.19902 6.58231C5.04903 6.93791 4.97509 7.32072 4.98191 7.70634C5.0626 8.64078 5.41568 9.53143 5.99779 10.2689C7.06483 11.8613 8.52957 13.1501 10.2482 14.0087C10.7118 14.207 11.1853 14.3812 11.667 14.5308C12.1748 14.6843 12.7116 14.7175 13.2345 14.6279C13.5809 14.558 13.9089 14.4174 14.1979 14.215C14.4869 14.0125 14.7306 13.7526 14.9136 13.4516C15.0768 13.0815 15.1271 12.6717 15.0583 12.2733C14.997 12.1693 14.8312 12.1083 14.582 11.9843ZM17.086 2.90329C15.3778 1.20327 13.1071 0.179104 10.6967 0.0214652C8.28639 -0.136174 5.90063 0.583457 3.98361 2.04638C2.06659 3.5093 0.748953 5.61583 0.276019 7.97377C-0.196916 10.3317 0.207076 12.7804 1.41278 14.8639L0 20L5.27934 18.6227C6.73951 19.4142 8.37559 19.8289 10.0382 19.829H10.0422C12.0118 19.828 13.9368 19.2459 15.5742 18.1563C17.2115 17.0667 18.4877 15.5185 19.2415 13.7072C19.9953 11.896 20.1928 9.90296 19.8092 7.97999C19.4255 6.05702 18.4779 4.29038 17.086 2.90328V2.90329ZM14.4403 16.8953C13.1221 17.7178 11.5979 18.1542 10.0422 18.1546H10.0382C8.55597 18.1545 7.10107 17.7576 5.82596 17.0054L5.52351 16.8273L2.39047 17.6455L3.22649 14.6048L3.03055 14.2928C2.16092 12.9123 1.72205 11.3062 1.76943 9.67743C1.81681 8.04869 2.34832 6.47051 3.29675 5.14245C4.24517 3.8144 5.56791 2.79611 7.09772 2.21636C8.62752 1.6366 10.2957 1.52141 11.8912 1.88536C13.4868 2.24931 14.9381 3.07605 16.0617 4.26104C17.1852 5.44602 17.9305 6.93604 18.2034 8.54266C18.4762 10.1493 18.2644 11.8004 17.5945 13.2871C16.9247 14.7739 15.827 16.0296 14.4403 16.8953Z"/>
</mask>
<path d="M14.582 11.9843C14.3338 11.8603 13.1099 11.2601 12.8818 11.1781C12.6537 11.0951 12.4879 11.0541 12.3221 11.3021C12.1564 11.5492 11.6791 12.1083 11.5334 12.2733C11.3887 12.4384 11.243 12.4584 10.9948 12.3344C10.2613 12.0437 9.58432 11.6281 8.99417 11.1061C8.44988 10.6053 7.98325 10.0269 7.60953 9.38971C7.46483 9.14166 7.59445 9.00763 7.71905 8.8846C7.83059 8.77358 7.96825 8.59554 8.09184 8.45051C8.19421 8.3253 8.27812 8.1862 8.34104 8.03742C8.37415 7.96904 8.38956 7.89351 8.38588 7.8177C8.38219 7.74189 8.35952 7.66819 8.31994 7.60332C8.25764 7.47929 7.76025 6.26003 7.55326 5.76392C7.35129 5.28181 7.1463 5.34683 6.99256 5.33882C6.84787 5.33182 6.68207 5.32982 6.51628 5.32982C6.39016 5.33332 6.26613 5.36277 6.152 5.4163C6.03786 5.46984 5.9361 5.5463 5.8531 5.64089C5.57177 5.90608 5.34902 6.2267 5.19902 6.58231C5.04903 6.93791 4.97509 7.32072 4.98191 7.70634C5.0626 8.64078 5.41568 9.53143 5.99779 10.2689C7.06483 11.8613 8.52957 13.1501 10.2482 14.0087C10.7118 14.207 11.1853 14.3812 11.667 14.5308C12.1748 14.6843 12.7116 14.7175 13.2345 14.6279C13.5809 14.558 13.9089 14.4174 14.1979 14.215C14.4869 14.0125 14.7306 13.7526 14.9136 13.4516C15.0768 13.0815 15.1271 12.6717 15.0583 12.2733C14.997 12.1693 14.8312 12.1083 14.582 11.9843ZM17.086 2.90329C15.3778 1.20327 13.1071 0.179104 10.6967 0.0214652C8.28639 -0.136174 5.90063 0.583457 3.98361 2.04638C2.06659 3.5093 0.748953 5.61583 0.276019 7.97377C-0.196916 10.3317 0.207076 12.7804 1.41278 14.8639L0 20L5.27934 18.6227C6.73951 19.4142 8.37559 19.8289 10.0382 19.829H10.0422C12.0118 19.828 13.9368 19.2459 15.5742 18.1563C17.2115 17.0667 18.4877 15.5185 19.2415 13.7072C19.9953 11.896 20.1928 9.90296 19.8092 7.97999C19.4255 6.05702 18.4779 4.29038 17.086 2.90328V2.90329ZM14.4403 16.8953C13.1221 17.7178 11.5979 18.1542 10.0422 18.1546H10.0382C8.55597 18.1545 7.10107 17.7576 5.82596 17.0054L5.52351 16.8273L2.39047 17.6455L3.22649 14.6048L3.03055 14.2928C2.16092 12.9123 1.72205 11.3062 1.76943 9.67743C1.81681 8.04869 2.34832 6.47051 3.29675 5.14245C4.24517 3.8144 5.56791 2.79611 7.09772 2.21636C8.62752 1.6366 10.2957 1.52141 11.8912 1.88536C13.4868 2.24931 14.9381 3.07605 16.0617 4.26104C17.1852 5.44602 17.9305 6.93604 18.2034 8.54266C18.4762 10.1493 18.2644 11.8004 17.5945 13.2871C16.9247 14.7739 15.827 16.0296 14.4403 16.8953Z" fill="#36495E"/>
<path d="M12.8818 11.1781L12.1978 13.0575L12.2051 13.0601L12.8818 11.1781ZM12.3221 11.3021L13.9829 12.4166L13.9849 12.4135L12.3221 11.3021ZM11.5334 12.2733L10.034 10.9497L10.0295 10.9548L11.5334 12.2733ZM10.9948 12.3344L11.8888 10.5453L11.8117 10.5068L11.7316 10.475L10.9948 12.3344ZM8.99417 11.1061L7.63998 12.5779L7.65444 12.5912L7.66915 12.6042L8.99417 11.1061ZM7.60953 9.38971L5.88195 10.3974L5.8844 10.4016L7.60953 9.38971ZM7.71905 8.8846L9.12428 10.3078L9.13001 10.3021L7.71905 8.8846ZM8.09184 8.45051L9.61408 9.74773L9.62731 9.7322L9.64022 9.71641L8.09184 8.45051ZM8.34104 8.03742L6.54099 7.16573L6.51881 7.21154L6.49898 7.25842L8.34104 8.03742ZM8.31994 7.60332L6.53273 8.50104L6.56975 8.57473L6.61271 8.64513L8.31994 7.60332ZM7.55326 5.76392L9.39904 4.99379L9.39792 4.99113L7.55326 5.76392ZM6.99256 5.33882L7.09652 3.34151L7.08923 3.34116L6.99256 5.33882ZM6.51628 5.32982V3.32982H6.48853L6.46079 3.33059L6.51628 5.32982ZM5.8531 5.64089L7.22497 7.09621L7.2939 7.03123L7.35639 6.96002L5.8531 5.64089ZM4.98191 7.70634L2.98223 7.74171L2.98344 7.81017L2.98933 7.87839L4.98191 7.70634ZM5.99779 10.2689L7.65926 9.15558L7.61591 9.09088L7.56766 9.02975L5.99779 10.2689ZM10.2482 14.0087L9.35433 15.7979L9.40733 15.8243L9.46181 15.8476L10.2482 14.0087ZM11.667 14.5308L11.0738 16.4408L11.0811 16.4431L11.0884 16.4453L11.667 14.5308ZM13.2345 14.6279L13.5725 16.5991L13.6013 16.5942L13.6299 16.5884L13.2345 14.6279ZM14.9136 13.4516L16.6226 14.4905L16.6907 14.3785L16.7435 14.2586L14.9136 13.4516ZM15.0583 12.2733L17.0291 11.9327L16.9668 11.5728L16.7814 11.258L15.0583 12.2733ZM17.086 2.90329L15.6752 4.32092L19.086 7.71527V2.90329H17.086ZM1.41278 14.8639L3.34116 15.3943L3.56325 14.587L3.14383 13.8622L1.41278 14.8639ZM0 20L-1.92838 19.4696L-2.84715 22.8097L0.504872 21.9353L0 20ZM5.27934 18.6227L6.23238 16.8644L5.53834 16.4882L4.77447 16.6875L5.27934 18.6227ZM10.0382 19.829L10.038 21.829H10.0382V19.829ZM10.0422 19.829V21.829H10.0432L10.0422 19.829ZM17.086 2.90328L18.4978 1.48664L15.086 -1.91343V2.90328H17.086ZM10.0422 18.1546V20.1546H10.0427L10.0422 18.1546ZM10.0382 18.1546L10.0381 20.1546H10.0382V18.1546ZM5.82596 17.0054L6.84217 15.2828L6.84054 15.2818L5.82596 17.0054ZM5.52351 16.8273L6.53809 15.1038L5.82207 14.6823L5.01817 14.8922L5.52351 16.8273ZM2.39047 17.6455L0.462036 17.1153L-0.456485 20.4561L2.89582 19.5806L2.39047 17.6455ZM3.22649 14.6048L5.15493 15.1351L5.38821 14.2866L4.92029 13.5413L3.22649 14.6048ZM3.03055 14.2928L4.72435 13.2293L4.72276 13.2268L3.03055 14.2928ZM15.476 10.1952C15.3413 10.1279 14.9641 9.94239 14.5912 9.76306C14.2834 9.61499 13.7967 9.3817 13.5586 9.29607L12.2051 13.0601C12.1622 13.0447 12.1954 13.056 12.3689 13.1363C12.5066 13.2 12.6786 13.2818 12.8575 13.3678C13.2157 13.5401 13.5745 13.7166 13.688 13.7733L15.476 10.1952ZM13.5659 9.29871C13.5102 9.27847 12.9794 9.05705 12.3512 9.12893C11.5037 9.22592 10.9578 9.74428 10.6594 10.1908L13.9849 12.4135C13.9308 12.4944 13.8096 12.654 13.5956 12.8041C13.3623 12.9676 13.0886 13.0707 12.806 13.103C12.5485 13.1325 12.3529 13.0952 12.2697 13.0759C12.1932 13.0581 12.1492 13.0398 12.1978 13.0575L13.5659 9.29871ZM10.6614 10.1876C10.662 10.1868 10.6376 10.2217 10.5753 10.3011C10.5194 10.3724 10.4516 10.4562 10.3792 10.5436C10.2332 10.7201 10.0914 10.8848 10.034 10.9497L13.0327 13.597C13.1611 13.4515 13.7303 12.793 13.9828 12.4166L10.6614 10.1876ZM10.0295 10.9548C10.1525 10.8145 10.4961 10.4938 11.0677 10.4261C11.5558 10.3683 11.8812 10.5415 11.8888 10.5453L10.1007 14.1234C10.3565 14.2512 10.8789 14.4764 11.538 14.3984C12.2808 14.3104 12.7695 13.8972 13.0372 13.5918L10.0295 10.9548ZM11.7316 10.475C11.2134 10.2697 10.7354 9.97614 10.3192 9.60798L7.66915 12.6042C8.4332 13.28 9.30927 13.8177 10.2579 14.1937L11.7316 10.475ZM10.3484 9.6343C9.94961 9.26741 9.60805 8.84392 9.33466 8.37782L5.8844 10.4016C6.35845 11.2098 6.95015 11.9432 7.63998 12.5779L10.3484 9.6343ZM9.3371 8.38199C9.40464 8.49778 9.49759 8.69854 9.53225 8.97231C9.56883 9.26137 9.52906 9.54371 9.43647 9.79116C9.35094 10.0198 9.23788 10.172 9.18131 10.2417C9.13048 10.3042 9.08755 10.344 9.12426 10.3078L6.31384 7.46144C6.30403 7.47112 5.89929 7.8304 5.69014 8.38938C5.40931 9.13992 5.57041 9.86334 5.88196 10.3974L9.3371 8.38199ZM9.13001 10.3021C9.31638 10.1165 9.60079 9.76333 9.61408 9.74773L6.5696 7.15328C6.52775 7.2024 6.48747 7.25104 6.45442 7.29111C6.41814 7.33507 6.39233 7.36654 6.3649 7.39944C6.33867 7.43089 6.32058 7.45205 6.3077 7.46664C6.29382 7.48235 6.2951 7.48007 6.30809 7.46714L9.13001 10.3021ZM9.64022 9.71641C9.86304 9.44388 10.0459 9.14085 10.1831 8.81641L6.49898 7.25842C6.51035 7.23155 6.52538 7.20672 6.54346 7.1846L9.64022 9.71641ZM10.1411 8.9091C10.32 8.5397 10.4035 8.13109 10.3835 7.72059L6.38823 7.9148C6.37565 7.65594 6.42833 7.39839 6.54099 7.16573L10.1411 8.9091ZM10.3835 7.72059C10.3636 7.3101 10.2408 6.91165 10.0272 6.56151L6.61271 8.64513C6.47821 8.42473 6.40082 8.17367 6.38823 7.9148L10.3835 7.72059ZM10.1071 6.7056C10.1299 6.75088 10.1384 6.77328 10.1133 6.71527C10.0973 6.67827 10.075 6.62574 10.0468 6.55849C9.99058 6.4248 9.918 6.24987 9.83923 6.05927C9.68461 5.68513 9.5041 5.24561 9.39904 4.99379L5.70747 6.53404C5.8094 6.77834 5.98109 7.1965 6.14248 7.58703C6.22172 7.77876 6.29811 7.96291 6.35917 8.10822C6.40245 8.2112 6.47852 8.39312 6.53273 8.50104L10.1071 6.7056ZM9.39792 4.99113C9.20795 4.53766 8.84249 3.9101 8.10596 3.56373C7.75289 3.39769 7.43403 3.35593 7.23296 3.34421C7.14228 3.33893 7.06459 3.33956 7.04572 3.33962C7.00613 3.33976 7.04832 3.33902 7.09652 3.34153L6.88861 7.33612C6.97524 7.34063 7.05747 7.33961 7.0593 7.3396C7.08186 7.33953 7.04698 7.34016 7.0003 7.33744C6.88721 7.33085 6.66105 7.30447 6.40369 7.18344C6.14264 7.06067 5.96064 6.89338 5.84722 6.7532C5.79413 6.68757 5.75935 6.63212 5.73891 6.59618C5.71851 6.56031 5.7093 6.5384 5.70859 6.53671L9.39792 4.99113ZM7.08923 3.34116C6.89631 3.33183 6.69279 3.32982 6.51628 3.32982V7.32982C6.67136 7.32982 6.79943 7.33182 6.8959 7.33649L7.08923 3.34116ZM6.46079 3.33059C6.06015 3.34171 5.66587 3.43524 5.30268 3.60559L7.00131 7.22701C6.86639 7.29029 6.72017 7.32493 6.57177 7.32905L6.46079 3.33059ZM5.30268 3.60559C4.93947 3.77596 4.61493 4.01962 4.3498 4.32176L7.35639 6.96002C7.25727 7.07298 7.13626 7.16371 7.00131 7.22701L5.30268 3.60559ZM4.48122 4.18557C3.99784 4.64123 3.61453 5.19267 3.35624 5.80504L7.04181 7.35957C7.0835 7.26073 7.1457 7.17094 7.22497 7.09621L4.48122 4.18557ZM3.35624 5.80504C3.09793 6.41744 2.97047 7.07704 2.98223 7.74171L6.9816 7.67097C6.97972 7.5644 7.00013 7.45839 7.04181 7.35957L3.35624 5.80504ZM2.98933 7.87839C3.10369 9.20291 3.60411 10.4644 4.42792 11.5081L7.56766 9.02975C7.22724 8.59847 7.0215 8.07866 6.9745 7.53429L2.98933 7.87839ZM4.33631 11.3822C5.59679 13.2633 7.32633 14.7847 9.35433 15.7979L11.1421 12.2196C9.73282 11.5155 8.53287 10.4593 7.65926 9.15558L4.33631 11.3822ZM9.46181 15.8476C9.98854 16.0729 10.5266 16.2709 11.0738 16.4408L12.2602 12.6208C11.8441 12.4916 11.435 12.3411 11.0346 12.1698L9.46181 15.8476ZM11.0884 16.4453C11.8933 16.6885 12.7438 16.7412 13.5725 16.5991L12.8966 12.6566C12.6793 12.6939 12.4563 12.68 12.2456 12.6163L11.0884 16.4453ZM13.6299 16.5884C14.2462 16.4641 14.8303 16.2139 15.3455 15.853L13.0504 12.5769C12.9875 12.621 12.9156 12.6519 12.8392 12.6673L13.6299 16.5884ZM15.3455 15.853C15.8606 15.4921 16.2956 15.0283 16.6226 14.4905L13.2046 12.4127C13.1656 12.4768 13.1133 12.5329 13.0504 12.5769L15.3455 15.853ZM16.7435 14.2586C17.0656 13.5284 17.165 12.7194 17.0291 11.9327L13.0875 12.614C13.0892 12.624 13.0881 12.6346 13.0836 12.6446L16.7435 14.2586ZM16.7814 11.258C16.6078 10.9634 16.3972 10.7629 16.237 10.6357C16.0818 10.5124 15.936 10.4284 15.848 10.3803C15.7582 10.3314 15.6705 10.2891 15.6197 10.2647C15.5565 10.2343 15.5194 10.2168 15.4731 10.1938L13.6909 13.7748C13.7692 13.8138 13.8463 13.8504 13.8862 13.8696C13.9385 13.8947 13.9428 13.8975 13.9332 13.8923C13.9254 13.888 13.8482 13.8465 13.7491 13.7678C13.645 13.6851 13.4781 13.5313 13.3352 13.2887L16.7814 11.258ZM18.4968 1.48567C16.4449 -0.556375 13.719 -1.78515 10.8273 -1.97427L10.5662 2.0172C12.4952 2.14336 14.3106 2.96292 15.6752 4.32092L18.4968 1.48567ZM10.8273 -1.97427C7.93555 -2.16339 5.07222 -1.30021 2.77029 0.456452L5.19692 3.63631C6.72903 2.46712 8.63724 1.89104 10.5662 2.0172L10.8273 -1.97427ZM2.77029 0.456452C0.468127 2.21329 -1.11614 4.74463 -1.68493 7.58046L2.23696 8.36708C2.61405 6.48702 3.66504 4.80532 5.19692 3.63631L2.77029 0.456452ZM-1.68493 7.58046C-2.25374 10.4164 -1.76764 13.3611 -0.318268 15.8656L3.14383 13.8622C2.18179 12.1997 1.8599 10.247 2.23696 8.36708L-1.68493 7.58046ZM-0.515596 14.3335L-1.92838 19.4696L1.92838 20.5305L3.34116 15.3943L-0.515596 14.3335ZM0.504872 21.9353L5.78421 20.5579L4.77447 16.6875L-0.504872 18.0648L0.504872 21.9353ZM4.3263 20.3811C6.07937 21.3312 8.04301 21.8288 10.038 21.829L10.0383 17.829C8.70816 17.8289 7.39965 17.4971 6.23238 16.8644L4.3263 20.3811ZM10.0382 21.829H10.0422V17.829H10.0382V21.829ZM10.0432 21.829C12.4061 21.8278 14.7164 21.1295 16.6822 19.8214L14.4662 16.4913C13.1573 17.3623 11.6174 17.8282 10.0412 17.829L10.0432 21.829ZM16.6822 19.8214C18.6481 18.5131 20.1818 16.6533 21.088 14.4757L17.395 12.9388C16.7937 14.3837 15.775 15.6203 14.4662 16.4913L16.6822 19.8214ZM21.088 14.4757C21.9942 12.298 22.2319 9.90127 21.7705 7.58868L17.8478 8.37129C18.1537 9.90464 17.9963 11.494 17.395 12.9388L21.088 14.4757ZM21.7705 7.58868C21.3091 5.27615 20.1698 3.15288 18.4978 1.48664L15.6742 4.31992C16.786 5.42788 17.5419 6.83789 17.8478 8.37129L21.7705 7.58868ZM15.086 2.90328V2.90329H19.086V2.90328H15.086ZM13.3816 15.1985C12.3813 15.8227 11.2238 16.1543 10.0417 16.1546L10.0427 20.1546C11.9721 20.1541 13.863 19.6129 15.499 18.5922L13.3816 15.1985ZM10.0422 16.1546H10.0382V20.1546H10.0422V16.1546ZM10.0383 16.1546C8.91303 16.1546 7.80906 15.8532 6.84217 15.2828L4.80976 18.728C6.39308 19.662 8.19891 20.1545 10.0381 20.1546L10.0383 16.1546ZM6.84054 15.2818L6.53809 15.1038L4.50894 18.5509L4.81139 18.7289L6.84054 15.2818ZM5.01817 14.8922L1.88513 15.7104L2.89582 19.5806L6.02886 18.7624L5.01817 14.8922ZM4.31891 18.1757L5.15493 15.1351L1.29805 14.0746L0.462036 17.1153L4.31891 18.1757ZM4.92029 13.5413L4.72435 13.2293L1.33674 15.3563L1.53269 15.6683L4.92029 13.5413ZM4.72276 13.2268C4.06448 12.1818 3.73276 10.9669 3.76858 9.73558L-0.229724 9.61927C-0.288669 11.6454 0.25736 13.6428 1.33833 15.3588L4.72276 13.2268ZM3.76858 9.73558C3.80441 8.50427 4.2062 7.31034 4.92432 6.30478L1.66917 3.98013C0.490439 5.63068 -0.170779 7.5931 -0.229724 9.61927L3.76858 9.73558ZM4.92432 6.30478C5.64251 5.29911 6.64517 4.52666 7.80648 4.08656L6.38896 0.346152C4.49066 1.06556 2.84783 2.32969 1.66917 3.98013L4.92432 6.30478ZM7.80648 4.08656C8.96786 3.64642 10.2347 3.55888 11.4465 3.83528L12.336 -0.0645527C10.3566 -0.516053 8.28718 -0.373222 6.38896 0.346152L7.80648 4.08656ZM11.4465 3.83528C12.6581 4.11166 13.759 4.73921 14.6103 5.63713L17.513 2.88494C16.1173 1.41289 14.3155 0.386961 12.336 -0.0645527L11.4465 3.83528ZM14.6103 5.63713C15.4616 6.53494 16.0253 7.66275 16.2316 8.87752L20.1752 8.20781C19.8358 6.20932 18.9088 4.3571 17.513 2.88494L14.6103 5.63713ZM16.2316 8.87752C16.4379 10.0922 16.2778 11.3408 15.771 12.4656L19.418 14.1087C20.2509 12.26 20.5146 10.2063 20.1752 8.20781L16.2316 8.87752ZM15.771 12.4656C15.2642 13.5905 14.433 14.5421 13.3811 15.1988L15.4995 18.5918C17.2211 17.517 18.5852 15.9573 19.418 14.1087L15.771 12.4656Z" fill="#36495E" mask="url(#path-1-inside-1_4467_36041)"/>
</g>
<defs>
<clipPath id="clip0_4467_36041">
<rect width="20" height="20" fill="white"/>
</clipPath>
</defs>
</svg>
