<svg width="83" height="82" viewBox="0 0 83 82" fill="none" xmlns="http://www.w3.org/2000/svg">
  <path d="M41.5 82C18.6169 82 0 63.6074 0 41C0 18.3926 18.6169 0 41.5 0C64.3831 0 83 18.3926 83 41C83 63.6074 64.3831 82 41.5 82ZM41.5 5.46667C21.6685 5.46667 5.53333 21.4075 5.53333 41C5.53333 60.5925 21.6685 76.5333 41.5 76.5333C61.3315 76.5333 77.4667 60.5925 77.4667 41C77.4667 21.4075 61.3315 5.46667 41.5 5.46667ZM37.9227 53.8658L62.8227 29.2658C63.9045 28.1971 63.9045 26.4696 62.8227 25.4009C61.7409 24.3321 59.9924 24.3321 58.9106 25.4009L35.9667 48.0684L26.856 39.0675C25.7743 37.9988 24.0257 37.9988 22.944 39.0675C21.8622 40.1363 21.8622 41.8637 22.944 42.9325L34.0106 53.8658C34.5501 54.3988 35.2584 54.6667 35.9667 54.6667C36.6749 54.6667 37.3832 54.3988 37.9227 53.8658Z" fill="black"/>
  </svg>
