<svg class="dn" height="0" version="1.1" width="0" xmlns="http://www.w3.org/2000/svg">
  <defs>
    <g id="hpa-cart"><svg width="33" height="32" viewBox="0 0 33 32" fill="none" xmlns="http://www.w3.org/2000/svg">
        <path
          d="M8.85547 2.66663L4.85547 7.99996L4.85547 26.6666C4.85547 27.3739 5.13642 28.0521 5.63652 28.5522C6.13661 29.0523 6.81489 29.3333 7.52214 29.3333L26.1888 29.3333C26.896 29.3333 27.5743 29.0523 28.0744 28.5522C28.5745 28.0521 28.8555 27.3739 28.8555 26.6666L28.8555 7.99996L24.8555 2.66663L8.85547 2.66663Z"
          stroke="currentColor" stroke-width="1.5" stroke-linecap="round" stroke-linejoin="round" />
        <path
          d="M22.1886 13.3334C22.1886 14.7479 21.6267 16.1044 20.6265 17.1046C19.6263 18.1048 18.2698 18.6667 16.8553 18.6667C15.4408 18.6667 14.0843 18.1048 13.0841 17.1046C12.0839 16.1044 11.522 14.7479 11.522 13.3334"
          stroke="currentColor" stroke-width="1.5" stroke-linecap="round" stroke-linejoin="round" />
        <path d="M4.85547 8L28.8555 8" stroke="currentColor" stroke-width="1.5" stroke-linecap="round"
          stroke-linejoin="round" />
      </svg>
    </g>
    <g id="sti-close--line"><svg xmlns="http://www.w3.org/2000/svg" xmlns:xlink="http://www.w3.org/1999/xlink"
        viewBox="0 0 16 16">
        <g id="sti-close--line">
          <path d="M11.9998 3.99995L4 11.9998" stroke="currentColor" stroke-miterlimit="10" stroke-linecap="round"
            stroke-linejoin="round"></path>
          <path d="M4.00027 4L12.0001 11.9998" stroke="currentColor" stroke-miterlimit="10" stroke-linecap="round"
            stroke-linejoin="round"></path>
        </g>
      </svg>
    </g>
    <g id="nav-caret--up"><svg width="14" height="9" viewBox="0 0 14 9" fill="none" xmlns="http://www.w3.org/2000/svg">
        <path d="M1 7.5L7 1.5L13 7.5" stroke="currentColor" stroke-width="1.5" stroke-linecap="round"
          stroke-linejoin="round" />
      </svg>
    </g>
    <g id="nav-caret--down"><svg width="14" height="8" viewBox="0 0 14 8" fill="none"
        xmlns="http://www.w3.org/2000/svg">
        <path d="M1 1L7 7L13 1" stroke="currentColor" stroke-width="1.5" stroke-linecap="round"
          stroke-linejoin="round" />
      </svg>
    </g>
    <g id="nav-home"><svg width="33" height="9" viewBox="0 0 33 9" fill="none" xmlns="http://www.w3.org/2000/svg">
        <path
          d="M6.512 0.0799997V8H5.552V0.0799997H6.512ZM1.256 0.0799997V8H0.296V0.0799997H1.256ZM5.996 3.536V4.436H0.8V3.536H5.996ZM11.3188 1.88C11.8868 1.88 12.3868 2.004 12.8188 2.252C13.2588 2.5 13.6028 2.86 13.8508 3.332C14.0988 3.796 14.2228 4.352 14.2228 5C14.2228 5.648 14.0988 6.208 13.8508 6.68C13.6028 7.144 13.2588 7.5 12.8188 7.748C12.3868 7.996 11.8868 8.12 11.3188 8.12C10.7588 8.12 10.2588 7.996 9.81875 7.748C9.37875 7.5 9.03475 7.144 8.78675 6.68C8.53875 6.208 8.41475 5.648 8.41475 5C8.41475 4.352 8.53875 3.796 8.78675 3.332C9.03475 2.86 9.37875 2.5 9.81875 2.252C10.2588 2.004 10.7588 1.88 11.3188 1.88ZM11.3188 2.708C10.9108 2.708 10.5628 2.8 10.2748 2.984C9.98675 3.168 9.76275 3.432 9.60275 3.776C9.45075 4.112 9.37475 4.52 9.37475 5C9.37475 5.472 9.45075 5.88 9.60275 6.224C9.76275 6.568 9.98675 6.832 10.2748 7.016C10.5628 7.2 10.9108 7.292 11.3188 7.292C11.7268 7.292 12.0748 7.2 12.3628 7.016C12.6508 6.832 12.8708 6.568 13.0228 6.224C13.1828 5.88 13.2628 5.472 13.2628 5C13.2628 4.52 13.1828 4.112 13.0228 3.776C12.8708 3.432 12.6508 3.168 12.3628 2.984C12.0748 2.8 11.7268 2.708 11.3188 2.708ZM16.0301 8V2H16.8701L16.9301 2.936C17.1461 2.568 17.4261 2.3 17.7701 2.132C18.1221 1.964 18.4821 1.88 18.8501 1.88C19.2741 1.88 19.6741 1.976 20.0501 2.168C20.4261 2.36 20.7141 2.656 20.9141 3.056C21.0421 2.784 21.2221 2.564 21.4541 2.396C21.6861 2.22 21.9381 2.092 22.2101 2.012C22.4901 1.924 22.7541 1.88 23.0021 1.88C23.3861 1.88 23.7501 1.96 24.0941 2.12C24.4461 2.28 24.7341 2.528 24.9581 2.864C25.1821 3.2 25.2941 3.632 25.2941 4.16V8H24.3341V4.256C24.3341 3.712 24.1981 3.32 23.9261 3.08C23.6541 2.84 23.3181 2.72 22.9181 2.72C22.6061 2.72 22.3141 2.796 22.0421 2.948C21.7701 3.1 21.5501 3.324 21.3821 3.62C21.2221 3.916 21.1421 4.28 21.1421 4.712V8H20.1821V4.256C20.1821 3.712 20.0461 3.32 19.7741 3.08C19.5021 2.84 19.1661 2.72 18.7661 2.72C18.5021 2.72 18.2301 2.792 17.9501 2.936C17.6781 3.072 17.4501 3.292 17.2661 3.596C17.0821 3.9 16.9901 4.3 16.9901 4.796V8H16.0301ZM29.9756 8.12C29.4076 8.12 28.8996 7.996 28.4516 7.748C28.0116 7.5 27.6676 7.144 27.4196 6.68C27.1716 6.208 27.0476 5.648 27.0476 5C27.0476 4.352 27.1716 3.796 27.4196 3.332C27.6676 2.86 28.0076 2.5 28.4396 2.252C28.8716 2.004 29.3636 1.88 29.9156 1.88C30.4756 1.88 30.9516 2 31.3436 2.24C31.7436 2.48 32.0476 2.808 32.2556 3.224C32.4636 3.632 32.5676 4.092 32.5676 4.604C32.5676 4.74 32.5636 4.864 32.5556 4.976C32.5476 5.088 32.5356 5.188 32.5196 5.276H27.6716V4.424H32.0996L31.6076 4.52C31.6076 3.944 31.4476 3.5 31.1276 3.188C30.8156 2.876 30.4036 2.72 29.8916 2.72C29.4996 2.72 29.1596 2.812 28.8716 2.996C28.5916 3.172 28.3716 3.432 28.2116 3.776C28.0596 4.112 27.9836 4.52 27.9836 5C27.9836 5.472 28.0636 5.88 28.2236 6.224C28.3836 6.568 28.6076 6.832 28.8956 7.016C29.1916 7.192 29.5436 7.28 29.9516 7.28C30.3916 7.28 30.7476 7.196 31.0196 7.028C31.2996 6.86 31.5236 6.632 31.6916 6.344L32.4476 6.788C32.2956 7.06 32.0996 7.296 31.8596 7.496C31.6276 7.696 31.3516 7.852 31.0316 7.964C30.7196 8.068 30.3676 8.12 29.9756 8.12Z"
          fill="#5B5B5B" />
      </svg>
    </g>
    <g id="mpa-gallery">
      <svg width="23" height="23" viewBox="0 0 23 23" fill="none" xmlns="http://www.w3.org/2000/svg">
        <rect y="23" width="23" height="10" transform="rotate(-90 0 23)" fill="currentColor" />
        <rect x="13" y="23" width="23" height="10" transform="rotate(-90 13 23)" fill="currentColor" />
      </svg>
    </g>
    <g id="mpa-list-items">
      <svg width="23" height="23" viewBox="0 0 23 23" fill="none" xmlns="http://www.w3.org/2000/svg">
        <rect width="23" height="23" fill="currentColor" />
      </svg>
    </g>
    <g id="hpa-chat">
      <svg width="14" height="14" viewBox="0 0 14 14" fill="none" xmlns="http://www.w3.org/2000/svg">
        <path
          d="M4.33324 6.83334C4.20139 6.83334 4.0725 6.87244 3.96286 6.9457C3.85323 7.01895 3.76778 7.12307 3.71732 7.24489C3.66687 7.36671 3.65366 7.50075 3.67939 7.63007C3.70511 7.75939 3.7686 7.87818 3.86184 7.97141C3.95507 8.06465 4.07386 8.12814 4.20318 8.15387C4.3325 8.17959 4.46655 8.16639 4.58837 8.11593C4.71018 8.06547 4.8143 7.98002 4.88756 7.87039C4.96081 7.76076 4.99991 7.63186 4.99991 7.50001C4.99991 7.3232 4.92967 7.15363 4.80465 7.02861C4.67962 6.90358 4.51006 6.83334 4.33324 6.83334ZM6.99991 6.83334C6.86806 6.83334 6.73916 6.87244 6.62953 6.9457C6.5199 7.01895 6.43445 7.12307 6.38399 7.24489C6.33353 7.36671 6.32033 7.50075 6.34605 7.63007C6.37178 7.75939 6.43527 7.87818 6.52851 7.97141C6.62174 8.06465 6.74053 8.12814 6.86985 8.15387C6.99917 8.17959 7.13322 8.16639 7.25503 8.11593C7.37685 8.06547 7.48097 7.98002 7.55422 7.87039C7.62748 7.76076 7.66658 7.63186 7.66658 7.50001C7.66658 7.3232 7.59634 7.15363 7.47132 7.02861C7.34629 6.90358 7.17672 6.83334 6.99991 6.83334ZM9.66658 6.83334C9.53472 6.83334 9.40583 6.87244 9.2962 6.9457C9.18656 7.01895 9.10112 7.12307 9.05066 7.24489C9.0002 7.36671 8.987 7.50075 9.01272 7.63007C9.03844 7.75939 9.10194 7.87818 9.19517 7.97141C9.28841 8.06465 9.4072 8.12814 9.53652 8.15387C9.66584 8.17959 9.79988 8.16639 9.9217 8.11593C10.0435 8.06547 10.1476 7.98002 10.2209 7.87039C10.2941 7.76076 10.3332 7.63186 10.3332 7.50001C10.3332 7.3232 10.263 7.15363 10.138 7.02861C10.013 6.90358 9.84339 6.83334 9.66658 6.83334ZM6.99991 0.833344C6.12443 0.833344 5.25752 1.00578 4.44869 1.34081C3.63985 1.67584 2.90492 2.16691 2.28587 2.78596C1.03562 4.03621 0.333244 5.7319 0.333244 7.50001C0.327416 9.03943 0.860439 10.5324 1.83991 11.72L0.506577 13.0533C0.414072 13.1471 0.351408 13.2661 0.326492 13.3955C0.301576 13.5248 0.315524 13.6586 0.366577 13.78C0.421949 13.9 0.511713 14.0008 0.624475 14.0696C0.737237 14.1384 0.867911 14.1722 0.999911 14.1667H6.99991C8.76802 14.1667 10.4637 13.4643 11.714 12.2141C12.9642 10.9638 13.6666 9.26812 13.6666 7.50001C13.6666 5.7319 12.9642 4.03621 11.714 2.78596C10.4637 1.53572 8.76802 0.833344 6.99991 0.833344ZM6.99991 12.8333H2.60658L3.22658 12.2133C3.28957 12.1516 3.33968 12.078 3.37401 11.9967C3.40834 11.9155 3.42621 11.8282 3.42658 11.74C3.42407 11.5642 3.35219 11.3964 3.22658 11.2733C2.35363 10.4014 1.81003 9.2537 1.68837 8.02587C1.56672 6.79804 1.87454 5.56601 2.5594 4.53969C3.24425 3.51337 4.26377 2.75625 5.44425 2.39733C6.62474 2.0384 7.89315 2.09988 9.03339 2.57129C10.1736 3.04269 11.1151 3.89486 11.6975 4.9826C12.2799 6.07035 12.4672 7.32637 12.2273 8.53668C11.9875 9.74699 11.3354 10.8367 10.3823 11.6202C9.42909 12.4036 8.23375 12.8324 6.99991 12.8333Z"
          fill="currentColor" />
      </svg>
    </g>

    <g id="hpa-search">
      <svg width="16" height="16" viewBox="0 0 24 24" fill="none" xmlns="http://www.w3.org/2000/svg">
        <path
          d="M11 19C15.4183 19 19 15.4183 19 11C19 6.58172 15.4183 3 11 3C6.58172 3 3 6.58172 3 11C3 15.4183 6.58172 19 11 19Z"
          stroke="currentColor" stroke-width="2" stroke-linecap="round" stroke-linejoin="round" />
        <path d="M20.9999 21L16.6499 16.65" stroke="currentColor" stroke-width="2" stroke-linecap="round"
          stroke-linejoin="round" />
      </svg>
    </g>

    <g id="hpa-heart-full">
      <svg width="24" height="24" viewBox="0 0 28 24" fill="none" xmlns="http://www.w3.org/2000/svg">
        <path
          d="M25.3361 1.64103C22.4004 -0.860706 18.0344 -0.410714 15.3399 2.36959L14.2845 3.45707L13.2292 2.36959C10.5399 -0.410714 6.16859 -0.860706 3.23293 1.64103C-0.131291 4.51241 -0.308074 9.66589 2.70259 12.7783L13.0685 23.4817C13.7381 24.1728 14.8256 24.1728 15.4952 23.4817L25.8611 12.7783C28.8771 9.66589 28.7003 4.51241 25.3361 1.64103Z"
          fill="currentColor" />
      </svg>
    </g>

    <g id="nav-thin-caret--right">
      <svg width="13" height="23" viewBox="0 0 13 23" fill="none" xmlns="http://www.w3.org/2000/svg">
        <path d="M1.375 21.75L11.625 11.5L1.375 1.25" stroke="#C3CBCD" stroke-width="2" stroke-linecap="round" stroke-linejoin="round"/>
      </svg>
    </g>

    <g id="nav-thin-caret--left">
      <svg width="13" height="23" viewBox="0 0 13 23" fill="none" xmlns="http://www.w3.org/2000/svg">
        <path d="M11.625 21.75L1.375 11.5L11.625 1.25" stroke="#C3CBCD" stroke-width="2" stroke-linecap="round" stroke-linejoin="round"/>
      </svg>
    </g>

    <g id="icon-1">
      <svg width="24" height="24" viewBox="0 0 24 24" fill="none" xmlns="http://www.w3.org/2000/svg">
        <path
          d="M20 7H4C2.89543 7 2 7.89543 2 9V19C2 20.1046 2.89543 21 4 21H20C21.1046 21 22 20.1046 22 19V9C22 7.89543 21.1046 7 20 7Z"
          stroke="#E31C79" stroke-width="1.5" stroke-linecap="round" stroke-linejoin="round" />
        <path
          d="M16 21V5C16 4.46957 15.7893 3.96086 15.4142 3.58579C15.0391 3.21071 14.5304 3 14 3H10C9.46957 3 8.96086 3.21071 8.58579 3.58579C8.21071 3.96086 8 4.46957 8 5V21"
          stroke="#E31C79" stroke-width="1.5" stroke-linecap="round" stroke-linejoin="round" />
      </svg>
    </g>

    <g id="icon-2">
      <svg width="24" height="24" viewBox="0 0 24 24" fill="none" xmlns="http://www.w3.org/2000/svg">
        <path d="M12 1V23" stroke="#E31C79" stroke-width="1.5" stroke-linecap="round" stroke-linejoin="round" />
        <path
          d="M17 5H9.5C8.57174 5 7.6815 5.36875 7.02513 6.02513C6.36875 6.6815 6 7.57174 6 8.5C6 9.42826 6.36875 10.3185 7.02513 10.9749C7.6815 11.6313 8.57174 12 9.5 12H14.5C15.4283 12 16.3185 12.3687 16.9749 13.0251C17.6313 13.6815 18 14.5717 18 15.5C18 16.4283 17.6313 17.3185 16.9749 17.9749C16.3185 18.6313 15.4283 19 14.5 19H6"
          stroke="#E31C79" stroke-width="1.5" stroke-linecap="round" stroke-linejoin="round" />
      </svg>
    </g>

    <g id="icon-3">
      <svg width="24" height="24" viewBox="0 0 24 24" fill="none" xmlns="http://www.w3.org/2000/svg">
        <path
          d="M12 22C17.5228 22 22 17.5228 22 12C22 6.47715 17.5228 2 12 2C6.47715 2 2 6.47715 2 12C2 17.5228 6.47715 22 12 22Z"
          stroke="#E31C79" stroke-width="1.5" stroke-linecap="round" stroke-linejoin="round" />
        <path d="M12 6V12L16 14" stroke="#E31C79" stroke-width="1.5" stroke-linecap="round" stroke-linejoin="round" />
      </svg>
    </g>

    <g id="icon-4">
      <svg width="24" height="24" viewBox="0 0 24 24" fill="none" xmlns="http://www.w3.org/2000/svg">
        <path
          d="M12 15C15.866 15 19 11.866 19 8C19 4.13401 15.866 1 12 1C8.13401 1 5 4.13401 5 8C5 11.866 8.13401 15 12 15Z"
          stroke="#E31C79" stroke-width="1.5" stroke-linecap="round" stroke-linejoin="round" />
        <path d="M8.21 13.8899L7 22.9999L12 19.9999L17 22.9999L15.79 13.8799" stroke="#E31C79" stroke-width="1.5"
          stroke-linecap="round" stroke-linejoin="round" />
      </svg>
    </g>

    <g id="icon-cart">
      <path
        d="M8.85596 2.66699L4.85596 8.00033L4.85596 26.667C4.85596 27.3742 5.13691 28.0525 5.63701 28.5526C6.1371 29.0527 6.81538 29.3337 7.52262 29.3337L26.1893 29.3337C26.8965 29.3337 27.5748 29.0527 28.0749 28.5526C28.575 28.0525 28.856 27.3742 28.856 26.667L28.856 8.00033L24.856 2.66699L8.85596 2.66699Z"
        stroke="#191919" stroke-width="1.5" stroke-linecap="round" stroke-linejoin="round" />
      <path
        d="M22.1891 13.333C22.1891 14.7475 21.6272 16.1041 20.627 17.1042C19.6268 18.1044 18.2703 18.6663 16.8558 18.6663C15.4413 18.6663 14.0848 18.1044 13.0846 17.1042C12.0844 16.1041 11.5225 14.7475 11.5225 13.333"
        stroke="#191919" stroke-width="1.5" stroke-linecap="round" stroke-linejoin="round" />
      <path d="M4.85596 8L28.856 8" stroke="#191919" stroke-width="1.5" stroke-linecap="round"
        stroke-linejoin="round" />
    </g>

    <g id="icon-heart">
      <path
        d="M26.6426 3.14715C25.9616 2.46582 25.153 1.92534 24.2631 1.55659C23.3731 1.18784 22.4193 0.998047 21.456 0.998047C20.4926 0.998047 19.5388 1.18784 18.6488 1.55659C17.7589 1.92534 16.9503 2.46582 16.2693 3.14715L14.856 4.56048L13.4426 3.14715C12.067 1.77156 10.2013 0.99876 8.25595 0.99876C6.31058 0.99876 4.44488 1.77156 3.06929 3.14715C1.6937 4.52274 0.920898 6.38844 0.920898 8.33381C0.920898 10.2792 1.6937 12.1449 3.06929 13.5205L14.856 25.3071L26.6426 13.5205C27.3239 12.8395 27.8644 12.0309 28.2332 11.141C28.6019 10.251 28.7917 9.29713 28.7917 8.33381C28.7917 7.3705 28.6019 6.41662 28.2332 5.52667C27.8644 4.63673 27.3239 3.82816 26.6426 3.14715Z"
        stroke="#191919" stroke-width="1.5" stroke-linecap="round" stroke-linejoin="round" />
    </g>

    <g id="icon-store">
      <path
        d="M30.1891 10.4264C30.1956 10.342 30.1956 10.2573 30.1891 10.173L27.5225 3.50636C27.4183 3.24283 27.2329 3.01934 26.9932 2.8683C26.7534 2.71726 26.4718 2.64652 26.1891 2.66636H7.52246C7.25542 2.6661 6.99446 2.74603 6.77337 2.8958C6.55229 3.04557 6.38127 3.25827 6.28246 3.50636L3.61579 10.173C3.60937 10.2573 3.60937 10.342 3.61579 10.4264C3.57149 10.5006 3.53994 10.5817 3.52246 10.6664C3.5373 11.588 3.79076 12.4901 4.25812 13.2846C4.72548 14.0791 5.39078 14.7389 6.18913 15.1997V27.9997C6.18913 28.3533 6.3296 28.6925 6.57965 28.9425C6.8297 29.1925 7.16884 29.333 7.52246 29.333H26.1891C26.5427 29.333 26.8819 29.1925 27.1319 28.9425C27.382 28.6925 27.5225 28.3533 27.5225 27.9997V15.253C28.3285 14.7877 28.9988 14.1195 29.4666 13.3148C29.9344 12.5102 30.1835 11.5971 30.1891 10.6664C30.2016 10.5868 30.2016 10.5059 30.1891 10.4264ZM18.1891 26.6664H15.5225V21.333H18.1891V26.6664ZM24.8558 26.6664H20.8558V19.9997C20.8558 19.6461 20.7153 19.3069 20.4653 19.0569C20.2152 18.8068 19.8761 18.6664 19.5225 18.6664H14.1891C13.8355 18.6664 13.4964 18.8068 13.2463 19.0569C12.9963 19.3069 12.8558 19.6461 12.8558 19.9997V26.6664H8.85579V15.9997C9.61509 15.9954 10.3647 15.829 11.0545 15.5117C11.7444 15.1944 12.3585 14.7335 12.8558 14.1597C13.3563 14.7272 13.9718 15.1817 14.6615 15.493C15.3511 15.8043 16.0991 15.9654 16.8558 15.9654C17.6125 15.9654 18.3605 15.8043 19.0501 15.493C19.7398 15.1817 20.3553 14.7272 20.8558 14.1597C21.3531 14.7335 21.9672 15.1944 22.6571 15.5117C23.3469 15.829 24.0965 15.9954 24.8558 15.9997V26.6664ZM24.8558 13.333C24.1486 13.333 23.4703 13.0521 22.9702 12.552C22.4701 12.0519 22.1891 11.3736 22.1891 10.6664C22.1891 10.3127 22.0487 9.9736 21.7986 9.72355C21.5486 9.4735 21.2094 9.33302 20.8558 9.33302C20.5022 9.33302 20.163 9.4735 19.913 9.72355C19.6629 9.9736 19.5225 10.3127 19.5225 10.6664C19.5225 11.3736 19.2415 12.0519 18.7414 12.552C18.2413 13.0521 17.563 13.333 16.8558 13.333C16.1486 13.333 15.4703 13.0521 14.9702 12.552C14.4701 12.0519 14.1891 11.3736 14.1891 10.6664C14.1891 10.3127 14.0487 9.9736 13.7986 9.72355C13.5486 9.4735 13.2094 9.33302 12.8558 9.33302C12.5022 9.33302 12.163 9.4735 11.913 9.72355C11.6629 9.9736 11.5225 10.3127 11.5225 10.6664C11.5356 11.0165 11.4796 11.3659 11.3577 11.6945C11.2359 12.023 11.0505 12.3244 10.8121 12.5813C10.5738 12.8382 10.2872 13.0456 9.96867 13.1918C9.65016 13.3379 9.30599 13.4199 8.95579 13.433C8.24855 13.4595 7.55974 13.204 7.04089 12.7227C6.78398 12.4843 6.57653 12.1977 6.43038 11.8792C6.28424 11.5607 6.20226 11.2165 6.18913 10.8664L8.42913 5.33302H25.2825L27.5225 10.8664C27.4719 11.5384 27.1688 12.1663 26.6741 12.624C26.1794 13.0816 25.5297 13.3349 24.8558 13.333Z"
        fill="#191919" stroke="white" stroke-width="1.3" />
    </g>

    <g id="icon-search">
      <path
        d="M11.3999 19C15.8182 19 19.3999 15.4183 19.3999 11C19.3999 6.58172 15.8182 3 11.3999 3C6.98162 3 3.3999 6.58172 3.3999 11C3.3999 15.4183 6.98162 19 11.3999 19Z"
        stroke="#191919" stroke-width="1.5" stroke-linecap="round" stroke-linejoin="round" />
      <path d="M21.3998 21.0004L17.0498 16.6504" stroke="#191919" stroke-width="1.5" stroke-linecap="round"
        stroke-linejoin="round" />
    </g>

    <g id="icon-drawer">
      <line x1="3.75" y1="4.5" x2="21" y2="4.5" stroke="black" stroke-width="1.5" stroke-linecap="round" />
      <line x1="3.75" y1="12" x2="21" y2="12" stroke="black" stroke-width="1.5" stroke-linecap="round" />
      <line x1="3.75" y1="19.5" x2="21" y2="19.5" stroke="black" stroke-width="1.5" stroke-linecap="round" />
    </g>

    <g id="icon-profile">
      <path
        d="M26.6666 28V25.3333C26.6666 23.9188 26.1047 22.5623 25.1045 21.5621C24.1043 20.5619 22.7477 20 21.3333 20L10.6666 20C9.2521 20 7.89554 20.5619 6.89535 21.5621C5.89515 22.5623 5.33325 23.9188 5.33325 25.3333V28"
        stroke="#191919" stroke-width="1.5" stroke-linecap="round" stroke-linejoin="round" />
      <path
        d="M16.0001 14.6667C18.9456 14.6667 21.3334 12.2789 21.3334 9.33333C21.3334 6.38781 18.9456 4 16.0001 4C13.0546 4 10.6667 6.38781 10.6667 9.33333C10.6667 12.2789 13.0546 14.6667 16.0001 14.6667Z"
        stroke="#191919" stroke-width="1.5" stroke-linecap="round" stroke-linejoin="round" />
    </g>

    <g id="icon-order">
      <path
        d="M6 2L3 6L3 20C3 20.5304 3.21071 21.0391 3.58579 21.4142C3.96086 21.7893 4.46957 22 5 22L19 22C19.5304 22 20.0391 21.7893 20.4142 21.4142C20.7893 21.0391 21 20.5304 21 20L21 6L18 2L6 2Z"
        stroke="#191919" stroke-width="1.5" stroke-linecap="round" stroke-linejoin="round" />
      <path
        d="M16 10C16 11.0609 15.5786 12.0783 14.8284 12.8284C14.0783 13.5786 13.0609 14 12 14C10.9391 14 9.92172 13.5786 9.17157 12.8284C8.42143 12.0783 8 11.0609 8 10"
        stroke="#191919" stroke-width="1.5" stroke-linecap="round" stroke-linejoin="round" />
      <path d="M3 6L21 6" stroke="#191919" stroke-width="1.5" stroke-linecap="round" stroke-linejoin="round" />
    </g>

    <g id="icon-smile">
      <path
        d="M12 22C17.5228 22 22 17.5228 22 12C22 6.47715 17.5228 2 12 2C6.47715 2 2 6.47715 2 12C2 17.5228 6.47715 22 12 22Z"
        stroke="#191919" stroke-width="1.5" stroke-linecap="round" stroke-linejoin="round" />
      <path d="M8 14C8 14 9.5 16 12 16C14.5 16 16 14 16 14" stroke="#191919" stroke-width="1.5" stroke-linecap="round"
        stroke-linejoin="round" />
      <path d="M15 9H15.01" stroke="#191919" stroke-width="1.5" stroke-linecap="round" stroke-linejoin="round" />
      <path d="M9 9H9.01" stroke="#191919" stroke-width="1.5" stroke-linecap="round" stroke-linejoin="round" />
    </g>

    <g id="icon-comment">
      <path d="M16 11V7M21 2H3V18H8V22L12 18H17L21 14V2ZM11 11V7V11Z" stroke="#191919" stroke-width="1.5"
        stroke-linecap="round" stroke-linejoin="round" />
    </g>

    <g id="icon-help">
      <path
        d="M12 22C17.5228 22 22 17.5228 22 12C22 6.47715 17.5228 2 12 2C6.47715 2 2 6.47715 2 12C2 17.5228 6.47715 22 12 22Z"
        stroke="#191919" stroke-width="1.5" stroke-linecap="round" stroke-linejoin="round" />
      <path d="M12 17H12.01" stroke="#191919" stroke-width="1.5" stroke-linecap="round" stroke-linejoin="round" />
      <path
        d="M9.09009 8.99959C9.32519 8.33126 9.78924 7.7677 10.4 7.40873C11.0108 7.04975 11.729 6.91853 12.4273 7.0383C13.1255 7.15808 13.7589 7.52112 14.2152 8.06312C14.6714 8.60512 14.9211 9.29112 14.9201 9.99959C14.9201 11.9996 11.9201 12.9996 11.9201 12.9996"
        stroke="#191919" stroke-width="1.5" stroke-linecap="round" stroke-linejoin="round" />
    </g>

    <g id="icon-blog">
      <path
        d="M17 3.0003C17.2626 2.73766 17.5744 2.52932 17.9176 2.38718C18.2608 2.24503 18.6286 2.17188 19 2.17188C19.3714 2.17187 19.7392 2.24503 20.0824 2.38718C20.4256 2.52932 20.7374 2.73766 21 3.0003C21.2626 3.26295 21.471 3.57475 21.6131 3.91791C21.7553 4.26107 21.8284 4.62887 21.8284 5.0003C21.8284 5.37174 21.7553 5.73953 21.6131 6.08269C21.471 6.42585 21.2626 6.73766 21 7.0003L7.5 20.5003L2 22.0003L3.5 16.5003L17 3.0003Z"
        stroke="#191919" stroke-width="1.5" stroke-linecap="round" stroke-linejoin="round" />
    </g>

    <g id="icon-whatsapp">
      <g clip-path="url(#clip0_4562_66483)">
        <path
          d="M17.4984 14.381C17.2006 14.2322 15.7319 13.512 15.4582 13.4136C15.1845 13.314 14.9855 13.2647 14.7866 13.5624C14.5876 13.8589 14.0149 14.5298 13.84 14.7279C13.6664 14.9259 13.4916 14.9499 13.1937 14.8011C12.3136 14.4523 11.5012 13.9535 10.793 13.3272C10.1399 12.7262 9.5799 12.0321 9.13143 11.2675C8.9578 10.9698 9.11334 10.809 9.26286 10.6614C9.3967 10.5281 9.5619 10.3145 9.71021 10.1405C9.83305 9.99021 9.93374 9.8233 10.0092 9.64475C10.049 9.5627 10.0675 9.47207 10.0631 9.38109C10.0586 9.29012 10.0314 9.20168 9.98392 9.12384C9.90916 8.97501 9.3123 7.51188 9.06391 6.91655C8.82154 6.33803 8.57556 6.41604 8.39108 6.40644C8.21744 6.39804 8.01849 6.39564 7.81953 6.39564C7.66819 6.39984 7.51936 6.43517 7.3824 6.49941C7.24544 6.56366 7.12331 6.65542 7.02371 6.76892C6.68612 7.08716 6.41882 7.47189 6.23883 7.89862C6.05884 8.32535 5.97011 8.78472 5.9783 9.24746C6.07512 10.3688 6.49881 11.4376 7.19735 12.3225C8.4778 14.2334 10.2355 15.78 12.2978 16.8103C12.8541 17.0482 13.4224 17.2573 14.0004 17.4369C14.6097 17.621 15.2539 17.6609 15.8814 17.5533C16.2971 17.4695 16.6907 17.3007 17.0375 17.0578C17.3843 16.8148 17.6767 16.5029 17.8963 16.1418C18.0922 15.6976 18.1526 15.2059 18.0699 14.7279C17.9964 14.603 17.7974 14.5298 17.4984 14.381ZM20.5032 3.4838C18.4533 1.44378 15.7285 0.214779 12.8361 0.0256118C9.94367 -0.163555 7.08075 0.700002 4.78033 2.45551C2.4799 4.21102 0.898744 6.73885 0.331222 9.56838C-0.236299 12.3979 0.248491 15.3363 1.69534 17.8365L0 23.9999L6.33521 22.3471C8.08741 23.2968 10.0507 23.7945 12.0458 23.7946H12.0506C14.4141 23.7934 16.7242 23.095 18.689 21.7874C20.6538 20.4799 22.1853 18.6221 23.0898 16.4485C23.9943 14.275 24.2314 11.8834 23.771 9.57584C23.3106 7.26827 22.1735 5.14832 20.5032 3.4838ZM17.3284 20.2743C15.7466 21.2612 13.9175 21.7849 12.0506 21.7854H12.0458C10.2672 21.7853 8.52129 21.309 6.99116 20.4063L6.62822 20.1926L2.86857 21.1745L3.87178 17.5257L3.63666 17.1512C2.5931 15.4946 2.06646 13.5673 2.12332 11.6128C2.18018 9.65828 2.81799 7.76446 3.95609 6.1708C5.0942 4.57713 6.6815 3.35519 8.51726 2.65948C10.353 1.96377 12.3548 1.82555 14.2695 2.26229C16.1842 2.69903 17.9257 3.69111 19.274 5.1131C20.6223 6.53508 21.5167 8.3231 21.8441 10.251C22.1715 12.179 21.9172 14.1603 21.1134 15.9444C20.3097 17.7285 18.9924 19.2353 17.3284 20.2743Z"
          fill="#E31C79" stroke="#F5F5F5" stroke-width="0.5" />
      </g>
      <defs>
        <clipPath id="clip0_4562_66483">
          <rect width="24" height="24" fill="white" />
        </clipPath>
      </defs>
    </g>


    <g id="footer-wpp">
      <svg viewBox="0 0 25 24" fill="none" xmlns="http://www.w3.org/2000/svg">
        <path fill-rule="evenodd" clip-rule="evenodd"
          d="M22.552 11.5259C22.4652 9.24961 21.5053 7.09416 19.8716 5.50674C18.2379 3.91933 16.0558 3.02181 13.778 3.00039C11.5002 2.97898 9.30158 3.83532 7.63833 5.39175C5.97508 6.94817 4.97489 9.08518 4.84526 11.3594C4.84526 11.4912 4.84526 11.616 4.84526 11.7478C4.84395 13.3498 5.28301 14.9213 6.11448 16.2907L4.51929 21L9.42281 19.4395C10.7667 20.1773 12.279 20.5539 13.812 20.5326C15.345 20.5112 16.8463 20.0926 18.1691 19.3176C19.492 18.5427 20.5912 17.4378 21.3594 16.111C22.1276 14.7842 22.5385 13.2809 22.552 11.7478V11.5259ZM13.6952 19.1551C12.2387 19.1593 10.8131 18.7347 9.59621 17.9344L6.73871 18.843L7.66809 16.1034C6.74388 14.8471 6.24566 13.3282 6.24626 11.7686C6.24716 11.5368 6.26105 11.3053 6.28788 11.0751C6.48354 9.23349 7.35819 7.53084 8.74121 6.29922C10.1242 5.0676 11.9164 4.39533 13.7683 4.41352C15.6201 4.43171 17.3988 5.13905 18.7573 6.3976C20.1159 7.65615 20.9569 9.37565 21.1164 11.2207C21.1269 11.4124 21.1269 11.6046 21.1164 11.7963C21.0944 13.7537 20.3 15.6232 18.9062 16.9975C17.5123 18.3719 15.6319 19.1399 13.6744 19.1343L13.6952 19.1551Z"
          fill="#5B5B5B" />
        <path fill-rule="evenodd" clip-rule="evenodd"
          d="M18.0815 13.6508C17.8621 13.5422 16.7724 13.0327 16.5672 12.9716C16.362 12.9104 16.2205 12.8629 16.0719 13.0735C15.9233 13.284 15.4988 13.7527 15.3643 13.9022C15.2299 14.0516 15.1025 14.0584 14.8761 13.9497C14.2226 13.7079 13.6207 13.3533 13.1001 12.9037C12.6137 12.4807 12.1984 11.988 11.8689 11.4432C11.7415 11.2327 11.8689 11.124 11.9679 11.0153C12.067 10.9066 12.1873 10.7708 12.3005 10.6485L12.3783 10.5466C12.4299 10.4652 12.4772 10.3813 12.5199 10.2953C12.5533 10.2383 12.5709 10.174 12.5709 10.1085C12.5709 10.0431 12.5533 9.97873 12.5199 9.92172C12.4703 9.81983 12.0245 8.78056 11.8123 8.35263C11.6 7.9247 11.4443 8.0062 11.3099 8.0062C11.1755 8.0062 11.0339 8.0062 10.8853 8.0062C10.7737 8.00892 10.6638 8.03386 10.5627 8.07946C10.4616 8.12506 10.3715 8.19032 10.298 8.2711C10.0468 8.49538 9.84764 8.76798 9.71353 9.07111C9.57942 9.37424 9.51338 9.70112 9.5197 10.0304C9.52509 10.2741 9.56312 10.5161 9.6329 10.7504C9.80549 11.2782 10.0738 11.7726 10.4254 12.2108C11.3494 13.5956 12.6614 14.7021 14.211 15.4033C16.4611 16.2456 16.4611 15.9603 16.8715 15.9264C17.1801 15.8693 17.4727 15.7502 17.73 15.577C17.9873 15.4037 18.2036 15.1802 18.3645 14.9211C18.5098 14.6079 18.5541 14.2601 18.4919 13.9225C18.4494 13.7935 18.3079 13.7391 18.0815 13.6508Z"
          fill="#5B5B5B" />
      </svg>
    </g>

    <g id="footer-tel">
      <svg viewBox="0 0 25 24" fill="none" xmlns="http://www.w3.org/2000/svg">
        <path
          d="M21.5187 16.4765V19.1862C21.5198 19.4377 21.4681 19.6867 21.3671 19.9172C21.2662 20.1477 21.1181 20.3546 20.9323 20.5247C20.7466 20.6947 20.5273 20.8242 20.2886 20.9048C20.0498 20.9854 19.7968 21.0153 19.5458 20.9927C16.7608 20.6907 14.0857 19.7409 11.7353 18.2197C9.54858 16.8329 7.69462 14.9827 6.30509 12.8003C4.77556 10.4439 3.8237 7.76107 3.52663 4.96915C3.50402 4.71938 3.53376 4.46764 3.61397 4.22996C3.69418 3.99229 3.8231 3.77389 3.99251 3.58866C4.16193 3.40343 4.36814 3.25544 4.59801 3.15411C4.82787 3.05278 5.07636 3.00032 5.32765 3.00009H8.04276C8.48198 2.99577 8.90778 3.151 9.24081 3.43683C9.57383 3.72267 9.79136 4.11961 9.85283 4.55366C9.96743 5.42084 10.18 6.27229 10.4864 7.09177C10.6081 7.41507 10.6345 7.76642 10.5623 8.1042C10.4901 8.44198 10.3224 8.75203 10.0791 8.99761L8.92969 10.1447C10.2181 12.406 12.0941 14.2784 14.3599 15.5642L15.5093 14.4171C15.7554 14.1742 16.066 14.0069 16.4045 13.9348C16.7429 13.8628 17.095 13.8891 17.4189 14.0106C18.24 14.3164 19.0932 14.5285 19.9621 14.6429C20.4017 14.7048 20.8032 14.9258 21.0902 15.2639C21.3772 15.6019 21.5297 16.0335 21.5187 16.4765Z"
          stroke="#5B5B5B" stroke-width="1.5" stroke-linecap="round" stroke-linejoin="round" />
        <rect x="0.519287" width="24" height="24" />
      </svg>
    </g>

        <g id="mpa-external-link--line">
      <svg width="24" height="24" viewBox="0 0 24 24" fill="none" xmlns="http://www.w3.org/2000/svg">
        <path d="M21 15V19C21 19.5304 20.7893 20.0391 20.4142 20.4142C20.0391 20.7893 19.5304 21 19 21H5C4.46957 21 3.96086 20.7893 3.58579 20.4142C3.21071 20.0391 3 19.5304 3 19V15" stroke="#E31C79" stroke-width="1.5" stroke-linecap="round" stroke-linejoin="round"/>
        <path d="M17 10L12 15L7 10" stroke="#E31C79" stroke-width="1.5" stroke-linecap="round" stroke-linejoin="round"/>
        <path d="M12 3V15" stroke="#E31C79" stroke-width="1.5" stroke-linecap="round" stroke-linejoin="round"/>
      </svg>
    </g>

    <g id="measuring-tape">
      <svg width="24" height="24" viewBox="0 0 24 24" fill="none" xmlns="http://www.w3.org/2000/svg">
        <path d="M11.2634 21.9793C10.158 21.9278 9.23943 21.7803 8.24233 21.4941C6.85668 21.0963 5.60658 20.4353 4.52354 19.5277C4.13293 19.2004 3.53236 18.5792 3.26865 18.2297C2.76983 17.5686 2.34807 16.7942 2.13649 16.1508L2.01817 15.791L2.00478 11.3888C1.99107 6.88181 2.00363 5.9717 2.08481 5.58934C2.12504 5.39982 2.30709 5.03593 2.49319 4.77302C2.66201 4.53454 3.07591 4.1182 3.34911 3.91206C3.98857 3.42956 4.73612 3.05653 5.71146 2.73326C6.8463 2.35712 7.92755 2.15069 9.38777 2.03139C9.86066 1.99276 10.0275 1.99146 11.0634 2.01834C12.2434 2.04897 12.5826 2.06815 13.1266 2.13504C15.0803 2.37526 16.6222 2.83966 17.6881 3.50892C18.387 3.9478 18.97 4.6378 19.1173 5.20053C19.1728 5.41278 19.2011 6.24732 19.2029 7.72449C19.2037 8.35043 19.2113 8.90477 19.2198 8.95635C19.2309 9.02338 19.2479 9.05015 19.2794 9.05015C19.3341 9.05015 20.3702 8.68734 20.9419 8.46802C21.1757 8.3783 21.4161 8.29172 21.4761 8.2756C21.6794 8.22103 21.8567 8.28953 21.949 8.45831C21.9895 8.5323 21.9927 8.82034 21.999 12.9271C22.0026 15.3414 21.9962 18.0008 21.9847 18.8368C21.9647 20.287 21.9615 20.3599 21.9148 20.4251C21.8538 20.5102 21.4556 20.7118 21.1037 20.8356C19.6804 21.3363 17.8552 21.6808 15.7025 21.8552C14.1253 21.983 12.3875 22.0316 11.2634 21.9793ZM12.7778 19.8606C12.7795 18.2987 12.8038 17.5563 12.8575 17.4281C12.9051 17.3147 13.0286 17.2108 13.1409 17.1897C13.2545 17.1684 13.4197 17.2305 13.5157 17.3308L13.5881 17.4064L13.5979 19.2938L13.6077 21.1812H13.715C14.1907 21.1812 16.1525 21.0289 16.9691 20.9286L17.1979 20.9005L17.2069 19.0336L17.216 17.1667L17.2746 17.0472C17.3429 16.908 17.436 16.8499 17.5907 16.8499C17.7187 16.8499 17.8247 16.9004 17.9104 17.0023C17.9952 17.103 17.9991 17.1817 18.0185 19.162L18.0344 20.7821L18.1251 20.7662C19.1377 20.5887 20.42 20.2568 21.0045 20.021L21.217 19.9353L21.2233 14.5928C21.2268 11.6544 21.2224 9.25025 21.2137 9.25025C21.2049 9.25025 20.7913 9.38466 20.2945 9.54894C18.6134 10.1049 17.6431 10.3617 16.3722 10.587C14.6645 10.8898 13.7811 10.9592 11.6011 10.9619C10.1586 10.9636 10.0376 10.9585 8.97512 10.8494C6.72544 10.6186 4.99658 10.1146 3.84798 9.3546C3.5467 9.15526 3.08543 8.76612 2.92773 8.57825C2.86845 8.50763 2.80795 8.44985 2.79328 8.44985C2.75602 8.44985 2.78278 15.3203 2.82099 15.5659C2.83597 15.6622 2.87163 15.8198 2.90024 15.9161C2.96122 16.1213 3.1501 16.5789 3.17386 16.5789C3.18288 16.5789 3.1983 16.005 3.20812 15.3036C3.21795 14.6021 3.23507 13.9708 3.24617 13.9006C3.25985 13.814 3.28775 13.7515 3.33281 13.7064C3.39362 13.6456 3.4162 13.6399 3.59836 13.6399C3.79282 13.6399 3.79944 13.642 3.88351 13.7275L3.96958 13.815L3.98748 15.8511L4.00538 17.8872L4.17341 18.0772C4.36926 18.2987 4.91854 18.836 5.05566 18.9403C5.10761 18.9798 5.15825 19.0039 5.1682 18.994C5.17814 18.9841 5.19289 18.2528 5.20098 17.3689C5.21485 15.8535 5.21842 15.7563 5.2635 15.6655C5.32999 15.5315 5.42141 15.472 5.57912 15.4602C5.75652 15.4469 5.87349 15.5096 5.92115 15.6436C5.94908 15.7221 5.95816 16.1151 5.96806 17.6752L5.98035 19.6095L6.09599 19.6935C6.24778 19.8038 6.74646 20.0613 7.19949 20.2633C7.54972 20.4194 8.3025 20.7059 8.36247 20.7059C8.39381 20.7059 8.42493 19.2472 8.42493 17.7775V17.0333L8.52851 16.9513C8.6112 16.8858 8.66039 16.8672 8.77235 16.8592C8.89836 16.8502 8.92529 16.8576 9.03764 16.9329L9.16269 17.0166L9.17855 18.8925C9.18733 19.9309 9.20482 20.802 9.21772 20.8435C9.2373 20.9065 9.26083 20.9235 9.36442 20.9496C9.50286 20.9843 10.2069 21.0902 10.5882 21.1335C10.8975 21.1687 11.8266 21.1962 12.3701 21.1863L12.7765 21.1788L12.7778 19.8606ZM12.8265 10.1751C14.1451 10.1247 15.4539 9.97031 16.6404 9.72523C17.1487 9.62023 18.0568 9.41009 18.2409 9.35483L18.391 9.30981L18.3975 8.30455C18.402 7.61022 18.3959 7.29928 18.3776 7.29928C18.363 7.29928 18.2643 7.3494 18.1581 7.41065C17.1705 7.98038 15.9104 8.25983 13.9269 8.349C11.2654 8.46866 8.83753 8.14175 7.5246 7.48695C7.40769 7.42864 7.28671 7.37305 7.25576 7.36343L7.19949 7.34593L7.19987 8.54196C7.20007 9.19978 7.20864 9.75117 7.21888 9.76728C7.2411 9.80221 7.95223 9.9298 8.51246 9.99938C9.80291 10.1596 11.4622 10.2272 12.8265 10.1751ZM6.38278 9.51913C6.39049 9.48818 6.40436 8.66371 6.4136 7.68697L6.4304 5.91109L6.50858 5.76142C6.67827 5.43659 7.06313 5.11798 7.58082 4.87375C8.67337 4.35832 10.5464 4.02752 12.4514 4.01354C12.9817 4.00965 13.0472 4.02845 13.1391 4.21094C13.1872 4.30643 13.1896 4.3735 13.2016 5.9361L13.2141 7.56191L13.4892 7.56951C13.8021 7.57815 14.6192 7.52088 15.2223 7.44804C16.5557 7.28698 17.5567 6.94812 18.0429 6.4932C18.2338 6.31465 18.3234 6.1731 18.3695 5.97731C18.4131 5.79195 18.4119 5.66637 18.3649 5.48594C18.0689 4.34921 16.2919 3.41859 13.6393 3.01104C12.0453 2.76614 10.1073 2.73304 8.52496 2.92369C6.26849 3.19555 4.35555 3.94161 3.42025 4.91457C3.11196 5.23527 2.90713 5.57589 2.84628 5.86907C2.80249 6.08002 2.82954 6.66375 2.89433 6.90618C3.15277 7.8732 4.00249 8.67667 5.36133 9.2389C5.58994 9.33349 6.28805 9.57283 6.34022 9.5745C6.35593 9.575 6.37508 9.55009 6.38278 9.51913ZM12.3953 6.19248L12.3888 4.81054L12.0137 4.81834C11.181 4.83565 9.88338 5.00161 9.12924 5.18723C8.1266 5.43402 7.40259 5.7843 7.23494 6.10369C7.18492 6.19899 7.18986 6.22977 7.27176 6.33284C7.58601 6.72833 8.42188 7.06938 9.66546 7.30954C10.0274 7.37944 10.7921 7.48066 11.2759 7.52271C11.4479 7.53765 11.6223 7.55371 11.6636 7.5584C11.7048 7.56309 11.8878 7.56861 12.0702 7.57067L12.4018 7.57442L12.3953 6.19248Z" fill="#E31C79" stroke="#E31C79" stroke-width="0.5"/>
      </svg>
    </g>

    <g id="seta-esquerda-pdp">
      <svg width="40" height="40" viewBox="0 0 40 40" fill="none" xmlns="http://www.w3.org/2000/svg">
        <rect x="39.5" y="39.5" width="39" height="39" rx="19.5" transform="rotate(-180 39.5 39.5)" fill="white"/>
        <path d="M22 26L16 20L22 14" stroke="#191919" stroke-width="1.5" stroke-linecap="round" stroke-linejoin="round"/>
        <rect x="39.5" y="39.5" width="39" height="39" rx="19.5" transform="rotate(-180 39.5 39.5)" stroke="#CCCCCC"/>
      </svg>
		</g>

    <g id="seta-direita-pdp">
      <svg width="40" height="40" viewBox="0 0 40 40" fill="none" xmlns="http://www.w3.org/2000/svg">
        <rect x="0.5" y="0.5" width="39" height="39" rx="19.5" fill="white"/>
        <path d="M18 14L24 20L18 26" stroke="#191919" stroke-width="1.5" stroke-linecap="round" stroke-linejoin="round"/>
        <rect x="0.5" y="0.5" width="39" height="39" rx="19.5" stroke="#CCCCCC"/>
      </svg>
		</g>

    <g id="icon-share-pdp">
      <svg width="32" height="32" viewBox="0 0 32 32" fill="none" xmlns="http://www.w3.org/2000/svg">
        <rect width="32" height="32" rx="16" fill="white"/>
        <path d="M22 26C23.6569 26 25 24.6569 25 23C25 21.3431 23.6569 20 22 20C20.3431 20 19 21.3431 19 23C19 24.6569 20.3431 26 22 26Z" stroke="#E31C79" stroke-width="1.5" stroke-linecap="round" stroke-linejoin="round"/>
        <path d="M10 19C11.6569 19 13 17.6569 13 16C13 14.3431 11.6569 13 10 13C8.34315 13 7 14.3431 7 16C7 17.6569 8.34315 19 10 19Z" stroke="#E31C79" stroke-width="1.5" stroke-linecap="round" stroke-linejoin="round"/>
        <path d="M12.59 17.51L19.42 21.49" stroke="#E31C79" stroke-width="1.5" stroke-linecap="round" stroke-linejoin="round"/>
        <path d="M22 12C23.6569 12 25 10.6569 25 9C25 7.34315 23.6569 6 22 6C20.3431 6 19 7.34315 19 9C19 10.6569 20.3431 12 22 12Z" stroke="#E31C79" stroke-width="1.5" stroke-linecap="round" stroke-linejoin="round"/>
        <path d="M19.41 10.51L12.59 14.49" stroke="#E31C79" stroke-width="1.5" stroke-linecap="round" stroke-linejoin="round"/>
      </svg>
    </g>

    <g id="icon-plus">
      <svg width="32" height="32" viewBox="0 0 32 32" fill="none" xmlns="http://www.w3.org/2000/svg">
        <rect width="32" height="32" rx="16" fill="white"/>
        <path d="M16 6.66667V25.3333" stroke="#EA133D" stroke-width="1.5" stroke-linecap="round" stroke-linejoin="round"/>
        <path d="M6.6665 16H25.3332" stroke="#EA133D" stroke-width="1.5" stroke-linecap="round" stroke-linejoin="round"/>
      </svg>
    </g>
  </defs>
</svg>
